SplineFontDB: 3.2
FontName: Lato-Share-Bold
FullName: Lato Share Bold
FamilyName: Lato Share
Weight: Bold
Copyright: Copyright (c) 2010-2011 by tyPoland Lukasz Dziedzic with Reserved Font Name "Lato". Licensed under the SIL Open Font License, Version 1.1.\n"Fair and Share" tax glyphs by Vector Hasting and shared under CC 4.0 SA-BY\n
Version: 1.104; Western+Polish opensource
ItalicAngle: 0
UnderlinePosition: -204.8
UnderlineWidth: 198.656
Ascent: 1649
Descent: 399
InvalidEm: 0
sfntRevision: 0x00011aa0
LayerCount: 2
Layer: 0 1 "Back" 1
Layer: 1 1 "Fore" 0
XUID: [1021 508 542950195 16071]
StyleMap: 0x0040
FSType: 0
OS2Version: 3
OS2_WeightWidthSlopeOnly: 0
OS2_UseTypoMetrics: 0
CreationTime: 1315810800
ModificationTime: 1758671645
PfmFamily: 17
TTFWeight: 700
TTFWidth: 5
LineGap: 0
VLineGap: 0
Panose: 2 15 10 2 2 2 4 3 2 3
OS2TypoAscent: 1649
OS2TypoAOffset: 0
OS2TypoDescent: -399
OS2TypoDOffset: 0
OS2TypoLinegap: 410
OS2WinAscent: 2021
OS2WinAOffset: 0
OS2WinDescent: 436
OS2WinDOffset: 0
HheadAscent: 2021
HheadAOffset: 0
HheadDescent: -436
HheadDOffset: 0
OS2SubXSize: 1434
OS2SubYSize: 1331
OS2SubXOff: 0
OS2SubYOff: 287
OS2SupXSize: 1434
OS2SupYSize: 1331
OS2SupXOff: 0
OS2SupYOff: 977
OS2StrikeYSize: 199
OS2StrikeYPos: 512
OS2CapHeight: 1492
OS2XHeight: 1062
OS2FamilyClass: 2051
OS2Vendor: 'tyPL'
OS2CodePages: 20000093.00000000
OS2UnicodeRanges: 800000af.4000604a.00000000.00000000
Lookup: 1 0 0 "'case' Case-Sensitive Forms in Latin lookup 0" { "'case' Case-Sensitive Forms in Latin lookup 0 subtable"  } ['case' ('DFLT' <'dflt' > 'latn' <'dflt' > ) ]
Lookup: 4 0 1 "'liga' Standard Ligatures in Latin lookup 1" { "'liga' Standard Ligatures in Latin lookup 1 subtable"  } ['liga' ('DFLT' <'dflt' > 'latn' <'dflt' > ) ]
Lookup: 1 0 0 "'sups' Superscript in Latin lookup 2" { "'sups' Superscript in Latin lookup 2 subtable" ("superior") } ['sups' ('DFLT' <'dflt' > 'latn' <'dflt' > ) ]

StartChar: .notdef
Encoding: 65536 -1 0
Width: 1149
GlyphClass: 1
Flags: W
LayerCount: 2
Fore
SplineSet
236 1180 m 1,0,1
 299 1229 299 1229 379 1261 c 128,-1,2
 459 1293 459 1293 566 1293 c 0,3,4
 646 1293 646 1293 707 1272.5 c 128,-1,5
 768 1252 768 1252 810 1215.5 c 128,-1,6
 852 1179 852 1179 873.5 1126.5 c 128,-1,7
 895 1074 895 1074 895 1011 c 0,8,9
 895 955 895 955 881.5 913.5 c 128,-1,10
 868 872 868 872 848 842.5 c 128,-1,11
 828 813 828 813 804 791.5 c 128,-1,12
 780 770 780 770 757.5 751.5 c 128,-1,13
 735 733 735 733 717.5 715.5 c 128,-1,14
 700 698 700 698 694 677 c 2,15,-1
 667 585 l 1,16,-1
 450 585 l 1,17,-1
 427 699 l 2,18,19
 423 717 423 717 423 733 c 0,20,21
 423 736 423 736 423 738 c 0,22,23
 423 754 423 754 428 768 c 0,24,25
 438 796 438 796 457.5 818 c 128,-1,26
 477 840 477 840 502 858 c 128,-1,27
 527 876 527 876 549 895 c 128,-1,28
 571 914 571 914 586 936.5 c 128,-1,29
 601 959 601 959 601 991 c 0,30,31
 601 1015 601 1015 587.5 1031 c 128,-1,32
 574 1047 574 1047 538 1047 c 0,33,34
 505 1047 505 1047 483.5 1041.5 c 128,-1,35
 462 1036 462 1036 446 1029.5 c 128,-1,36
 430 1023 430 1023 416 1018 c 128,-1,37
 402 1013 402 1013 384 1013 c 0,38,39
 340 1013 340 1013 319 1050 c 2,40,-1
 236 1180 l 1,0,1
383 339 m 256,41,42
 383 373 383 373 395.5 402 c 128,-1,43
 408 431 408 431 430.5 452.5 c 128,-1,44
 453 474 453 474 482.5 486.5 c 128,-1,45
 512 499 512 499 548 499 c 0,46,47
 582 499 582 499 611.5 486.5 c 128,-1,48
 641 474 641 474 663 452.5 c 128,-1,49
 685 431 685 431 698 402 c 128,-1,50
 711 373 711 373 711 339 c 256,51,52
 711 305 711 305 698 276 c 128,-1,53
 685 247 685 247 663 225.5 c 128,-1,54
 641 204 641 204 611.5 191.5 c 128,-1,55
 582 179 582 179 548 179 c 0,56,57
 512 179 512 179 482.5 191.5 c 128,-1,58
 453 204 453 204 430.5 225.5 c 128,-1,59
 408 247 408 247 395.5 276 c 128,-1,60
 383 305 383 305 383 339 c 256,41,42
41 1492 m 1,61,-1
 1109 1492 l 1,62,-1
 1109 0 l 1,63,-1
 41 0 l 1,64,-1
 41 1492 l 1,61,-1
120 82 m 1,65,-1
 1020 82 l 1,66,-1
 1020 1410 l 1,67,-1
 120 1410 l 1,68,-1
 120 82 l 1,65,-1
EndSplineSet
Validated: 1
EndChar

StartChar: exclam
Encoding: 33 33 4
Width: 770
GlyphClass: 1
Flags: W
LayerCount: 2
Fore
SplineSet
537 1492 m 1,0,-1
 537 906 l 2,1,2
 537 812 537 812 525.5 719.5 c 128,-1,3
 514 627 514 627 496 530 c 1,4,-1
 281 530 l 1,5,6
 263 626 263 626 251.5 719 c 128,-1,7
 240 812 240 812 240 906 c 2,8,-1
 240 1492 l 1,9,-1
 537 1492 l 1,0,-1
205 161 m 256,10,11
 205 198 205 198 218.5 229.5 c 128,-1,12
 232 261 232 261 256.5 284.5 c 128,-1,13
 281 308 281 308 313.5 322 c 128,-1,14
 346 336 346 336 385 336 c 0,15,16
 423 336 423 336 455.5 322 c 128,-1,17
 488 308 488 308 513 284.5 c 128,-1,18
 538 261 538 261 551.5 229.5 c 128,-1,19
 565 198 565 198 565 161 c 256,20,21
 565 124 565 124 551.5 91.5 c 128,-1,22
 538 59 538 59 513 35.5 c 128,-1,23
 488 12 488 12 455.5 -1 c 128,-1,24
 423 -14 423 -14 385 -14 c 0,25,26
 346 -14 346 -14 313.5 -1 c 128,-1,27
 281 12 281 12 256.5 35.5 c 128,-1,28
 232 59 232 59 218.5 91.5 c 128,-1,29
 205 124 205 124 205 161 c 256,10,11
EndSplineSet
Validated: 1
EndChar

StartChar: quotedbl
Encoding: 34 34 5
Width: 911
GlyphClass: 1
Flags: W
LayerCount: 2
Fore
SplineSet
389 1492 m 1,0,-1
 389 1199 l 1,1,-1
 360 1037 l 2,2,3
 351 982 351 982 327.5 953 c 128,-1,4
 304 924 304 924 250 924 c 0,5,6
 204 924 204 924 178 953 c 128,-1,7
 152 982 152 982 141 1037 c 2,8,-1
 113 1199 l 1,9,-1
 113 1492 l 1,10,-1
 389 1492 l 1,0,-1
799 1492 m 1,11,-1
 799 1199 l 1,12,-1
 770 1037 l 2,13,14
 761 982 761 982 737.5 953 c 128,-1,15
 714 924 714 924 659 924 c 0,16,17
 613 924 613 924 587 953 c 128,-1,18
 561 982 561 982 551 1037 c 2,19,-1
 522 1199 l 1,20,-1
 522 1492 l 1,21,-1
 799 1492 l 1,11,-1
EndSplineSet
Validated: 1
EndChar

StartChar: numbersign
Encoding: 35 35 6
Width: 1187
GlyphClass: 1
Flags: W
LayerCount: 2
Fore
SplineSet
883 404 m 1,0,-1
 811 0 l 1,1,-1
 664 0 l 2,2,3
 645 0 645 0 627.5 8 c 128,-1,4
 610 16 610 16 598 30 c 128,-1,5
 586 44 586 44 578.5 63 c 128,-1,6
 571 82 571 82 571 103 c 0,7,8
 571 108 571 108 571.5 114.5 c 128,-1,9
 572 121 572 121 573 126 c 2,10,-1
 623 404 l 1,11,-1
 454 404 l 1,12,-1
 403 111 l 2,13,14
 398 81 398 81 385 60 c 128,-1,15
 372 39 372 39 352.5 25.5 c 128,-1,16
 333 12 333 12 310 6 c 128,-1,17
 287 0 287 0 262 0 c 2,18,-1
 121 0 l 1,19,-1
 193 404 l 1,20,-1
 102 404 l 2,21,22
 63 404 63 404 41.5 423 c 128,-1,23
 20 442 20 442 20 487 c 0,24,25
 20 496 20 496 21.5 506.5 c 128,-1,26
 23 517 23 517 25 528 c 2,27,-1
 41 627 l 1,28,-1
 222 627 l 1,29,-1
 265 868 l 1,30,-1
 61 868 l 1,31,-1
 86 997 l 2,32,33
 95 1044 95 1044 126.5 1067 c 128,-1,34
 158 1090 158 1090 225 1090 c 2,35,-1
 295 1090 l 1,36,-1
 348 1390 l 2,37,38
 356 1438 356 1438 394 1465 c 128,-1,39
 432 1492 432 1492 481 1492 c 2,40,-1
 627 1492 l 1,41,-1
 555 1090 l 1,42,-1
 725 1090 l 1,43,-1
 797 1492 l 1,44,-1
 938 1492 l 2,45,46
 983 1492 983 1492 1011 1467.5 c 128,-1,47
 1039 1443 1039 1443 1039 1404 c 0,48,49
 1039 1400 1039 1400 1039 1396.5 c 128,-1,50
 1039 1393 1039 1393 1038 1388 c 2,51,-1
 985 1090 l 1,52,-1
 1184 1090 l 1,53,-1
 1159 961 l 2,54,55
 1150 913 1150 913 1118.5 890.5 c 128,-1,56
 1087 868 1087 868 1020 868 c 2,57,-1
 955 868 l 1,58,-1
 912 627 l 1,59,-1
 1024 627 l 2,60,61
 1063 627 1063 627 1084.5 608 c 128,-1,62
 1106 589 1106 589 1106 544 c 0,63,64
 1106 535 1106 535 1105 524.5 c 128,-1,65
 1104 514 1104 514 1102 503 c 2,66,-1
 1085 404 l 1,67,-1
 883 404 l 1,0,-1
482 627 m 1,68,-1
 652 627 l 1,69,-1
 695 868 l 1,70,-1
 525 868 l 1,71,-1
 482 627 l 1,68,-1
EndSplineSet
Validated: 1
EndChar

StartChar: dollar
Encoding: 36 36 7
Width: 1187
GlyphClass: 1
Flags: W
LayerCount: 2
Fore
SplineSet
440 -5 m 1,0,1
 322 14 322 14 215.5 63 c 128,-1,2
 109 112 109 112 35 180 c 1,3,-1
 133 323 l 2,4,5
 145 340 145 340 166 352 c 128,-1,6
 187 364 187 364 211 364 c 0,7,8
 236 364 236 364 261.5 351 c 128,-1,9
 287 338 287 338 317 319.5 c 128,-1,10
 347 301 347 301 383 282 c 128,-1,11
 419 263 419 263 465 251 c 1,12,-1
 503 638 l 1,13,14
 429 658 429 658 356.5 686 c 128,-1,15
 284 714 284 714 225.5 761 c 128,-1,16
 167 808 167 808 130.5 880.5 c 128,-1,17
 94 953 94 953 94 1063 c 0,18,19
 94 1144 94 1144 127 1220.5 c 128,-1,20
 160 1297 160 1297 223 1358.5 c 128,-1,21
 286 1420 286 1420 378 1459.5 c 128,-1,22
 470 1499 470 1499 589 1505 c 1,23,-1
 600 1619 l 2,24,25
 603 1648 603 1648 625.5 1671 c 128,-1,26
 648 1694 648 1694 684 1694 c 2,27,-1
 801 1694 l 1,28,-1
 780 1492 l 1,29,30
 891 1472 891 1472 971 1426 c 128,-1,31
 1051 1380 1051 1380 1106 1328 c 1,32,-1
 1028 1214 l 2,33,34
 1011 1188 1011 1188 993 1176.5 c 128,-1,35
 975 1165 975 1165 950 1165 c 0,36,37
 934 1165 934 1165 913.5 1172.5 c 128,-1,38
 893 1180 893 1180 868.5 1190.5 c 128,-1,39
 844 1201 844 1201 815.5 1213.5 c 128,-1,40
 787 1226 787 1226 756 1235 c 1,41,-1
 720 871 l 1,42,43
 769 857 769 857 818 840 c 128,-1,44
 867 823 867 823 912.5 801 c 128,-1,45
 958 779 958 779 997.5 750.5 c 128,-1,46
 1037 722 1037 722 1066.5 683 c 128,-1,47
 1096 644 1096 644 1112 593.5 c 128,-1,48
 1128 543 1128 543 1128 478 c 0,49,50
 1128 381 1128 381 1095.5 295.5 c 128,-1,51
 1063 210 1063 210 999.5 144.5 c 128,-1,52
 936 79 936 79 844 37.5 c 128,-1,53
 752 -4 752 -4 633 -13 c 1,54,-1
 621 -141 l 2,55,56
 618 -170 618 -170 595 -193 c 128,-1,57
 572 -216 572 -216 537 -216 c 2,58,-1
 420 -216 l 1,59,-1
 440 -5 l 1,0,1
827 431 m 0,60,61
 827 489 827 489 790 524 c 128,-1,62
 753 559 753 559 691 583 c 1,63,-1
 658 245 l 1,64,65
 827 274 827 274 827 431 c 0,60,61
393 1094 m 0,66,67
 393 1034 393 1034 431.5 996 c 128,-1,68
 470 958 470 958 532 933 c 1,69,-1
 563 1242 l 1,70,71
 516 1235 516 1235 484 1221 c 128,-1,72
 452 1207 452 1207 432 1187.5 c 128,-1,73
 412 1168 412 1168 402.5 1144.5 c 128,-1,74
 393 1121 393 1121 393 1094 c 0,66,67
EndSplineSet
Validated: 1
EndChar

StartChar: percent
Encoding: 37 37 8
Width: 1675
GlyphClass: 1
Flags: W
LayerCount: 2
Fore
SplineSet
766 1130 m 0,0,1
 766 1048 766 1048 736.5 980.5 c 128,-1,2
 707 913 707 913 657.5 864.5 c 128,-1,3
 608 816 608 816 543 789.5 c 128,-1,4
 478 763 478 763 408 763 c 0,5,6
 330 763 330 763 265 789.5 c 128,-1,7
 200 816 200 816 152 864.5 c 128,-1,8
 104 913 104 913 77.5 981 c 128,-1,9
 51 1049 51 1049 51 1130 c 0,10,11
 51 1215 51 1215 77.5 1284.5 c 128,-1,12
 104 1354 104 1354 152 1403 c 128,-1,13
 200 1452 200 1452 265 1479 c 128,-1,14
 330 1506 330 1506 408 1506 c 256,15,16
 486 1506 486 1506 551.5 1479 c 128,-1,17
 617 1452 617 1452 665 1403 c 128,-1,18
 713 1354 713 1354 739.5 1284.5 c 128,-1,19
 766 1215 766 1215 766 1130 c 0,0,1
522 1130 m 0,20,21
 522 1182 522 1182 513.5 1216.5 c 128,-1,22
 505 1251 505 1251 489.5 1271.5 c 128,-1,23
 474 1292 474 1292 453 1300.5 c 128,-1,24
 432 1309 432 1309 408 1309 c 256,25,26
 383 1309 383 1309 362.5 1300.5 c 128,-1,27
 342 1292 342 1292 327.5 1271.5 c 128,-1,28
 313 1251 313 1251 305 1217 c 128,-1,29
 297 1183 297 1183 297 1130 c 0,30,31
 297 1081 297 1081 305 1048.5 c 128,-1,32
 313 1016 313 1016 327.5 996.5 c 128,-1,33
 342 977 342 977 362.5 969 c 128,-1,34
 383 961 383 961 408 961 c 256,35,36
 433 961 433 961 453.5 969 c 128,-1,37
 474 977 474 977 489.5 996.5 c 128,-1,38
 505 1016 505 1016 513.5 1048.5 c 128,-1,39
 522 1081 522 1081 522 1130 c 0,20,21
1235 1445 m 2,40,41
 1250 1462 1250 1462 1272.5 1477 c 128,-1,42
 1295 1492 1295 1492 1335 1492 c 2,43,-1
 1567 1492 l 1,44,-1
 442 45 l 2,45,46
 427 26 427 26 404 13 c 128,-1,47
 381 0 381 0 348 0 c 2,48,-1
 111 0 l 1,49,-1
 1235 1445 l 2,40,41
1624 350 m 0,50,51
 1624 268 1624 268 1594.5 200 c 128,-1,52
 1565 132 1565 132 1515.5 83.5 c 128,-1,53
 1466 35 1466 35 1401 8.5 c 128,-1,54
 1336 -18 1336 -18 1266 -18 c 0,55,56
 1188 -18 1188 -18 1123 8.5 c 128,-1,57
 1058 35 1058 35 1010.5 83.5 c 128,-1,58
 963 132 963 132 936 200 c 128,-1,59
 909 268 909 268 909 350 c 0,60,61
 909 435 909 435 936 504 c 128,-1,62
 963 573 963 573 1010.5 622.5 c 128,-1,63
 1058 672 1058 672 1123 699 c 128,-1,64
 1188 726 1188 726 1266 726 c 256,65,66
 1344 726 1344 726 1410 699 c 128,-1,67
 1476 672 1476 672 1523.5 622.5 c 128,-1,68
 1571 573 1571 573 1597.5 504 c 128,-1,69
 1624 435 1624 435 1624 350 c 0,50,51
1380 350 m 0,70,71
 1380 401 1380 401 1371.5 435.5 c 128,-1,72
 1363 470 1363 470 1347.5 490.5 c 128,-1,73
 1332 511 1332 511 1311 519 c 128,-1,74
 1290 527 1290 527 1266 527 c 256,75,76
 1241 527 1241 527 1220.5 519 c 128,-1,77
 1200 511 1200 511 1185.5 490.5 c 128,-1,78
 1171 470 1171 470 1163 435.5 c 128,-1,79
 1155 401 1155 401 1155 350 c 0,80,81
 1155 301 1155 301 1163 268.5 c 128,-1,82
 1171 236 1171 236 1185.5 216.5 c 128,-1,83
 1200 197 1200 197 1220.5 188.5 c 128,-1,84
 1241 180 1241 180 1266 180 c 256,85,86
 1291 180 1291 180 1311.5 188.5 c 128,-1,87
 1332 197 1332 197 1347.5 216.5 c 128,-1,88
 1363 236 1363 236 1371.5 268.5 c 128,-1,89
 1380 301 1380 301 1380 350 c 0,70,71
EndSplineSet
Validated: 1
EndChar

StartChar: ampersand
Encoding: 38 38 9
Width: 1480
GlyphClass: 1
Flags: W
LayerCount: 2
Fore
SplineSet
680 1508 m 0,0,1
 779 1508 779 1508 855 1479 c 128,-1,2
 931 1450 931 1450 983 1402.5 c 128,-1,3
 1035 1355 1035 1355 1065 1292.5 c 128,-1,4
 1095 1230 1095 1230 1102 1164 c 1,5,-1
 897 1123 l 2,6,7
 892 1122 892 1122 888.5 1121.5 c 128,-1,8
 885 1121 885 1121 881 1121 c 0,9,10
 838 1121 838 1121 817 1166 c 0,11,12
 793 1219 793 1219 762 1247 c 128,-1,13
 731 1275 731 1275 680 1275 c 0,14,15
 644 1275 644 1275 617.5 1261.5 c 128,-1,16
 591 1248 591 1248 573 1226.5 c 128,-1,17
 555 1205 555 1205 546 1176.5 c 128,-1,18
 537 1148 537 1148 537 1117 c 0,19,20
 537 1090 537 1090 541.5 1065.5 c 128,-1,21
 546 1041 546 1041 556.5 1016 c 128,-1,22
 567 991 567 991 586 964.5 c 128,-1,23
 605 938 605 938 635 907 c 2,24,-1
 1004 518 l 1,25,26
 1032 579 1032 579 1048 646 c 128,-1,27
 1064 713 1064 713 1071 784 c 0,28,29
 1073 813 1073 813 1090 829.5 c 128,-1,30
 1107 846 1107 846 1135 846 c 2,31,-1
 1335 846 l 1,32,33
 1335 696 1335 696 1295 566.5 c 128,-1,34
 1255 437 1255 437 1182 330 c 1,35,-1
 1495 0 l 1,36,-1
 1182 0 l 2,37,38
 1158 0 1158 0 1139.5 2.5 c 128,-1,39
 1121 5 1121 5 1105.5 11 c 128,-1,40
 1090 17 1090 17 1075.5 28.5 c 128,-1,41
 1061 40 1061 40 1044 57 c 2,42,-1
 980 125 l 1,43,44
 883 57 883 57 767.5 20.5 c 128,-1,45
 652 -16 652 -16 522 -16 c 0,46,47
 433 -16 433 -16 347.5 14.5 c 128,-1,48
 262 45 262 45 195.5 102 c 128,-1,49
 129 159 129 159 88 240 c 128,-1,50
 47 321 47 321 47 421 c 0,51,52
 47 489 47 489 68 549 c 128,-1,53
 89 609 89 609 127 661 c 128,-1,54
 165 713 165 713 217.5 755.5 c 128,-1,55
 270 798 270 798 333 829 c 1,56,57
 285 904 285 904 263.5 976 c 128,-1,58
 242 1048 242 1048 242 1115 c 0,59,60
 242 1195 242 1195 271 1266 c 128,-1,61
 300 1337 300 1337 356 1391 c 128,-1,62
 412 1445 412 1445 493.5 1476.5 c 128,-1,63
 575 1508 575 1508 680 1508 c 0,0,1
371 446 m 0,64,65
 371 397 371 397 385.5 357 c 128,-1,66
 400 317 400 317 428 288.5 c 128,-1,67
 456 260 456 260 494 244 c 128,-1,68
 532 228 532 228 580 228 c 0,69,70
 649 228 649 228 707.5 246 c 128,-1,71
 766 264 766 264 817 297 c 1,72,-1
 474 660 l 1,73,74
 418 614 418 614 394.5 559.5 c 128,-1,75
 371 505 371 505 371 446 c 0,64,65
EndSplineSet
Validated: 1
EndChar

StartChar: quotesingle
Encoding: 39 39 10
Width: 501
GlyphClass: 1
Flags: W
LayerCount: 2
Fore
SplineSet
389 1492 m 1,0,-1
 389 1199 l 1,1,-1
 360 1037 l 2,2,3
 351 982 351 982 327.5 953 c 128,-1,4
 304 924 304 924 250 924 c 0,5,6
 204 924 204 924 178 953 c 128,-1,7
 152 982 152 982 141 1037 c 2,8,-1
 113 1199 l 1,9,-1
 113 1492 l 1,10,-1
 389 1492 l 1,0,-1
EndSplineSet
Validated: 1
EndChar

StartChar: parenleft
Encoding: 40 40 11
Width: 614
GlyphClass: 1
Flags: W
LayerCount: 2
Fore
SplineSet
356 641 m 256,0,1
 356 540 356 540 368 437.5 c 128,-1,2
 380 335 380 335 403 235.5 c 128,-1,3
 426 136 426 136 459.5 42 c 128,-1,4
 493 -52 493 -52 535 -138 c 0,5,6
 549 -168 549 -168 549 -193 c 256,7,8
 549 -218 549 -218 535.5 -233 c 128,-1,9
 522 -248 522 -248 504 -259 c 2,10,-1
 362 -341 l 1,11,12
 287 -226 287 -226 234 -107.5 c 128,-1,13
 181 11 181 11 147.5 133.5 c 128,-1,14
 114 256 114 256 98 383 c 128,-1,15
 82 510 82 510 82 641 c 256,16,17
 82 772 82 772 98 899 c 128,-1,18
 114 1026 114 1026 147.5 1148.5 c 128,-1,19
 181 1271 181 1271 234.5 1389.5 c 128,-1,20
 288 1508 288 1508 362 1624 c 1,21,-1
 504 1542 l 2,22,23
 521 1531 521 1531 534.5 1515.5 c 128,-1,24
 548 1500 548 1500 548 1477 c 0,25,26
 548 1466 548 1466 544.5 1452.5 c 128,-1,27
 541 1439 541 1439 532 1422 c 0,28,29
 489 1337 489 1337 456.5 1242.5 c 128,-1,30
 424 1148 424 1148 401.5 1048 c 128,-1,31
 379 948 379 948 367.5 845 c 128,-1,32
 356 742 356 742 356 641 c 256,0,1
EndSplineSet
Validated: 1
EndChar

StartChar: parenright
Encoding: 41 41 12
Width: 614
GlyphClass: 1
Flags: W
LayerCount: 2
Fore
SplineSet
258 641 m 256,0,1
 258 742 258 742 247 845 c 128,-1,2
 236 948 236 948 213 1048 c 128,-1,3
 190 1148 190 1148 157.5 1242.5 c 128,-1,4
 125 1337 125 1337 82 1422 c 0,5,6
 74 1438 74 1438 70.5 1451.5 c 128,-1,7
 67 1465 67 1465 67 1477 c 0,8,9
 67 1501 67 1501 80 1516 c 128,-1,10
 93 1531 93 1531 111 1542 c 2,11,-1
 252 1624 l 1,12,13
 400 1393 400 1393 466 1148 c 128,-1,14
 532 903 532 903 532 641 c 0,15,16
 532 378 532 378 466 133.5 c 128,-1,17
 400 -111 400 -111 252 -341 c 1,18,-1
 111 -259 l 2,19,20
 93 -248 93 -248 79.5 -232.5 c 128,-1,21
 66 -217 66 -217 66 -193 c 256,22,23
 66 -168 66 -168 80 -138 c 0,24,25
 122 -52 122 -52 155 42 c 128,-1,26
 188 136 188 136 211 235.5 c 128,-1,27
 234 335 234 335 246 437.5 c 128,-1,28
 258 540 258 540 258 641 c 256,0,1
EndSplineSet
Validated: 1
EndChar

StartChar: asterisk
Encoding: 42 42 13
Width: 819
GlyphClass: 1
Flags: W
LayerCount: 2
Fore
SplineSet
334 835 m 1,0,-1
 334 1012 l 2,1,2
 334 1032 334 1032 336.5 1053 c 128,-1,3
 339 1074 339 1074 345 1092 c 1,4,5
 332 1078 332 1078 315.5 1066.5 c 128,-1,6
 299 1055 299 1055 281 1043 c 2,7,-1
 131 956 l 1,8,-1
 57 1078 l 1,9,-1
 207 1165 l 2,10,11
 226 1176 226 1176 245.5 1184.5 c 128,-1,12
 265 1193 265 1193 286 1197 c 1,13,14
 266 1201 266 1201 246 1210 c 128,-1,15
 226 1219 226 1219 207 1230 c 2,16,-1
 57 1319 l 1,17,-1
 131 1442 l 1,18,-1
 281 1352 l 2,19,20
 299 1341 299 1341 316 1329 c 128,-1,21
 333 1317 333 1317 346 1303 c 1,22,23
 334 1338 334 1338 334 1381 c 2,24,-1
 334 1561 l 1,25,-1
 483 1561 l 1,26,-1
 483 1383 l 2,27,28
 483 1361 483 1361 480.5 1341 c 128,-1,29
 478 1321 478 1321 472 1303 c 1,30,31
 485 1317 485 1317 501.5 1328.5 c 128,-1,32
 518 1340 518 1340 537 1352 c 2,33,-1
 686 1440 l 1,34,-1
 760 1317 l 1,35,-1
 610 1230 l 2,36,37
 590 1219 590 1219 570.5 1210.5 c 128,-1,38
 551 1202 551 1202 530 1198 c 1,39,40
 550 1194 550 1194 570.5 1185.5 c 128,-1,41
 591 1177 591 1177 610 1165 c 2,42,-1
 760 1076 l 1,43,-1
 686 954 l 1,44,-1
 537 1043 l 2,45,46
 518 1054 518 1054 501 1066 c 128,-1,47
 484 1078 484 1078 470 1093 c 1,48,49
 483 1057 483 1057 483 1014 c 2,50,-1
 483 835 l 1,51,-1
 334 835 l 1,0,-1
EndSplineSet
Validated: 1
EndChar

StartChar: plus
Encoding: 43 43 14
Width: 1187
GlyphClass: 1
Flags: W
LayerCount: 2
Fore
SplineSet
721 1207 m 1,0,-1
 721 802 l 1,1,-1
 1100 802 l 1,2,-1
 1100 574 l 1,3,-1
 721 574 l 1,4,-1
 721 167 l 1,5,-1
 463 167 l 1,6,-1
 463 574 l 1,7,-1
 86 574 l 1,8,-1
 86 802 l 1,9,-1
 463 802 l 1,10,-1
 463 1207 l 1,11,-1
 721 1207 l 1,0,-1
EndSplineSet
Validated: 1
EndChar

StartChar: comma
Encoding: 44 44 15
Width: 483
GlyphClass: 1
Flags: W
LayerCount: 2
Fore
SplineSet
70 180 m 0,0,1
 70 213 70 213 82 241 c 128,-1,2
 94 269 94 269 117 290 c 128,-1,3
 140 311 140 311 171.5 323.5 c 128,-1,4
 203 336 203 336 242 336 c 0,5,6
 288 336 288 336 321.5 320 c 128,-1,7
 355 304 355 304 377.5 277 c 128,-1,8
 400 250 400 250 411 214.5 c 128,-1,9
 422 179 422 179 422 140 c 0,10,11
 422 89 422 89 405.5 31 c 128,-1,12
 389 -27 389 -27 357 -85 c 128,-1,13
 325 -143 325 -143 276.5 -199.5 c 128,-1,14
 228 -256 228 -256 166 -302 c 1,15,-1
 111 -253 l 2,16,17
 100 -242 100 -242 94 -232 c 128,-1,18
 88 -222 88 -222 88 -208 c 0,19,20
 88 -198 88 -198 95 -186 c 128,-1,21
 102 -174 102 -174 113 -165 c 0,22,23
 125 -153 125 -153 141.5 -135.5 c 128,-1,24
 158 -118 158 -118 174 -96.5 c 128,-1,25
 190 -75 190 -75 204 -49.5 c 128,-1,26
 218 -24 218 -24 225 5 c 1,27,28
 189 8 189 8 160.5 22.5 c 128,-1,29
 132 37 132 37 112 60.5 c 128,-1,30
 92 84 92 84 81 114 c 128,-1,31
 70 144 70 144 70 180 c 0,0,1
EndSplineSet
Validated: 1
EndChar

StartChar: hyphen
Encoding: 45 45 16
Width: 757
GlyphClass: 1
Flags: W
LayerCount: 2
Fore
SplineSet
102 751 m 1,0,-1
 655 751 l 1,1,-1
 655 495 l 1,2,-1
 102 495 l 1,3,-1
 102 751 l 1,0,-1
EndSplineSet
Validated: 1
EndChar

StartChar: period
Encoding: 46 46 17
Width: 483
GlyphClass: 1
Flags: W
LayerCount: 2
Fore
SplineSet
61 161 m 256,0,1
 61 198 61 198 75 229.5 c 128,-1,2
 89 261 89 261 113 284.5 c 128,-1,3
 137 308 137 308 170 322 c 128,-1,4
 203 336 203 336 242 336 c 0,5,6
 280 336 280 336 312.5 322 c 128,-1,7
 345 308 345 308 369.5 284.5 c 128,-1,8
 394 261 394 261 408 229.5 c 128,-1,9
 422 198 422 198 422 161 c 256,10,11
 422 124 422 124 408 91.5 c 128,-1,12
 394 59 394 59 369.5 35.5 c 128,-1,13
 345 12 345 12 312.5 -1 c 128,-1,14
 280 -14 280 -14 242 -14 c 0,15,16
 203 -14 203 -14 170 -1 c 128,-1,17
 137 12 137 12 113 35.5 c 128,-1,18
 89 59 89 59 75 91.5 c 128,-1,19
 61 124 61 124 61 161 c 256,0,1
EndSplineSet
Validated: 1
EndChar

StartChar: slash
Encoding: 47 47 18
Width: 819
GlyphClass: 1
Flags: W
LayerCount: 2
Fore
SplineSet
276 12 m 2,0,1
 265 -16 265 -16 247 -37 c 128,-1,2
 229 -58 229 -58 207 -72.5 c 128,-1,3
 185 -87 185 -87 160 -94 c 128,-1,4
 135 -101 135 -101 111 -101 c 2,5,-1
 -25 -101 l 1,6,-1
 557 1425 l 2,7,8
 577 1477 577 1477 619.5 1505 c 128,-1,9
 662 1533 662 1533 717 1533 c 2,10,-1
 852 1533 l 1,11,-1
 276 12 l 2,0,1
EndSplineSet
Validated: 1
EndChar

StartChar: zero
Encoding: 48 48 19
Width: 1187
GlyphClass: 1
Flags: W
LayerCount: 2
Fore
SplineSet
1147 746 m 256,0,1
 1147 550 1147 550 1105 407 c 128,-1,2
 1063 264 1063 264 988.5 170 c 128,-1,3
 914 76 914 76 812.5 30 c 128,-1,4
 711 -16 711 -16 592 -16 c 256,5,6
 473 -16 473 -16 372 30 c 128,-1,7
 271 76 271 76 197.5 170 c 128,-1,8
 124 264 124 264 82.5 407.5 c 128,-1,9
 41 551 41 551 41 746 c 256,10,11
 41 942 41 942 82.5 1085.5 c 128,-1,12
 124 1229 124 1229 197.5 1323 c 128,-1,13
 271 1417 271 1417 372 1462.5 c 128,-1,14
 473 1508 473 1508 592 1508 c 256,15,16
 711 1508 711 1508 812.5 1462.5 c 128,-1,17
 914 1417 914 1417 988.5 1323 c 128,-1,18
 1063 1229 1063 1229 1105 1085.5 c 128,-1,19
 1147 942 1147 942 1147 746 c 256,0,1
819 746 m 0,20,21
 819 901 819 901 799.5 1000 c 128,-1,22
 780 1099 780 1099 748 1155 c 128,-1,23
 716 1211 716 1211 675 1232 c 128,-1,24
 634 1253 634 1253 592 1253 c 256,25,26
 550 1253 550 1253 509.5 1232 c 128,-1,27
 469 1211 469 1211 438 1155 c 128,-1,28
 407 1099 407 1099 388 1000 c 128,-1,29
 369 901 369 901 369 746 c 0,30,31
 369 590 369 590 388 492 c 128,-1,32
 407 394 407 394 438 337.5 c 128,-1,33
 469 281 469 281 509.5 260 c 128,-1,34
 550 239 550 239 592 239 c 256,35,36
 634 239 634 239 675 260 c 128,-1,37
 716 281 716 281 748 337.5 c 128,-1,38
 780 394 780 394 799.5 492 c 128,-1,39
 819 590 819 590 819 746 c 0,20,21
EndSplineSet
Validated: 1
EndChar

StartChar: one
Encoding: 49 49 20
Width: 1187
GlyphClass: 1
Flags: W
LayerCount: 2
Fore
SplineSet
258 229 m 1,0,-1
 545 229 l 1,1,-1
 545 982 l 2,2,3
 545 1037 545 1037 548 1098 c 1,4,-1
 379 957 l 2,5,6
 363 944 363 944 346.5 938.5 c 128,-1,7
 330 933 330 933 314 933 c 0,8,9
 287 933 287 933 266.5 944.5 c 128,-1,10
 246 956 246 956 236 970 c 2,11,-1
 135 1103 l 1,12,-1
 600 1493 l 1,13,-1
 862 1493 l 1,14,-1
 862 229 l 1,15,-1
 1108 229 l 1,16,-1
 1108 0 l 1,17,-1
 258 0 l 1,18,-1
 258 229 l 1,0,-1
EndSplineSet
Validated: 1
Substitution2: "'sups' Superscript in Latin lookup 2 subtable" onesuperior
EndChar

StartChar: two
Encoding: 50 50 21
Width: 1187
GlyphClass: 1
Flags: W
LayerCount: 2
Fore
SplineSet
616 1508 m 0,0,1
 727 1508 727 1508 815.5 1476 c 128,-1,2
 904 1444 904 1444 966.5 1386.5 c 128,-1,3
 1029 1329 1029 1329 1062.5 1249.5 c 128,-1,4
 1096 1170 1096 1170 1096 1075 c 0,5,6
 1096 993 1096 993 1073 923.5 c 128,-1,7
 1050 854 1050 854 1010 791 c 128,-1,8
 970 728 970 728 917 669 c 128,-1,9
 864 610 864 610 805 550 c 2,10,-1
 513 251 l 1,11,12
 569 267 569 267 624 277 c 128,-1,13
 679 287 679 287 727 287 c 2,14,-1
 1006 287 l 2,15,16
 1057 287 1057 287 1086.5 258.5 c 128,-1,17
 1116 230 1116 230 1116 184 c 2,18,-1
 1116 0 l 1,19,-1
 68 0 l 1,20,-1
 68 102 l 2,21,22
 68 132 68 132 80 166 c 128,-1,23
 92 200 92 200 123 227 c 2,24,-1
 553 660 l 2,25,26
 608 715 608 715 649 765.5 c 128,-1,27
 690 816 690 816 716.5 864.5 c 128,-1,28
 743 913 743 913 756.5 962 c 128,-1,29
 770 1011 770 1011 770 1065 c 0,30,31
 770 1154 770 1154 727.5 1201.5 c 128,-1,32
 685 1249 685 1249 598 1249 c 0,33,34
 562 1249 562 1249 532.5 1239 c 128,-1,35
 503 1229 503 1229 479.5 1211.5 c 128,-1,36
 456 1194 456 1194 439 1170.5 c 128,-1,37
 422 1147 422 1147 412 1119 c 0,38,39
 396 1073 396 1073 370.5 1052.5 c 128,-1,40
 345 1032 345 1032 302 1032 c 0,41,42
 292 1032 292 1032 280 1033 c 128,-1,43
 268 1034 268 1034 256 1036 c 2,44,-1
 88 1066 l 1,45,46
 104 1178 104 1178 151 1260.5 c 128,-1,47
 198 1343 198 1343 267 1398.5 c 128,-1,48
 336 1454 336 1454 425 1481 c 128,-1,49
 514 1508 514 1508 616 1508 c 0,0,1
EndSplineSet
Validated: 1
Substitution2: "'sups' Superscript in Latin lookup 2 subtable" twosuperior
EndChar

StartChar: three
Encoding: 51 51 22
Width: 1187
GlyphClass: 1
Flags: W
LayerCount: 2
Fore
SplineSet
645 1508 m 0,0,1
 756 1508 756 1508 842 1477 c 128,-1,2
 928 1446 928 1446 987.5 1392.5 c 128,-1,3
 1047 1339 1047 1339 1077.5 1269 c 128,-1,4
 1108 1199 1108 1199 1108 1121 c 0,5,6
 1108 1050 1108 1050 1093.5 996.5 c 128,-1,7
 1079 943 1079 943 1051 903.5 c 128,-1,8
 1023 864 1023 864 981.5 836.5 c 128,-1,9
 940 809 940 809 887 791 c 1,10,11
 1135 705 1135 705 1135 454 c 0,12,13
 1135 335 1135 335 1092 247 c 128,-1,14
 1049 159 1049 159 976.5 100.5 c 128,-1,15
 904 42 904 42 809 13 c 128,-1,16
 714 -16 714 -16 610 -16 c 0,17,18
 504 -16 504 -16 421 7 c 128,-1,19
 338 30 338 30 273.5 78.5 c 128,-1,20
 209 127 209 127 160.5 203 c 128,-1,21
 112 279 112 279 76 383 c 1,22,-1
 217 440 l 2,23,24
 235 448 235 448 253 451.5 c 128,-1,25
 271 455 271 455 289 455 c 0,26,27
 322 455 322 455 348 442 c 128,-1,28
 374 429 374 429 387 404 c 0,29,30
 433 319 433 319 485 281 c 128,-1,31
 537 243 537 243 606 243 c 0,32,33
 659 243 659 243 698.5 261 c 128,-1,34
 738 279 738 279 764.5 307 c 128,-1,35
 791 335 791 335 804 371 c 128,-1,36
 817 407 817 407 817 443 c 0,37,38
 817 491 817 491 810.5 529.5 c 128,-1,39
 804 568 804 568 773 596 c 128,-1,40
 742 624 742 624 680 638.5 c 128,-1,41
 618 653 618 653 508 653 c 1,42,-1
 508 872 l 1,43,44
 601 872 601 872 658.5 886.5 c 128,-1,45
 716 901 716 901 747 926 c 128,-1,46
 778 951 778 951 788.5 987 c 128,-1,47
 799 1023 799 1023 799 1066 c 0,48,49
 799 1154 799 1154 756.5 1201.5 c 128,-1,50
 714 1249 714 1249 627 1249 c 0,51,52
 591 1249 591 1249 561 1239 c 128,-1,53
 531 1229 531 1229 507.5 1211.5 c 128,-1,54
 484 1194 484 1194 467.5 1170.5 c 128,-1,55
 451 1147 451 1147 440 1119 c 0,56,57
 424 1073 424 1073 399 1052.5 c 128,-1,58
 374 1032 374 1032 331 1032 c 0,59,60
 321 1032 321 1032 309 1033 c 128,-1,61
 297 1034 297 1034 285 1036 c 2,62,-1
 117 1066 l 1,63,64
 133 1178 133 1178 179.5 1260.5 c 128,-1,65
 226 1343 226 1343 295.5 1398.5 c 128,-1,66
 365 1454 365 1454 454 1481 c 128,-1,67
 543 1508 543 1508 645 1508 c 0,0,1
EndSplineSet
Validated: 1
Substitution2: "'sups' Superscript in Latin lookup 2 subtable" threesuperior
EndChar

StartChar: four
Encoding: 52 52 23
Width: 1187
GlyphClass: 1
Flags: W
LayerCount: 2
Fore
SplineSet
999 580 m 1,0,-1
 1153 580 l 1,1,-1
 1153 401 l 2,2,3
 1153 377 1153 377 1137 360 c 128,-1,4
 1121 343 1121 343 1092 343 c 2,5,-1
 999 343 l 1,6,-1
 999 0 l 1,7,-1
 723 0 l 1,8,-1
 723 343 l 1,9,-1
 123 343 l 2,10,11
 93 343 93 343 69 361.5 c 128,-1,12
 45 380 45 380 39 408 c 2,13,-1
 6 564 l 1,14,-1
 696 1492 l 1,15,-1
 999 1492 l 1,16,-1
 999 580 l 1,0,-1
723 969 m 2,17,18
 723 1005 723 1005 725.5 1046 c 128,-1,19
 728 1087 728 1087 733 1132 c 1,20,-1
 339 580 l 1,21,-1
 723 580 l 1,22,-1
 723 969 l 2,17,18
EndSplineSet
Validated: 1
EndChar

StartChar: five
Encoding: 53 53 24
Width: 1187
GlyphClass: 1
Flags: W
LayerCount: 2
Fore
SplineSet
1022 1361 m 2,0,1
 1022 1328 1022 1328 1011.5 1301.5 c 128,-1,2
 1001 1275 1001 1275 979 1255 c 128,-1,3
 957 1235 957 1235 921.5 1224 c 128,-1,4
 886 1213 886 1213 836 1213 c 2,5,-1
 479 1213 l 1,6,-1
 437 967 l 1,7,8
 479 974 479 974 518 977.5 c 128,-1,9
 557 981 557 981 594 981 c 0,10,11
 712 981 712 981 802 945 c 128,-1,12
 892 909 892 909 953.5 847 c 128,-1,13
 1015 785 1015 785 1046 701.5 c 128,-1,14
 1077 618 1077 618 1077 523 c 0,15,16
 1077 403 1077 403 1034.5 304.5 c 128,-1,17
 992 206 992 206 916.5 134 c 128,-1,18
 841 62 841 62 736 23 c 128,-1,19
 631 -16 631 -16 506 -16 c 0,20,21
 433 -16 433 -16 367 -1 c 128,-1,22
 301 14 301 14 243 40.5 c 128,-1,23
 185 67 185 67 136 101 c 128,-1,24
 87 135 87 135 47 174 c 1,25,-1
 145 305 l 2,26,27
 160 325 160 325 181 336 c 128,-1,28
 202 347 202 347 225 347 c 0,29,30
 256 347 256 347 283 330 c 128,-1,31
 310 313 310 313 342.5 293 c 128,-1,32
 375 273 375 273 418 257 c 128,-1,33
 461 241 461 241 524 241 c 256,34,35
 587 241 587 241 632.5 262 c 128,-1,36
 678 283 678 283 706 319 c 128,-1,37
 734 355 734 355 747 404 c 128,-1,38
 760 453 760 453 760 508 c 0,39,40
 760 617 760 617 698.5 673.5 c 128,-1,41
 637 730 637 730 524 730 c 0,42,43
 424 730 424 730 328 692 c 1,44,-1
 131 745 l 1,45,-1
 258 1492 l 1,46,-1
 1022 1492 l 1,47,-1
 1022 1361 l 2,0,1
EndSplineSet
Validated: 1
EndChar

StartChar: six
Encoding: 54 54 25
Width: 1187
GlyphClass: 1
Flags: W
LayerCount: 2
Fore
SplineSet
705 945 m 0,0,1
 786 945 786 945 864.5 918.5 c 128,-1,2
 943 892 943 892 1005.5 836.5 c 128,-1,3
 1068 781 1068 781 1106.5 696.5 c 128,-1,4
 1145 612 1145 612 1145 498 c 0,5,6
 1145 394 1145 394 1106 300 c 128,-1,7
 1067 206 1067 206 996 136 c 128,-1,8
 925 66 925 66 824.5 25 c 128,-1,9
 724 -16 724 -16 602 -16 c 0,10,11
 477 -16 477 -16 378 23 c 128,-1,12
 279 62 279 62 209.5 133 c 128,-1,13
 140 204 140 204 104 302 c 128,-1,14
 68 400 68 400 68 518 c 0,15,16
 68 630 68 630 111 740.5 c 128,-1,17
 154 851 154 851 238 966 c 2,18,-1
 573 1419 l 2,19,20
 596 1450 596 1450 641 1471 c 128,-1,21
 686 1492 686 1492 743 1492 c 2,22,-1
 1026 1492 l 1,23,-1
 584 964 l 2,24,25
 574 953 574 953 564 941 c 128,-1,26
 554 929 554 929 545 918 c 1,27,28
 581 931 581 931 620.5 938 c 128,-1,29
 660 945 660 945 705 945 c 0,0,1
373 475 m 256,30,31
 373 420 373 420 386 376 c 128,-1,32
 399 332 399 332 427 300 c 128,-1,33
 455 268 455 268 497 251 c 128,-1,34
 539 234 539 234 596 234 c 0,35,36
 645 234 645 234 687.5 252.5 c 128,-1,37
 730 271 730 271 761 303.5 c 128,-1,38
 792 336 792 336 809.5 379.5 c 128,-1,39
 827 423 827 423 827 474 c 0,40,41
 827 531 827 531 810.5 576.5 c 128,-1,42
 794 622 794 622 763 652.5 c 128,-1,43
 732 683 732 683 688.5 699.5 c 128,-1,44
 645 716 645 716 592 716 c 0,45,46
 544 716 544 716 504 699 c 128,-1,47
 464 682 464 682 435 650 c 128,-1,48
 406 618 406 618 389.5 574 c 128,-1,49
 373 530 373 530 373 475 c 256,30,31
EndSplineSet
Validated: 1
EndChar

StartChar: seven
Encoding: 55 55 26
Width: 1187
GlyphClass: 1
Flags: W
LayerCount: 2
Fore
SplineSet
1133 1492 m 1,0,-1
 1133 1359 l 2,1,2
 1133 1303 1133 1303 1120.5 1268 c 128,-1,3
 1108 1233 1108 1233 1097 1208 c 2,4,-1
 575 104 l 2,5,6
 555 60 555 60 515 30 c 128,-1,7
 475 0 475 0 410 0 c 2,8,-1
 178 0 l 1,9,-1
 711 1068 l 2,10,11
 733 1112 733 1112 757.5 1147 c 128,-1,12
 782 1182 782 1182 812 1213 c 1,13,-1
 156 1213 l 2,14,15
 142 1213 142 1213 129 1219 c 128,-1,16
 116 1225 116 1225 106 1234.5 c 128,-1,17
 96 1244 96 1244 90 1257 c 128,-1,18
 84 1270 84 1270 84 1283 c 2,19,-1
 84 1492 l 1,20,-1
 1133 1492 l 1,0,-1
EndSplineSet
Validated: 1
EndChar

StartChar: eight
Encoding: 56 56 27
Width: 1187
GlyphClass: 1
Flags: W
LayerCount: 2
Fore
SplineSet
594 -16 m 256,0,1
 475 -16 475 -16 377 15.5 c 128,-1,2
 279 47 279 47 208.5 105 c 128,-1,3
 138 163 138 163 99.5 245 c 128,-1,4
 61 327 61 327 61 427 c 0,5,6
 61 487 61 487 75 541 c 128,-1,7
 89 595 89 595 119.5 639.5 c 128,-1,8
 150 684 150 684 197.5 719 c 128,-1,9
 245 754 245 754 312 777 c 1,10,11
 210 823 210 823 160.5 905 c 128,-1,12
 111 987 111 987 111 1102 c 0,13,14
 111 1189 111 1189 146.5 1263 c 128,-1,15
 182 1337 182 1337 246.5 1391.5 c 128,-1,16
 311 1446 311 1446 399.5 1477 c 128,-1,17
 488 1508 488 1508 594 1508 c 256,18,19
 699 1508 699 1508 788 1477 c 128,-1,20
 877 1446 877 1446 941.5 1391.5 c 128,-1,21
 1006 1337 1006 1337 1041.5 1263 c 128,-1,22
 1077 1189 1077 1189 1077 1102 c 0,23,24
 1077 987 1077 987 1027 905 c 128,-1,25
 977 823 977 823 876 777 c 1,26,27
 943 753 943 753 990 718.5 c 128,-1,28
 1037 684 1037 684 1067.5 639.5 c 128,-1,29
 1098 595 1098 595 1112 541 c 128,-1,30
 1126 487 1126 487 1126 427 c 0,31,32
 1126 327 1126 327 1088 245 c 128,-1,33
 1050 163 1050 163 979.5 105 c 128,-1,34
 909 47 909 47 811 15.5 c 128,-1,35
 713 -16 713 -16 594 -16 c 256,0,1
594 223 m 0,36,37
 647 223 647 223 686 239.5 c 128,-1,38
 725 256 725 256 750 284 c 128,-1,39
 775 312 775 312 787 350.5 c 128,-1,40
 799 389 799 389 799 433 c 0,41,42
 799 481 799 481 788.5 521 c 128,-1,43
 778 561 778 561 754.5 589 c 128,-1,44
 731 617 731 617 691.5 633 c 128,-1,45
 652 649 652 649 594 649 c 256,46,47
 536 649 536 649 496.5 633 c 128,-1,48
 457 617 457 617 433.5 589 c 128,-1,49
 410 561 410 561 399.5 521 c 128,-1,50
 389 481 389 481 389 433 c 0,51,52
 389 389 389 389 401 350.5 c 128,-1,53
 413 312 413 312 438 284 c 128,-1,54
 463 256 463 256 501.5 239.5 c 128,-1,55
 540 223 540 223 594 223 c 0,36,37
594 891 m 256,56,57
 647 891 647 891 681 908.5 c 128,-1,58
 715 926 715 926 734.5 954.5 c 128,-1,59
 754 983 754 983 761 1020 c 128,-1,60
 768 1057 768 1057 768 1096 c 0,61,62
 768 1131 768 1131 759 1163.5 c 128,-1,63
 750 1196 750 1196 729 1221 c 128,-1,64
 708 1246 708 1246 674.5 1261.5 c 128,-1,65
 641 1277 641 1277 594 1277 c 0,66,67
 546 1277 546 1277 513 1261.5 c 128,-1,68
 480 1246 480 1246 459 1221 c 128,-1,69
 438 1196 438 1196 429 1163 c 128,-1,70
 420 1130 420 1130 420 1096 c 0,71,72
 420 1057 420 1057 427 1020 c 128,-1,73
 434 983 434 983 453.5 954.5 c 128,-1,74
 473 926 473 926 507 908.5 c 128,-1,75
 541 891 541 891 594 891 c 256,56,57
EndSplineSet
Validated: 1
EndChar

StartChar: nine
Encoding: 57 57 28
Width: 1187
GlyphClass: 1
Flags: W
LayerCount: 2
Fore
SplineSet
524 582 m 0,0,1
 451 582 451 582 378.5 608 c 128,-1,2
 306 634 306 634 247 687 c 128,-1,3
 188 740 188 740 151.5 821 c 128,-1,4
 115 902 115 902 115 1013 c 0,5,6
 115 1114 115 1114 152 1204 c 128,-1,7
 189 1294 189 1294 258.5 1362 c 128,-1,8
 328 1430 328 1430 424 1469 c 128,-1,9
 520 1508 520 1508 639 1508 c 0,10,11
 760 1508 760 1508 855 1471.5 c 128,-1,12
 950 1435 950 1435 1016 1368.5 c 128,-1,13
 1082 1302 1082 1302 1117.5 1210 c 128,-1,14
 1153 1118 1153 1118 1153 1008 c 0,15,16
 1153 934 1153 934 1141 869.5 c 128,-1,17
 1129 805 1129 805 1108 746 c 128,-1,18
 1087 687 1087 687 1057.5 633.5 c 128,-1,19
 1028 580 1028 580 991 527 c 2,20,-1
 670 71 l 2,21,22
 650 41 650 41 605.5 20.5 c 128,-1,23
 561 0 561 0 506 0 c 2,24,-1
 213 0 l 1,25,-1
 686 565 l 2,26,27
 700 582 700 582 713 598 c 128,-1,28
 726 614 726 614 738 631 c 1,29,30
 692 606 692 606 637.5 594 c 128,-1,31
 583 582 583 582 524 582 c 0,0,1
850 1036 m 0,32,33
 850 1090 850 1090 834 1132 c 128,-1,34
 818 1174 818 1174 790 1201.5 c 128,-1,35
 762 1229 762 1229 722 1243 c 128,-1,36
 682 1257 682 1257 635 1257 c 0,37,38
 587 1257 587 1257 549.5 1240.5 c 128,-1,39
 512 1224 512 1224 486 1194 c 128,-1,40
 460 1164 460 1164 446 1123.5 c 128,-1,41
 432 1083 432 1083 432 1036 c 0,42,43
 432 813 432 813 639 813 c 0,44,45
 740 813 740 813 795 874 c 128,-1,46
 850 935 850 935 850 1036 c 0,32,33
EndSplineSet
Validated: 1
EndChar

StartChar: colon
Encoding: 58 58 29
Width: 565
GlyphClass: 1
Flags: W
LayerCount: 2
Fore
SplineSet
102 161 m 256,0,1
 102 198 102 198 116 229.5 c 128,-1,2
 130 261 130 261 154 284.5 c 128,-1,3
 178 308 178 308 211 322 c 128,-1,4
 244 336 244 336 283 336 c 0,5,6
 321 336 321 336 353.5 322 c 128,-1,7
 386 308 386 308 410.5 284.5 c 128,-1,8
 435 261 435 261 449 229.5 c 128,-1,9
 463 198 463 198 463 161 c 256,10,11
 463 124 463 124 449 91.5 c 128,-1,12
 435 59 435 59 410.5 35.5 c 128,-1,13
 386 12 386 12 353.5 -1 c 128,-1,14
 321 -14 321 -14 283 -14 c 0,15,16
 244 -14 244 -14 211 -1 c 128,-1,17
 178 12 178 12 154 35.5 c 128,-1,18
 130 59 130 59 116 91.5 c 128,-1,19
 102 124 102 124 102 161 c 256,0,1
102 860 m 256,20,21
 102 897 102 897 116 929 c 128,-1,22
 130 961 130 961 154 984.5 c 128,-1,23
 178 1008 178 1008 211 1021.5 c 128,-1,24
 244 1035 244 1035 283 1035 c 0,25,26
 321 1035 321 1035 353.5 1021.5 c 128,-1,27
 386 1008 386 1008 410.5 984.5 c 128,-1,28
 435 961 435 961 449 929 c 128,-1,29
 463 897 463 897 463 860 c 256,30,31
 463 823 463 823 449 791 c 128,-1,32
 435 759 435 759 410.5 735.5 c 128,-1,33
 386 712 386 712 353.5 698.5 c 128,-1,34
 321 685 321 685 283 685 c 0,35,36
 244 685 244 685 211 698.5 c 128,-1,37
 178 712 178 712 154 735.5 c 128,-1,38
 130 759 130 759 116 791 c 128,-1,39
 102 823 102 823 102 860 c 256,20,21
EndSplineSet
Validated: 1
EndChar

StartChar: semicolon
Encoding: 59 59 30
Width: 565
GlyphClass: 1
Flags: W
LayerCount: 2
Fore
SplineSet
111 180 m 0,0,1
 111 213 111 213 123 241 c 128,-1,2
 135 269 135 269 158 290 c 128,-1,3
 181 311 181 311 212.5 323.5 c 128,-1,4
 244 336 244 336 283 336 c 0,5,6
 329 336 329 336 362.5 320 c 128,-1,7
 396 304 396 304 418.5 277 c 128,-1,8
 441 250 441 250 452 214.5 c 128,-1,9
 463 179 463 179 463 140 c 0,10,11
 463 89 463 89 446.5 31 c 128,-1,12
 430 -27 430 -27 398 -85 c 128,-1,13
 366 -143 366 -143 317.5 -199.5 c 128,-1,14
 269 -256 269 -256 207 -302 c 1,15,-1
 152 -253 l 2,16,17
 141 -242 141 -242 135 -232 c 128,-1,18
 129 -222 129 -222 129 -208 c 0,19,20
 129 -198 129 -198 136 -186 c 128,-1,21
 143 -174 143 -174 154 -165 c 0,22,23
 166 -153 166 -153 182.5 -135.5 c 128,-1,24
 199 -118 199 -118 215 -96.5 c 128,-1,25
 231 -75 231 -75 245 -49.5 c 128,-1,26
 259 -24 259 -24 266 5 c 1,27,28
 230 8 230 8 201.5 22.5 c 128,-1,29
 173 37 173 37 153 60.5 c 128,-1,30
 133 84 133 84 122 114 c 128,-1,31
 111 144 111 144 111 180 c 0,0,1
102 860 m 256,32,33
 102 897 102 897 116 929 c 128,-1,34
 130 961 130 961 154 984.5 c 128,-1,35
 178 1008 178 1008 211 1021.5 c 128,-1,36
 244 1035 244 1035 283 1035 c 0,37,38
 321 1035 321 1035 353.5 1021.5 c 128,-1,39
 386 1008 386 1008 410.5 984.5 c 128,-1,40
 435 961 435 961 449 929 c 128,-1,41
 463 897 463 897 463 860 c 256,42,43
 463 823 463 823 449 791 c 128,-1,44
 435 759 435 759 410.5 735.5 c 128,-1,45
 386 712 386 712 353.5 698.5 c 128,-1,46
 321 685 321 685 283 685 c 0,47,48
 244 685 244 685 211 698.5 c 128,-1,49
 178 712 178 712 154 735.5 c 128,-1,50
 130 759 130 759 116 791 c 128,-1,51
 102 823 102 823 102 860 c 256,32,33
EndSplineSet
Validated: 1
EndChar

StartChar: less
Encoding: 60 60 31
Width: 1187
GlyphClass: 1
Flags: W
LayerCount: 2
Fore
SplineSet
133 753 m 1,0,-1
 963 1187 l 1,1,-1
 963 967 l 2,2,3
 963 943 963 943 950.5 923 c 128,-1,4
 938 903 938 903 911 889 c 2,5,-1
 621 732 l 2,6,7
 594 718 594 718 564.5 708 c 128,-1,8
 535 698 535 698 502 690 c 1,9,10
 535 682 535 682 564.5 673.5 c 128,-1,11
 594 665 594 665 621 650 c 2,12,-1
 911 493 l 2,13,14
 938 479 938 479 950.5 459 c 128,-1,15
 963 439 963 439 963 416 c 2,16,-1
 963 196 l 1,17,-1
 133 629 l 1,18,-1
 133 753 l 1,0,-1
EndSplineSet
Validated: 1
EndChar

StartChar: equal
Encoding: 61 61 32
Width: 1187
GlyphClass: 1
Flags: W
LayerCount: 2
Fore
SplineSet
127 613 m 1,0,-1
 1059 613 l 1,1,-1
 1059 386 l 1,2,-1
 127 386 l 1,3,-1
 127 613 l 1,0,-1
127 989 m 1,4,-1
 1059 989 l 1,5,-1
 1059 761 l 1,6,-1
 127 761 l 1,7,-1
 127 989 l 1,4,-1
EndSplineSet
Validated: 1
EndChar

StartChar: greater
Encoding: 62 62 33
Width: 1187
GlyphClass: 1
Flags: W
LayerCount: 2
Fore
SplineSet
1055 629 m 1,0,-1
 225 196 l 1,1,-1
 225 416 l 2,2,3
 225 440 225 440 237.5 459 c 128,-1,4
 250 478 250 478 276 493 c 2,5,-1
 567 650 l 2,6,7
 593 664 593 664 623 673 c 128,-1,8
 653 682 653 682 686 690 c 1,9,10
 653 698 653 698 623 708 c 128,-1,11
 593 718 593 718 567 732 c 2,12,-1
 276 889 l 2,13,14
 249 903 249 903 237 923 c 128,-1,15
 225 943 225 943 225 967 c 2,16,-1
 225 1187 l 1,17,-1
 1055 753 l 1,18,-1
 1055 629 l 1,0,-1
EndSplineSet
Validated: 1
EndChar

StartChar: question
Encoding: 63 63 34
Width: 903
GlyphClass: 1
Flags: W
LayerCount: 2
Fore
SplineSet
39 1356 m 1,0,1
 77 1388 77 1388 121.5 1415.5 c 128,-1,2
 166 1443 166 1443 217 1464 c 128,-1,3
 268 1485 268 1485 327 1496.5 c 128,-1,4
 386 1508 386 1508 455 1508 c 0,5,6
 551 1508 551 1508 628.5 1482.5 c 128,-1,7
 706 1457 706 1457 760 1409.5 c 128,-1,8
 814 1362 814 1362 843 1295 c 128,-1,9
 872 1228 872 1228 872 1146 c 0,10,11
 872 1067 872 1067 850.5 1010.5 c 128,-1,12
 829 954 829 954 796 912 c 128,-1,13
 763 870 763 870 723.5 840 c 128,-1,14
 684 810 684 810 648.5 783.5 c 128,-1,15
 613 757 613 757 587 731.5 c 128,-1,16
 561 706 561 706 555 674 c 2,17,-1
 526 530 l 1,18,-1
 309 530 l 1,19,-1
 287 695 l 2,20,21
 286 701 286 701 285.5 707.5 c 128,-1,22
 285 714 285 714 285 720 c 0,23,24
 285 765 285 765 306.5 799 c 128,-1,25
 328 833 328 833 360.5 861 c 128,-1,26
 393 889 393 889 431 915 c 128,-1,27
 469 941 469 941 502 971 c 128,-1,28
 535 1001 535 1001 556.5 1038.5 c 128,-1,29
 578 1076 578 1076 578 1127 c 0,30,31
 578 1188 578 1188 537.5 1225 c 128,-1,32
 497 1262 497 1262 426 1262 c 0,33,34
 372 1262 372 1262 335.5 1250.5 c 128,-1,35
 299 1239 299 1239 273 1225 c 128,-1,36
 247 1211 247 1211 227.5 1200 c 128,-1,37
 208 1189 208 1189 188 1189 c 0,38,39
 144 1189 144 1189 123 1227 c 2,40,-1
 39 1356 l 1,0,1
227 161 m 256,41,42
 227 198 227 198 241 229.5 c 128,-1,43
 255 261 255 261 279 284.5 c 128,-1,44
 303 308 303 308 336 322 c 128,-1,45
 369 336 369 336 408 336 c 0,46,47
 446 336 446 336 478.5 322 c 128,-1,48
 511 308 511 308 535.5 284.5 c 128,-1,49
 560 261 560 261 574 229.5 c 128,-1,50
 588 198 588 198 588 161 c 256,51,52
 588 124 588 124 574 91.5 c 128,-1,53
 560 59 560 59 535.5 35.5 c 128,-1,54
 511 12 511 12 478 -1 c 128,-1,55
 445 -14 445 -14 408 -14 c 0,56,57
 369 -14 369 -14 336 -1 c 128,-1,58
 303 12 303 12 279 35.5 c 128,-1,59
 255 59 255 59 241 91.5 c 128,-1,60
 227 124 227 124 227 161 c 256,41,42
EndSplineSet
Validated: 1
EndChar

StartChar: at
Encoding: 64 64 35
Width: 1685
GlyphClass: 1
Flags: W
LayerCount: 2
Fore
SplineSet
1194 186 m 0,0,1
 1161 186 1161 186 1130.5 193 c 128,-1,2
 1100 200 1100 200 1073 214.5 c 128,-1,3
 1046 229 1046 229 1023.5 253.5 c 128,-1,4
 1001 278 1001 278 988 312 c 1,5,6
 927 244 927 244 860.5 215.5 c 128,-1,7
 794 187 794 187 717 187 c 0,8,9
 650 187 650 187 600 210 c 128,-1,10
 550 233 550 233 516 274 c 128,-1,11
 482 315 482 315 465.5 371.5 c 128,-1,12
 449 428 449 428 449 495 c 0,13,14
 449 553 449 553 463.5 613.5 c 128,-1,15
 478 674 478 674 508 729.5 c 128,-1,16
 538 785 538 785 583.5 835 c 128,-1,17
 629 885 629 885 690.5 921 c 128,-1,18
 752 957 752 957 830 978.5 c 128,-1,19
 908 1000 908 1000 1004 1000 c 0,20,21
 1049 1000 1049 1000 1085.5 996.5 c 128,-1,22
 1122 993 1122 993 1154 987 c 128,-1,23
 1186 981 1186 981 1214 971.5 c 128,-1,24
 1242 962 1242 962 1272 949 c 1,25,-1
 1171 561 l 2,26,27
 1156 501 1156 501 1156 465 c 0,28,29
 1156 414 1156 414 1179 394.5 c 128,-1,30
 1202 375 1202 375 1241 375 c 0,31,32
 1278 375 1278 375 1310 401 c 128,-1,33
 1342 427 1342 427 1366 473 c 128,-1,34
 1390 519 1390 519 1403.5 581.5 c 128,-1,35
 1417 644 1417 644 1417 718 c 0,36,37
 1417 845 1417 845 1379 941.5 c 128,-1,38
 1341 1038 1341 1038 1271 1103.5 c 128,-1,39
 1201 1169 1201 1169 1102.5 1203 c 128,-1,40
 1004 1237 1004 1237 883 1237 c 0,41,42
 751 1237 751 1237 640 1188 c 128,-1,43
 529 1139 529 1139 449.5 1053.5 c 128,-1,44
 370 968 370 968 325.5 853.5 c 128,-1,45
 281 739 281 739 281 609 c 0,46,47
 281 445 281 445 330.5 321.5 c 128,-1,48
 380 198 380 198 467.5 115 c 128,-1,49
 555 32 555 32 675.5 -9.5 c 128,-1,50
 796 -51 796 -51 936 -51 c 0,51,52
 1017 -51 1017 -51 1085 -42.5 c 128,-1,53
 1153 -34 1153 -34 1208.5 -20 c 128,-1,54
 1264 -6 1264 -6 1307 11.5 c 128,-1,55
 1350 29 1350 29 1380 46 c 0,56,57
 1403 58 1403 58 1422 58 c 0,58,59
 1458 58 1458 58 1473 20 c 2,60,-1
 1516 -90 l 1,61,62
 1465 -124 1465 -124 1402.5 -152.5 c 128,-1,63
 1340 -181 1340 -181 1268 -202.5 c 128,-1,64
 1196 -224 1196 -224 1113 -236 c 128,-1,65
 1030 -248 1030 -248 936 -248 c 0,66,67
 743 -248 743 -248 581.5 -188 c 128,-1,68
 420 -128 420 -128 301.5 -16.5 c 128,-1,69
 183 95 183 95 117 254 c 128,-1,70
 51 413 51 413 51 609 c 0,71,72
 51 717 51 717 80 820.5 c 128,-1,73
 109 924 109 924 162 1015 c 128,-1,74
 215 1106 215 1106 290 1183 c 128,-1,75
 365 1260 365 1260 457 1315.5 c 128,-1,76
 549 1371 549 1371 656.5 1402 c 128,-1,77
 764 1433 764 1433 883 1433 c 0,78,79
 982 1433 982 1433 1076.5 1410.5 c 128,-1,80
 1171 1388 1171 1388 1255.5 1345 c 128,-1,81
 1340 1302 1340 1302 1411.5 1239.5 c 128,-1,82
 1483 1177 1483 1177 1534 1097.5 c 128,-1,83
 1585 1018 1585 1018 1613.5 922 c 128,-1,84
 1642 826 1642 826 1642 718 c 0,85,86
 1642 608 1642 608 1609 511.5 c 128,-1,87
 1576 415 1576 415 1516 342.5 c 128,-1,88
 1456 270 1456 270 1373.5 228 c 128,-1,89
 1291 186 1291 186 1194 186 c 0,0,1
780 383 m 0,90,91
 803 383 803 383 825 390 c 128,-1,92
 847 397 847 397 866.5 414 c 128,-1,93
 886 431 886 431 902 458.5 c 128,-1,94
 918 486 918 486 928 527 c 2,95,-1
 999 807 l 1,96,97
 974 810 974 810 950 810 c 0,98,99
 899 810 899 810 852 785.5 c 128,-1,100
 805 761 805 761 769.5 719 c 128,-1,101
 734 677 734 677 713 621 c 128,-1,102
 692 565 692 565 692 503 c 0,103,104
 692 443 692 443 715 413 c 128,-1,105
 738 383 738 383 780 383 c 0,90,91
EndSplineSet
Validated: 1
EndChar

StartChar: A
Encoding: 65 65 36
Width: 1509
GlyphClass: 1
Flags: W
LayerCount: 2
Fore
SplineSet
1511 0 m 1,0,-1
 1243 0 l 2,1,2
 1198 0 1198 0 1169 21 c 128,-1,3
 1140 42 1140 42 1128 75 c 2,4,-1
 1040 335 l 1,5,-1
 473 335 l 1,6,-1
 385 75 l 2,7,8
 375 46 375 46 345 23 c 128,-1,9
 315 0 315 0 272 0 c 2,10,-1
 2 0 l 1,11,-1
 580 1492 l 1,12,-1
 934 1492 l 1,13,-1
 1511 0 l 1,0,-1
553 570 m 1,14,-1
 961 570 l 1,15,-1
 823 979 l 2,16,17
 810 1018 810 1018 792 1070.5 c 128,-1,18
 774 1123 774 1123 757 1185 c 1,19,20
 741 1123 741 1123 723.5 1069.5 c 128,-1,21
 706 1016 706 1016 690 977 c 2,22,-1
 553 570 l 1,14,-1
EndSplineSet
Validated: 1
EndChar

StartChar: B
Encoding: 66 66 37
Width: 1343
GlyphClass: 1
Flags: W
LayerCount: 2
Fore
SplineSet
123 0 m 1,0,-1
 123 1492 l 1,1,-1
 672 1492 l 2,2,3
 827 1492 827 1492 935 1463.5 c 128,-1,4
 1043 1435 1043 1435 1112 1382.5 c 128,-1,5
 1181 1330 1181 1330 1212 1255.5 c 128,-1,6
 1243 1181 1243 1181 1243 1089 c 0,7,8
 1243 1039 1243 1039 1228.5 992 c 128,-1,9
 1214 945 1214 945 1183.5 904 c 128,-1,10
 1153 863 1153 863 1105 830 c 128,-1,11
 1057 797 1057 797 989 772 c 1,12,13
 1136 736 1136 736 1207 655.5 c 128,-1,14
 1278 575 1278 575 1278 450 c 0,15,16
 1278 355 1278 355 1241 272.5 c 128,-1,17
 1204 190 1204 190 1133 129.5 c 128,-1,18
 1062 69 1062 69 957.5 34.5 c 128,-1,19
 853 0 853 0 719 0 c 2,20,-1
 123 0 l 1,0,-1
469 633 m 1,21,-1
 469 261 l 1,22,-1
 713 261 l 2,23,24
 782 261 782 261 825 278.5 c 128,-1,25
 868 296 868 296 893 323.5 c 128,-1,26
 918 351 918 351 927 386 c 128,-1,27
 936 421 936 421 936 457 c 0,28,29
 936 498 936 498 925 530.5 c 128,-1,30
 914 563 914 563 888 585.5 c 128,-1,31
 862 608 862 608 819 620.5 c 128,-1,32
 776 633 776 633 711 633 c 2,33,-1
 469 633 l 1,21,-1
469 864 m 1,34,-1
 649 864 l 2,35,36
 706 864 706 864 752.5 872.5 c 128,-1,37
 799 881 799 881 831 901.5 c 128,-1,38
 863 922 863 922 880 957.5 c 128,-1,39
 897 993 897 993 897 1048 c 0,40,41
 897 1101 897 1101 883.5 1136 c 128,-1,42
 870 1171 870 1171 842.5 1192.5 c 128,-1,43
 815 1214 815 1214 772.5 1223.5 c 128,-1,44
 730 1233 730 1233 672 1233 c 2,45,-1
 469 1233 l 1,46,-1
 469 864 l 1,34,-1
EndSplineSet
Validated: 1
EndChar

StartChar: C
Encoding: 67 67 38
Width: 1345
GlyphClass: 1
Flags: W
LayerCount: 2
Fore
SplineSet
1125 386 m 0,0,1
 1137 386 1137 386 1149.5 381.5 c 128,-1,2
 1162 377 1162 377 1174 366 c 2,3,-1
 1311 221 l 1,4,5
 1221 103 1221 103 1085 43.5 c 128,-1,6
 949 -16 949 -16 764 -16 c 0,7,8
 594 -16 594 -16 459.5 41.5 c 128,-1,9
 325 99 325 99 231 201 c 128,-1,10
 137 303 137 303 87 443 c 128,-1,11
 37 583 37 583 37 746 c 0,12,13
 37 913 37 913 94.5 1053 c 128,-1,14
 152 1193 152 1193 254.5 1294.5 c 128,-1,15
 357 1396 357 1396 500.5 1452 c 128,-1,16
 644 1508 644 1508 817 1508 c 0,17,18
 901 1508 901 1508 975.5 1493.5 c 128,-1,19
 1050 1479 1050 1479 1114.5 1452.5 c 128,-1,20
 1179 1426 1179 1426 1233 1390 c 128,-1,21
 1287 1354 1287 1354 1329 1310 c 1,22,-1
 1212 1153 l 2,23,24
 1201 1139 1201 1139 1185.5 1127 c 128,-1,25
 1170 1115 1170 1115 1143 1115 c 0,26,27
 1125 1115 1125 1115 1108.5 1123.5 c 128,-1,28
 1092 1132 1092 1132 1073.5 1143.5 c 128,-1,29
 1055 1155 1055 1155 1033 1169 c 128,-1,30
 1011 1183 1011 1183 980.5 1194.5 c 128,-1,31
 950 1206 950 1206 909.5 1214.5 c 128,-1,32
 869 1223 869 1223 815 1223 c 0,33,34
 721 1223 721 1223 643 1189.5 c 128,-1,35
 565 1156 565 1156 509.5 1094 c 128,-1,36
 454 1032 454 1032 422.5 944 c 128,-1,37
 391 856 391 856 391 746 c 0,38,39
 391 631 391 631 422.5 542.5 c 128,-1,40
 454 454 454 454 507.5 393 c 128,-1,41
 561 332 561 332 633 300 c 128,-1,42
 705 268 705 268 786 268 c 0,43,44
 833 268 833 268 872 273 c 128,-1,45
 911 278 911 278 944.5 289 c 128,-1,46
 978 300 978 300 1008 318 c 128,-1,47
 1038 336 1038 336 1069 362 c 0,48,49
 1081 372 1081 372 1095.5 379 c 128,-1,50
 1110 386 1110 386 1125 386 c 0,0,1
EndSplineSet
Validated: 1
EndChar

StartChar: D
Encoding: 68 68 39
Width: 1519
GlyphClass: 1
Flags: W
LayerCount: 2
Fore
SplineSet
1477 746 m 0,0,1
 1477 584 1477 584 1421 447.5 c 128,-1,2
 1365 311 1365 311 1263.5 211.5 c 128,-1,3
 1162 112 1162 112 1019.5 56 c 128,-1,4
 877 0 877 0 702 0 c 2,5,-1
 123 0 l 1,6,-1
 123 1492 l 1,7,-1
 702 1492 l 2,8,9
 876 1492 876 1492 1019 1435.5 c 128,-1,10
 1162 1379 1162 1379 1263.5 1280 c 128,-1,11
 1365 1181 1365 1181 1421 1044 c 128,-1,12
 1477 907 1477 907 1477 746 c 0,0,1
1122 746 m 0,13,14
 1122 857 1122 857 1093.5 946 c 128,-1,15
 1065 1035 1065 1035 1011 1097 c 128,-1,16
 957 1159 957 1159 879.5 1192.5 c 128,-1,17
 802 1226 802 1226 702 1226 c 2,18,-1
 471 1226 l 1,19,-1
 471 266 l 1,20,-1
 702 266 l 2,21,22
 801 266 801 266 879 299.5 c 128,-1,23
 957 333 957 333 1011 395 c 128,-1,24
 1065 457 1065 457 1093.5 545.5 c 128,-1,25
 1122 634 1122 634 1122 746 c 0,13,14
EndSplineSet
Validated: 1
EndChar

StartChar: E
Encoding: 69 69 40
Width: 1157
GlyphClass: 1
Flags: W
LayerCount: 2
Fore
SplineSet
1083 1492 m 1,0,-1
 1083 1226 l 1,1,-1
 471 1226 l 1,2,-1
 471 878 l 1,3,-1
 940 878 l 1,4,-1
 940 622 l 1,5,-1
 471 622 l 1,6,-1
 471 266 l 1,7,-1
 1083 266 l 1,8,-1
 1083 0 l 1,9,-1
 123 0 l 1,10,-1
 123 1492 l 1,11,-1
 1083 1492 l 1,0,-1
EndSplineSet
Validated: 1
EndChar

StartChar: F
Encoding: 70 70 41
Width: 1140
GlyphClass: 1
Flags: W
LayerCount: 2
Fore
SplineSet
1083 1492 m 1,0,-1
 1083 1226 l 1,1,-1
 471 1226 l 1,2,-1
 471 848 l 1,3,-1
 981 848 l 1,4,-1
 981 581 l 1,5,-1
 471 581 l 1,6,-1
 471 0 l 1,7,-1
 123 0 l 1,8,-1
 123 1492 l 1,9,-1
 1083 1492 l 1,0,-1
EndSplineSet
Validated: 1
EndChar

StartChar: G
Encoding: 71 71 42
Width: 1458
GlyphClass: 1
Flags: W
LayerCount: 2
Fore
SplineSet
825 250 m 0,0,1
 897 250 897 250 952.5 262 c 128,-1,2
 1008 274 1008 274 1057 295 c 1,3,-1
 1057 521 l 1,4,-1
 909 521 l 2,5,6
 876 521 876 521 858 538.5 c 128,-1,7
 840 556 840 556 840 583 c 2,8,-1
 840 773 l 1,9,-1
 1370 773 l 1,10,-1
 1370 143 l 1,11,12
 1313 101 1313 101 1251 71 c 128,-1,13
 1189 41 1189 41 1119 21.5 c 128,-1,14
 1049 2 1049 2 969.5 -7 c 128,-1,15
 890 -16 890 -16 799 -16 c 0,16,17
 635 -16 635 -16 495.5 41.5 c 128,-1,18
 356 99 356 99 254.5 201 c 128,-1,19
 153 303 153 303 95 443 c 128,-1,20
 37 583 37 583 37 746 c 0,21,22
 37 913 37 913 92 1053 c 128,-1,23
 147 1193 147 1193 250 1294.5 c 128,-1,24
 353 1396 353 1396 499 1452 c 128,-1,25
 645 1508 645 1508 825 1508 c 0,26,27
 918 1508 918 1508 1000 1493 c 128,-1,28
 1082 1478 1082 1478 1151.5 1451 c 128,-1,29
 1221 1424 1221 1424 1278 1387.5 c 128,-1,30
 1335 1351 1335 1351 1380 1308 c 1,31,-1
 1280 1155 l 2,32,33
 1266 1133 1266 1133 1246 1121 c 128,-1,34
 1226 1109 1226 1109 1202 1109 c 0,35,36
 1171 1109 1171 1109 1139 1129 c 0,37,38
 1098 1154 1098 1154 1061.5 1172 c 128,-1,39
 1025 1190 1025 1190 987 1201 c 128,-1,40
 949 1212 949 1212 907 1217.5 c 128,-1,41
 865 1223 865 1223 813 1223 c 0,42,43
 716 1223 716 1223 638 1188.5 c 128,-1,44
 560 1154 560 1154 505.5 1091.5 c 128,-1,45
 451 1029 451 1029 421 941.5 c 128,-1,46
 391 854 391 854 391 746 c 0,47,48
 391 627 391 627 424 535 c 128,-1,49
 457 443 457 443 514.5 379.5 c 128,-1,50
 572 316 572 316 651.5 283 c 128,-1,51
 731 250 731 250 825 250 c 0,0,1
EndSplineSet
Validated: 1
EndChar

StartChar: H
Encoding: 72 72 43
Width: 1548
GlyphClass: 1
Flags: W
LayerCount: 2
Fore
SplineSet
1425 0 m 1,0,-1
 1077 0 l 1,1,-1
 1077 631 l 1,2,-1
 471 631 l 1,3,-1
 471 0 l 1,4,-1
 123 0 l 1,5,-1
 123 1492 l 1,6,-1
 471 1492 l 1,7,-1
 471 868 l 1,8,-1
 1077 868 l 1,9,-1
 1077 1492 l 1,10,-1
 1425 1492 l 1,11,-1
 1425 0 l 1,0,-1
EndSplineSet
Validated: 1
EndChar

StartChar: I
Encoding: 73 73 44
Width: 655
GlyphClass: 1
Flags: W
LayerCount: 2
Fore
SplineSet
502 0 m 1,0,-1
 154 0 l 1,1,-1
 154 1492 l 1,2,-1
 502 1492 l 1,3,-1
 502 0 l 1,0,-1
EndSplineSet
Validated: 1
EndChar

StartChar: J
Encoding: 74 74 45
Width: 880
GlyphClass: 1
Flags: W
LayerCount: 2
Fore
SplineSet
758 541 m 2,0,1
 758 416 758 416 726.5 313.5 c 128,-1,2
 695 211 695 211 632 138 c 128,-1,3
 569 65 569 65 474 24.5 c 128,-1,4
 379 -16 379 -16 250 -16 c 0,5,6
 192 -16 192 -16 135 -10 c 128,-1,7
 78 -4 78 -4 16 10 c 1,8,-1
 35 212 l 2,9,10
 37 239 37 239 56 255 c 128,-1,11
 75 271 75 271 109 271 c 0,12,13
 126 271 126 271 151.5 265.5 c 128,-1,14
 177 260 177 260 213 260 c 0,15,16
 263 260 263 260 300.5 274 c 128,-1,17
 338 288 338 288 362.5 320 c 128,-1,18
 387 352 387 352 399.5 404.5 c 128,-1,19
 412 457 412 457 412 534 c 2,20,-1
 412 1492 l 1,21,-1
 758 1492 l 1,22,-1
 758 541 l 2,0,1
EndSplineSet
Validated: 1
EndChar

StartChar: K
Encoding: 75 75 46
Width: 1462
GlyphClass: 1
Flags: W
LayerCount: 2
Fore
SplineSet
469 888 m 1,0,-1
 524 888 l 2,1,2
 601 888 601 888 635 936 c 2,3,-1
 971 1423 l 2,4,5
 999 1463 999 1463 1034 1477.5 c 128,-1,6
 1069 1492 1069 1492 1120 1492 c 2,7,-1
 1421 1492 l 1,8,-1
 979 889 l 2,9,10
 955 856 955 856 929.5 834.5 c 128,-1,11
 904 813 904 813 878 799 c 1,12,13
 917 785 917 785 949 759.5 c 128,-1,14
 981 734 981 734 1008 692 c 2,15,-1
 1458 0 l 1,16,-1
 1149 0 l 2,17,18
 1119 0 1119 0 1098 4 c 128,-1,19
 1077 8 1077 8 1062 16.5 c 128,-1,20
 1047 25 1047 25 1035.5 36.5 c 128,-1,21
 1024 48 1024 48 1014 63 c 2,22,-1
 676 583 l 2,23,24
 658 612 658 612 629.5 623.5 c 128,-1,25
 601 635 601 635 553 635 c 2,26,-1
 469 635 l 1,27,-1
 469 0 l 1,28,-1
 123 0 l 1,29,-1
 123 1492 l 1,30,-1
 469 1492 l 1,31,-1
 469 888 l 1,0,-1
EndSplineSet
Validated: 1
EndChar

StartChar: L
Encoding: 76 76 47
Width: 1062
GlyphClass: 1
Flags: W
LayerCount: 2
Fore
SplineSet
469 276 m 1,0,-1
 1022 276 l 1,1,-1
 1022 0 l 1,2,-1
 123 0 l 1,3,-1
 123 1492 l 1,4,-1
 469 1492 l 1,5,-1
 469 276 l 1,0,-1
EndSplineSet
Validated: 1
EndChar

StartChar: M
Encoding: 77 77 48
Width: 1923
GlyphClass: 1
Flags: W
LayerCount: 2
Fore
SplineSet
925 601 m 16,0,1
 943 561 943 561 962 515 c 1,2,3
 979 560 979 560 998.5 602.5 c 128,-1,4
 1018 645 1018 645 1038 685 c 2,5,-1
 1421 1439 l 2,6,7
 1431 1458 1431 1458 1442 1469 c 128,-1,8
 1453 1480 1453 1480 1466.5 1485 c 128,-1,9
 1480 1490 1480 1490 1496.5 1491 c 128,-1,10
 1513 1492 1513 1492 1536 1492 c 2,11,-1
 1800 1492 l 1,12,-1
 1800 0 l 1,13,-1
 1495 0 l 1,14,-1
 1495 858 l 2,15,16
 1495 920 1495 920 1501 993 c 1,17,-1
 1106 226 l 2,18,19
 1088 190 1088 190 1056.5 172 c 128,-1,20
 1025 154 1025 154 985 154 c 2,21,-1
 938 154 l 2,22,23
 898 154 898 154 867 172 c 128,-1,24
 836 190 836 190 817 226 c 2,25,-1
 420 994 l 1,26,27
 424 958 424 958 426 923 c 128,-1,28
 428 888 428 888 428 858 c 2,29,-1
 428 0 l 1,30,-1
 123 0 l 1,31,-1
 123 1492 l 1,32,-1
 387 1492 l 2,33,34
 410 1492 410 1492 426.5 1491 c 128,-1,35
 443 1490 443 1490 456.5 1485 c 128,-1,36
 470 1480 470 1480 481 1469 c 128,-1,37
 492 1458 492 1458 502 1439 c 2,38,-1
 886 682 l 9,39,40
 908 639 908 639 925 601 c 16,0,1
EndSplineSet
Validated: 1
EndChar

StartChar: N
Encoding: 78 78 49
Width: 1548
GlyphClass: 1
Flags: W
LayerCount: 2
Fore
SplineSet
343 1490 m 16,0,1
 358 1488 358 1488 370 1482 c 128,-1,2
 382 1476 382 1476 394 1466 c 128,-1,3
 406 1456 406 1456 420 1439 c 2,4,-1
 1128 543 l 1,5,6
 1124 586 1124 586 1122 626.5 c 128,-1,7
 1120 667 1120 667 1120 702 c 2,8,-1
 1120 1492 l 1,9,-1
 1425 1492 l 1,10,-1
 1425 0 l 1,11,-1
 1245 0 l 2,12,13
 1205 0 1205 0 1177.5 12.5 c 128,-1,14
 1150 25 1150 25 1124 57 c 2,15,-1
 421 946 l 1,16,17
 424 907 424 907 426 870 c 128,-1,18
 428 833 428 833 428 800 c 2,19,-1
 428 0 l 1,20,-1
 123 0 l 1,21,-1
 123 1492 l 1,22,-1
 305 1492 l 9,23,24
 331 1492 331 1492 343 1490 c 16,0,1
EndSplineSet
Validated: 1
EndChar

StartChar: O
Encoding: 79 79 50
Width: 1638
GlyphClass: 1
Flags: W
LayerCount: 2
Fore
SplineSet
1595 746 m 0,0,1
 1595 584 1595 584 1539.5 445 c 128,-1,2
 1484 306 1484 306 1382.5 203 c 128,-1,3
 1281 100 1281 100 1138 42 c 128,-1,4
 995 -16 995 -16 821 -16 c 256,5,6
 647 -16 647 -16 503.5 42 c 128,-1,7
 360 100 360 100 258.5 203 c 128,-1,8
 157 306 157 306 101 445.5 c 128,-1,9
 45 585 45 585 45 746 c 256,10,11
 45 908 45 908 101 1047.5 c 128,-1,12
 157 1187 157 1187 258.5 1289.5 c 128,-1,13
 360 1392 360 1392 503.5 1450 c 128,-1,14
 647 1508 647 1508 821 1508 c 256,15,16
 995 1508 995 1508 1138 1449.5 c 128,-1,17
 1281 1391 1281 1391 1382.5 1288.5 c 128,-1,18
 1484 1186 1484 1186 1539.5 1046.5 c 128,-1,19
 1595 907 1595 907 1595 746 c 0,0,1
1241 746 m 0,20,21
 1241 857 1241 857 1212.5 945.5 c 128,-1,22
 1184 1034 1184 1034 1130 1095.5 c 128,-1,23
 1076 1157 1076 1157 998.5 1190 c 128,-1,24
 921 1223 921 1223 821 1223 c 256,25,26
 721 1223 721 1223 642.5 1190 c 128,-1,27
 564 1157 564 1157 510.5 1095.5 c 128,-1,28
 457 1034 457 1034 428 945.5 c 128,-1,29
 399 857 399 857 399 746 c 0,30,31
 399 634 399 634 428 546 c 128,-1,32
 457 458 457 458 510.5 396.5 c 128,-1,33
 564 335 564 335 642.5 302.5 c 128,-1,34
 721 270 721 270 821 270 c 0,35,36
 920 270 920 270 998 302.5 c 128,-1,37
 1076 335 1076 335 1130 396.5 c 128,-1,38
 1184 458 1184 458 1212.5 546 c 128,-1,39
 1241 634 1241 634 1241 746 c 0,20,21
EndSplineSet
Validated: 1
EndChar

StartChar: P
Encoding: 80 80 51
Width: 1306
GlyphClass: 1
Flags: W
LayerCount: 2
Fore
SplineSet
469 499 m 1,0,-1
 469 0 l 1,1,-1
 123 0 l 1,2,-1
 123 1492 l 1,3,-1
 649 1492 l 2,4,5
 807 1492 807 1492 920 1454.5 c 128,-1,6
 1033 1417 1033 1417 1106.5 1351.5 c 128,-1,7
 1180 1286 1180 1286 1214.5 1197 c 128,-1,8
 1249 1108 1249 1108 1249 1005 c 0,9,10
 1249 893 1249 893 1213.5 800 c 128,-1,11
 1178 707 1178 707 1104 640 c 128,-1,12
 1030 573 1030 573 917 536 c 128,-1,13
 804 499 804 499 649 499 c 2,14,-1
 469 499 l 1,0,-1
469 760 m 1,15,-1
 649 760 l 2,16,17
 784 760 784 760 843.5 824.5 c 128,-1,18
 903 889 903 889 903 1005 c 0,19,20
 903 1056 903 1056 887.5 1098 c 128,-1,21
 872 1140 872 1140 841 1170 c 128,-1,22
 810 1200 810 1200 762.5 1216.5 c 128,-1,23
 715 1233 715 1233 649 1233 c 2,24,-1
 469 1233 l 1,25,-1
 469 760 l 1,15,-1
EndSplineSet
Validated: 1
EndChar

StartChar: Q
Encoding: 81 81 52
Width: 1638
GlyphClass: 1
Flags: W
LayerCount: 2
Fore
SplineSet
1595 746 m 0,0,1
 1595 650 1595 650 1575 561.5 c 128,-1,2
 1555 473 1555 473 1518 395 c 128,-1,3
 1481 317 1481 317 1426 250.5 c 128,-1,4
 1371 184 1371 184 1302 133 c 1,5,-1
 1679 -280 l 1,6,-1
 1395 -280 l 2,7,8
 1334 -280 1334 -280 1283.5 -265 c 128,-1,9
 1233 -250 1233 -250 1194 -205 c 2,10,-1
 1009 3 l 1,11,12
 964 -6 964 -6 917 -11 c 128,-1,13
 870 -16 870 -16 821 -16 c 0,14,15
 647 -16 647 -16 503.5 42 c 128,-1,16
 360 100 360 100 258.5 203 c 128,-1,17
 157 306 157 306 101 445.5 c 128,-1,18
 45 585 45 585 45 746 c 256,19,20
 45 908 45 908 101 1047.5 c 128,-1,21
 157 1187 157 1187 258.5 1289.5 c 128,-1,22
 360 1392 360 1392 503.5 1450 c 128,-1,23
 647 1508 647 1508 821 1508 c 256,24,25
 995 1508 995 1508 1138 1449.5 c 128,-1,26
 1281 1391 1281 1391 1382.5 1288.5 c 128,-1,27
 1484 1186 1484 1186 1539.5 1046.5 c 128,-1,28
 1595 907 1595 907 1595 746 c 0,0,1
1241 746 m 0,29,30
 1241 857 1241 857 1212.5 945.5 c 128,-1,31
 1184 1034 1184 1034 1130 1095.5 c 128,-1,32
 1076 1157 1076 1157 998.5 1190 c 128,-1,33
 921 1223 921 1223 821 1223 c 256,34,35
 721 1223 721 1223 642.5 1190 c 128,-1,36
 564 1157 564 1157 510.5 1095.5 c 128,-1,37
 457 1034 457 1034 428 945.5 c 128,-1,38
 399 857 399 857 399 746 c 0,39,40
 399 634 399 634 428 546 c 128,-1,41
 457 458 457 458 510.5 396.5 c 128,-1,42
 564 335 564 335 642.5 302.5 c 128,-1,43
 721 270 721 270 821 270 c 0,44,45
 920 270 920 270 998 302.5 c 128,-1,46
 1076 335 1076 335 1130 396.5 c 128,-1,47
 1184 458 1184 458 1212.5 546 c 128,-1,48
 1241 634 1241 634 1241 746 c 0,29,30
EndSplineSet
Validated: 1
EndChar

StartChar: R
Encoding: 82 82 53
Width: 1361
GlyphClass: 1
Flags: W
LayerCount: 2
Fore
SplineSet
469 552 m 1,0,-1
 469 0 l 1,1,-1
 123 0 l 1,2,-1
 123 1492 l 1,3,-1
 608 1492 l 2,4,5
 770 1492 770 1492 884 1458.5 c 128,-1,6
 998 1425 998 1425 1070.5 1366 c 128,-1,7
 1143 1307 1143 1307 1175.5 1226 c 128,-1,8
 1208 1145 1208 1145 1208 1050 c 0,9,10
 1208 977 1208 977 1188.5 912.5 c 128,-1,11
 1169 848 1169 848 1131 793 c 128,-1,12
 1093 738 1093 738 1037 695 c 128,-1,13
 981 652 981 652 908 625 c 1,14,15
 943 608 943 608 973.5 582 c 128,-1,16
 1004 556 1004 556 1026 519 c 2,17,-1
 1343 0 l 1,18,-1
 1030 0 l 2,19,20
 943 0 943 0 905 66 c 2,21,-1
 657 499 l 2,22,23
 641 528 641 528 619 540 c 128,-1,24
 597 552 597 552 557 552 c 2,25,-1
 469 552 l 1,0,-1
469 791 m 1,26,-1
 608 791 l 2,27,28
 679 791 679 791 728.5 808.5 c 128,-1,29
 778 826 778 826 810 858 c 128,-1,30
 842 890 842 890 856 932.5 c 128,-1,31
 870 975 870 975 870 1024 c 0,32,33
 870 1122 870 1122 806 1177.5 c 128,-1,34
 742 1233 742 1233 608 1233 c 2,35,-1
 469 1233 l 1,36,-1
 469 791 l 1,26,-1
EndSplineSet
Validated: 1
EndChar

StartChar: S
Encoding: 83 83 54
Width: 1110
GlyphClass: 1
Flags: W
LayerCount: 2
Fore
SplineSet
954 1189 m 2,0,1
 939 1164 939 1164 922 1152 c 128,-1,2
 905 1140 905 1140 879 1140 c 0,3,4
 855 1140 855 1140 828 1154.5 c 128,-1,5
 801 1169 801 1169 766.5 1187.5 c 128,-1,6
 732 1206 732 1206 688 1221 c 128,-1,7
 644 1236 644 1236 588 1236 c 0,8,9
 491 1236 491 1236 443 1194.5 c 128,-1,10
 395 1153 395 1153 395 1082 c 0,11,12
 395 1037 395 1037 424 1007.5 c 128,-1,13
 453 978 453 978 499.5 956.5 c 128,-1,14
 546 935 546 935 606 917 c 128,-1,15
 666 899 666 899 728.5 877 c 128,-1,16
 791 855 791 855 850.5 825.5 c 128,-1,17
 910 796 910 796 957 749.5 c 128,-1,18
 1004 703 1004 703 1032.5 637 c 128,-1,19
 1061 571 1061 571 1061 478 c 0,20,21
 1061 375 1061 375 1025 285 c 128,-1,22
 989 195 989 195 921 127.5 c 128,-1,23
 853 60 853 60 753 22 c 128,-1,24
 653 -16 653 -16 526 -16 c 0,25,26
 456 -16 456 -16 384 -2 c 128,-1,27
 312 12 312 12 244.5 38.5 c 128,-1,28
 177 65 177 65 117.5 100.5 c 128,-1,29
 58 136 58 136 14 180 c 1,30,-1
 117 342 l 2,31,32
 128 360 128 360 148.5 371.5 c 128,-1,33
 169 383 169 383 193 383 c 0,34,35
 224 383 224 383 255 363.5 c 128,-1,36
 286 344 286 344 325.5 320.5 c 128,-1,37
 365 297 365 297 416 277.5 c 128,-1,38
 467 258 467 258 537 258 c 0,39,40
 631 258 631 258 683 299.5 c 128,-1,41
 735 341 735 341 735 431 c 0,42,43
 735 483 735 483 706.5 516 c 128,-1,44
 678 549 678 549 631.5 570.5 c 128,-1,45
 585 592 585 592 525.5 608.5 c 128,-1,46
 466 625 466 625 403.5 645 c 128,-1,47
 341 665 341 665 281.5 694 c 128,-1,48
 222 723 222 723 175.5 770.5 c 128,-1,49
 129 818 129 818 100.5 889.5 c 128,-1,50
 72 961 72 961 72 1065 c 0,51,52
 72 1149 72 1149 105.5 1229 c 128,-1,53
 139 1309 139 1309 204.5 1371.5 c 128,-1,54
 270 1434 270 1434 365.5 1471 c 128,-1,55
 461 1508 461 1508 584 1508 c 0,56,57
 653 1508 653 1508 717.5 1497.5 c 128,-1,58
 782 1487 782 1487 840.5 1466 c 128,-1,59
 899 1445 899 1445 949.5 1415.5 c 128,-1,60
 1000 1386 1000 1386 1040 1350 c 1,61,-1
 954 1189 l 2,0,1
EndSplineSet
Validated: 1
EndChar

StartChar: T
Encoding: 84 84 55
Width: 1226
GlyphClass: 1
Flags: W
LayerCount: 2
Fore
SplineSet
1206 1492 m 1,0,-1
 1206 1218 l 1,1,-1
 786 1218 l 1,2,-1
 786 0 l 1,3,-1
 440 0 l 1,4,-1
 440 1218 l 1,5,-1
 20 1218 l 1,6,-1
 20 1492 l 1,7,-1
 1206 1492 l 1,0,-1
EndSplineSet
Validated: 1
EndChar

StartChar: U
Encoding: 85 85 56
Width: 1486
GlyphClass: 1
Flags: W
LayerCount: 2
Fore
SplineSet
743 273 m 256,0,1
 813 273 813 273 868 296 c 128,-1,2
 923 319 923 319 960.5 362.5 c 128,-1,3
 998 406 998 406 1018 467.5 c 128,-1,4
 1038 529 1038 529 1038 608 c 2,5,-1
 1038 1492 l 1,6,-1
 1384 1492 l 1,7,-1
 1384 608 l 2,8,9
 1384 471 1384 471 1339.5 356.5 c 128,-1,10
 1295 242 1295 242 1212 159 c 128,-1,11
 1129 76 1129 76 1010.5 30 c 128,-1,12
 892 -16 892 -16 743 -16 c 0,13,14
 593 -16 593 -16 474.5 30 c 128,-1,15
 356 76 356 76 273 159 c 128,-1,16
 190 242 190 242 146 356.5 c 128,-1,17
 102 471 102 471 102 608 c 2,18,-1
 102 1492 l 1,19,-1
 449 1492 l 1,20,-1
 449 609 l 2,21,22
 449 530 449 530 468.5 468.5 c 128,-1,23
 488 407 488 407 526 363 c 128,-1,24
 564 319 564 319 618.5 296 c 128,-1,25
 673 273 673 273 743 273 c 256,0,1
EndSplineSet
Validated: 1
EndChar

StartChar: V
Encoding: 86 86 57
Width: 1509
GlyphClass: 1
Flags: W
LayerCount: 2
Fore
SplineSet
0 1492 m 1,0,-1
 279 1492 l 2,1,2
 324 1492 324 1492 352.5 1471.5 c 128,-1,3
 381 1451 381 1451 393 1417 c 2,4,-1
 682 618 l 2,5,6
 701 566 701 566 721 504.5 c 128,-1,7
 741 443 741 443 759 376 c 1,8,9
 773 444 773 444 792 505 c 128,-1,10
 811 566 811 566 829 618 c 2,11,-1
 1116 1417 l 2,12,13
 1126 1446 1126 1446 1156 1469 c 128,-1,14
 1186 1492 1186 1492 1229 1492 c 2,15,-1
 1509 1492 l 1,16,-1
 911 0 l 1,17,-1
 598 0 l 1,18,-1
 0 1492 l 1,0,-1
EndSplineSet
Validated: 1
EndChar

StartChar: W
Encoding: 87 87 58
Width: 2193
GlyphClass: 1
Flags: W
LayerCount: 2
Fore
SplineSet
10 1492 m 1,0,-1
 301 1492 l 2,1,2
 346 1492 346 1492 376.5 1471.5 c 128,-1,3
 407 1451 407 1451 416 1417 c 2,4,-1
 621 639 l 2,5,6
 631 601 631 601 641 558 c 128,-1,7
 651 515 651 515 656 468 c 1,8,9
 666 516 666 516 678.5 558.5 c 128,-1,10
 691 601 691 601 702 639 c 2,11,-1
 944 1417 l 2,12,13
 953 1446 953 1446 983.5 1469 c 128,-1,14
 1014 1492 1014 1492 1057 1492 c 2,15,-1
 1159 1492 l 2,16,17
 1204 1492 1204 1492 1233.5 1472 c 128,-1,18
 1263 1452 1263 1452 1274 1417 c 2,19,-1
 1513 639 l 2,20,21
 1524 603 1524 603 1536.5 562.5 c 128,-1,22
 1549 522 1549 522 1559 476 c 1,23,24
 1567 521 1567 521 1575.5 562 c 128,-1,25
 1584 603 1584 603 1593 639 c 2,26,-1
 1798 1417 l 2,27,28
 1806 1447 1806 1447 1837 1469.5 c 128,-1,29
 1868 1492 1868 1492 1911 1492 c 2,30,-1
 2183 1492 l 1,31,-1
 1722 0 l 1,32,-1
 1409 0 l 1,33,-1
 1128 925 l 2,34,35
 1121 947 1121 947 1113.5 972 c 128,-1,36
 1106 997 1106 997 1099 1026 c 1,37,38
 1092 997 1092 997 1084 971.5 c 128,-1,39
 1076 946 1076 946 1069 925 c 2,40,-1
 784 0 l 1,41,-1
 471 0 l 1,42,-1
 10 1492 l 1,0,-1
EndSplineSet
Validated: 1
EndChar

StartChar: X
Encoding: 88 88 59
Width: 1458
GlyphClass: 1
Flags: W
LayerCount: 2
Fore
SplineSet
490 767 m 1,0,-1
 29 1492 l 1,1,-1
 375 1492 l 2,2,3
 409 1492 409 1492 424.5 1483.5 c 128,-1,4
 440 1475 440 1475 453 1454 c 2,5,-1
 750 951 l 1,6,7
 755 964 755 964 761.5 976.5 c 128,-1,8
 768 989 768 989 776 1002 c 2,9,-1
 1036 1449 l 2,10,11
 1062 1492 1062 1492 1106 1492 c 2,12,-1
 1438 1492 l 1,13,-1
 970 782 l 1,14,-1
 1448 0 l 1,15,-1
 1102 0 l 2,16,17
 1068 0 1068 0 1047 16.5 c 128,-1,18
 1026 33 1026 33 1014 55 c 2,19,-1
 715 578 l 1,20,21
 707 555 707 555 696 539 c 2,22,-1
 418 55 l 2,23,24
 406 33 406 33 385.5 16.5 c 128,-1,25
 365 0 365 0 334 0 c 2,26,-1
 10 0 l 1,27,-1
 490 767 l 1,0,-1
EndSplineSet
Validated: 1
EndChar

StartChar: Y
Encoding: 89 89 60
Width: 1386
GlyphClass: 1
Flags: W
LayerCount: 2
Fore
SplineSet
866 567 m 1,0,-1
 866 0 l 1,1,-1
 520 0 l 1,2,-1
 520 567 l 1,3,-1
 -20 1492 l 1,4,-1
 285 1492 l 2,5,6
 330 1492 330 1492 356.5 1471 c 128,-1,7
 383 1450 383 1450 399 1417 c 2,8,-1
 610 983 l 2,9,10
 636 931 636 931 657.5 887 c 128,-1,11
 679 843 679 843 695 800 c 1,12,13
 710 844 710 844 732 888 c 128,-1,14
 754 932 754 932 778 983 c 2,15,-1
 987 1417 l 2,16,17
 993 1430 993 1430 1004 1443.5 c 128,-1,18
 1015 1457 1015 1457 1028.5 1468 c 128,-1,19
 1042 1479 1042 1479 1060 1485.5 c 128,-1,20
 1078 1492 1078 1492 1100 1492 c 2,21,-1
 1407 1492 l 1,22,-1
 866 567 l 1,0,-1
EndSplineSet
Validated: 1
EndChar

StartChar: Z
Encoding: 90 90 61
Width: 1249
GlyphClass: 1
Flags: W
LayerCount: 2
Fore
SplineSet
1214 1492 m 1,0,-1
 1214 1367 l 2,1,2
 1214 1340 1214 1340 1205.5 1314.5 c 128,-1,3
 1197 1289 1197 1289 1182 1267 c 2,4,-1
 481 266 l 1,5,-1
 1192 266 l 1,6,-1
 1192 0 l 1,7,-1
 41 0 l 1,8,-1
 41 133 l 2,9,10
 41 157 41 157 49 180 c 128,-1,11
 57 203 57 203 72 222 c 2,12,-1
 774 1226 l 1,13,-1
 98 1226 l 1,14,-1
 98 1492 l 1,15,-1
 1214 1492 l 1,0,-1
EndSplineSet
Validated: 1
EndChar

StartChar: bracketleft
Encoding: 91 91 62
Width: 614
GlyphClass: 1
Flags: W
LayerCount: 2
Fore
SplineSet
92 -332 m 1,0,-1
 92 1594 l 1,1,-1
 551 1594 l 1,2,-1
 551 1474 l 2,3,4
 551 1442 551 1442 528 1419.5 c 128,-1,5
 505 1397 505 1397 469 1397 c 2,6,-1
 356 1397 l 1,7,-1
 356 -134 l 1,8,-1
 469 -134 l 2,9,10
 505 -134 505 -134 528 -156.5 c 128,-1,11
 551 -179 551 -179 551 -210 c 2,12,-1
 551 -332 l 1,13,-1
 92 -332 l 1,0,-1
EndSplineSet
Validated: 1
EndChar

StartChar: backslash
Encoding: 92 92 63
Width: 827
GlyphClass: 1
Flags: W
LayerCount: 2
Fore
SplineSet
-37 1533 m 1,0,-1
 98 1533 l 2,1,2
 153 1533 153 1533 195.5 1505.5 c 128,-1,3
 238 1478 238 1478 258 1425 c 2,4,-1
 840 -101 l 1,5,-1
 705 -101 l 2,6,7
 680 -101 680 -101 655 -94 c 128,-1,8
 630 -87 630 -87 608 -72.5 c 128,-1,9
 586 -58 586 -58 567.5 -36.5 c 128,-1,10
 549 -15 549 -15 539 12 c 2,11,-1
 -37 1533 l 1,0,-1
EndSplineSet
Validated: 1
EndChar

StartChar: bracketright
Encoding: 93 93 64
Width: 614
GlyphClass: 1
Flags: W
LayerCount: 2
Fore
SplineSet
63 1594 m 1,0,-1
 522 1594 l 1,1,-1
 522 -332 l 1,2,-1
 63 -332 l 1,3,-1
 63 -210 l 2,4,5
 63 -179 63 -179 86.5 -156.5 c 128,-1,6
 110 -134 110 -134 145 -134 c 2,7,-1
 258 -134 l 1,8,-1
 258 1397 l 1,9,-1
 145 1397 l 2,10,11
 109 1397 109 1397 86 1419.5 c 128,-1,12
 63 1442 63 1442 63 1474 c 2,13,-1
 63 1594 l 1,0,-1
EndSplineSet
Validated: 1
EndChar

StartChar: asciicircum
Encoding: 94 94 65
Width: 1187
GlyphClass: 1
Flags: W
LayerCount: 2
Fore
SplineSet
1087 786 m 1,0,-1
 854 786 l 2,1,2
 826 786 826 786 808 800 c 128,-1,3
 790 814 790 814 778 836 c 2,4,-1
 651 1078 l 2,5,6
 634 1111 634 1111 619 1140.5 c 128,-1,7
 604 1170 604 1170 593 1200 c 1,8,9
 583 1170 583 1170 569.5 1140.5 c 128,-1,10
 556 1111 556 1111 539 1078 c 2,11,-1
 416 836 l 2,12,13
 405 816 405 816 386 801 c 128,-1,14
 367 786 367 786 336 786 c 2,15,-1
 90 786 l 1,16,-1
 485 1492 l 1,17,-1
 692 1492 l 1,18,-1
 1087 786 l 1,0,-1
EndSplineSet
Validated: 1
EndChar

StartChar: underscore
Encoding: 95 95 66
Width: 806
GlyphClass: 1
Flags: W
LayerCount: 2
Fore
SplineSet
807 -111 m 1,0,-1
 807 -309 l 1,1,-1
 0 -309 l 1,2,-1
 0 -111 l 1,3,-1
 807 -111 l 1,0,-1
EndSplineSet
Validated: 1
EndChar

StartChar: grave
Encoding: 96 96 67
Width: 675
GlyphClass: 1
Flags: W
LayerCount: 2
Fore
SplineSet
258 1508 m 2,0,1
 306 1508 306 1508 329.5 1492.5 c 128,-1,2
 353 1477 353 1477 371 1447 c 2,3,-1
 510 1196 l 1,4,-1
 330 1196 l 2,5,6
 294 1196 294 1196 272.5 1205.5 c 128,-1,7
 251 1215 251 1215 227 1239 c 2,8,-1
 -39 1508 l 1,9,-1
 258 1508 l 2,0,1
EndSplineSet
Validated: 1
Substitution2: "'case' Case-Sensitive Forms in Latin lookup 0 subtable" grave.case
EndChar

StartChar: a
Encoding: 97 97 68
Width: 1103
GlyphClass: 1
Flags: W
LayerCount: 2
Fore
SplineSet
856 0 m 2,0,1
 811 0 811 0 788 12.5 c 128,-1,2
 765 25 765 25 750 63 c 2,3,-1
 727 122 l 1,4,5
 687 88 687 88 650 62.5 c 128,-1,6
 613 37 613 37 574 19 c 128,-1,7
 535 1 535 1 490 -7.5 c 128,-1,8
 445 -16 445 -16 391 -16 c 0,9,10
 318 -16 318 -16 259 3 c 128,-1,11
 200 22 200 22 158.5 58.5 c 128,-1,12
 117 95 117 95 94.5 150 c 128,-1,13
 72 205 72 205 72 276 c 0,14,15
 72 332 72 332 100.5 392 c 128,-1,16
 129 452 129 452 199.5 500.5 c 128,-1,17
 270 549 270 549 390 581.5 c 128,-1,18
 510 614 510 614 692 618 c 1,19,-1
 692 664 l 2,20,21
 692 757 692 757 653.5 798.5 c 128,-1,22
 615 840 615 840 545 840 c 0,23,24
 489 840 489 840 453 827.5 c 128,-1,25
 417 815 417 815 388.5 799.5 c 128,-1,26
 360 784 360 784 333.5 772 c 128,-1,27
 307 760 307 760 270 760 c 0,28,29
 237 760 237 760 214 776 c 128,-1,30
 191 792 191 792 178 815 c 2,31,-1
 121 914 l 1,32,33
 217 999 217 999 334.5 1040.5 c 128,-1,34
 452 1082 452 1082 586 1082 c 0,35,36
 682 1082 682 1082 759.5 1051 c 128,-1,37
 837 1020 837 1020 890.5 964 c 128,-1,38
 944 908 944 908 972.5 831.5 c 128,-1,39
 1001 755 1001 755 1001 664 c 2,40,-1
 1001 0 l 1,41,-1
 856 0 l 2,0,1
492 194 m 0,42,43
 553 194 553 194 599 215.5 c 128,-1,44
 645 237 645 237 692 285 c 1,45,-1
 692 432 l 1,46,47
 597 428 597 428 535.5 415.5 c 128,-1,48
 474 403 474 403 438 385 c 128,-1,49
 402 367 402 367 388.5 343 c 128,-1,50
 375 319 375 319 375 292 c 0,51,52
 375 238 375 238 405 216 c 128,-1,53
 435 194 435 194 492 194 c 0,42,43
EndSplineSet
Validated: 1
EndChar

StartChar: b
Encoding: 98 98 69
Width: 1187
GlyphClass: 1
Flags: W
LayerCount: 2
Fore
SplineSet
123 0 m 1,0,-1
 123 1533 l 1,1,-1
 440 1533 l 1,2,-1
 440 949 l 1,3,4
 499 1007 499 1007 574.5 1042.5 c 128,-1,5
 650 1078 650 1078 752 1078 c 0,6,7
 835 1078 835 1078 905.5 1042.5 c 128,-1,8
 976 1007 976 1007 1027 937.5 c 128,-1,9
 1078 868 1078 868 1107.5 768 c 128,-1,10
 1137 668 1137 668 1137 540 c 0,11,12
 1137 420 1137 420 1103.5 318.5 c 128,-1,13
 1070 217 1070 217 1010 142.5 c 128,-1,14
 950 68 950 68 866.5 26 c 128,-1,15
 783 -16 783 -16 682 -16 c 0,16,17
 635 -16 635 -16 597.5 -7 c 128,-1,18
 560 2 560 2 529 19 c 128,-1,19
 498 36 498 36 471.5 59.5 c 128,-1,20
 445 83 445 83 421 111 c 1,21,-1
 410 57 l 2,22,23
 403 24 403 24 384 12 c 128,-1,24
 365 0 365 0 334 0 c 2,25,-1
 123 0 l 1,0,-1
641 840 m 0,26,27
 606 840 606 840 578 833 c 128,-1,28
 550 826 550 826 526 814 c 128,-1,29
 502 802 502 802 481.5 783 c 128,-1,30
 461 764 461 764 440 739 c 1,31,-1
 440 289 l 1,32,33
 476 249 476 249 518 233 c 128,-1,34
 560 217 560 217 606 217 c 0,35,36
 650 217 650 217 687 234.5 c 128,-1,37
 724 252 724 252 751 290.5 c 128,-1,38
 778 329 778 329 793.5 390.5 c 128,-1,39
 809 452 809 452 809 540 c 0,40,41
 809 624 809 624 796.5 681 c 128,-1,42
 784 738 784 738 762 773.5 c 128,-1,43
 740 809 740 809 709.5 824.5 c 128,-1,44
 679 840 679 840 641 840 c 0,26,27
EndSplineSet
Validated: 1
EndChar

StartChar: c
Encoding: 99 99 70
Width: 995
GlyphClass: 1
Flags: W
LayerCount: 2
Fore
SplineSet
889 810 m 2,0,1
 875 793 875 793 861.5 782.5 c 128,-1,2
 848 772 848 772 823 772 c 0,3,4
 799 772 799 772 780.5 783.5 c 128,-1,5
 762 795 762 795 738.5 808.5 c 128,-1,6
 715 822 715 822 683 833.5 c 128,-1,7
 651 845 651 845 604 845 c 0,8,9
 546 845 546 845 503.5 823.5 c 128,-1,10
 461 802 461 802 433.5 762 c 128,-1,11
 406 722 406 722 392.5 664 c 128,-1,12
 379 606 379 606 379 534 c 0,13,14
 379 381 379 381 438 299 c 128,-1,15
 497 217 497 217 600 217 c 0,16,17
 655 217 655 217 687.5 231 c 128,-1,18
 720 245 720 245 742.5 262 c 128,-1,19
 765 279 765 279 784 293 c 128,-1,20
 803 307 803 307 831 307 c 0,21,22
 869 307 869 307 889 280 c 2,23,-1
 981 166 l 1,24,25
 932 110 932 110 877.5 74.5 c 128,-1,26
 823 39 823 39 766.5 19 c 128,-1,27
 710 -1 710 -1 652.5 -8.5 c 128,-1,28
 595 -16 595 -16 541 -16 c 0,29,30
 444 -16 444 -16 355 20.5 c 128,-1,31
 266 57 266 57 199 127.5 c 128,-1,32
 132 198 132 198 92.5 300 c 128,-1,33
 53 402 53 402 53 534 c 0,34,35
 53 649 53 649 87.5 748.5 c 128,-1,36
 122 848 122 848 189 921 c 128,-1,37
 256 994 256 994 355 1036 c 128,-1,38
 454 1078 454 1078 584 1078 c 0,39,40
 709 1078 709 1078 803 1038 c 128,-1,41
 897 998 897 998 973 922 c 1,42,-1
 889 810 l 2,0,1
EndSplineSet
Validated: 1
EndChar

StartChar: d
Encoding: 100 100 71
Width: 1187
GlyphClass: 1
Flags: W
LayerCount: 2
Fore
SplineSet
868 0 m 2,0,1
 838 0 838 0 818.5 13.5 c 128,-1,2
 799 27 799 27 791 53 c 2,3,-1
 766 134 l 1,4,5
 734 100 734 100 699.5 72.5 c 128,-1,6
 665 45 665 45 624.5 25 c 128,-1,7
 584 5 584 5 537 -5.5 c 128,-1,8
 490 -16 490 -16 436 -16 c 0,9,10
 353 -16 353 -16 282.5 20.5 c 128,-1,11
 212 57 212 57 161 127 c 128,-1,12
 110 197 110 197 80.5 297.5 c 128,-1,13
 51 398 51 398 51 527 c 0,14,15
 51 646 51 646 84 748 c 128,-1,16
 117 850 117 850 177 924 c 128,-1,17
 237 998 237 998 320.5 1040 c 128,-1,18
 404 1082 404 1082 506 1082 c 0,19,20
 588 1082 588 1082 644.5 1058 c 128,-1,21
 701 1034 701 1034 748 995 c 1,22,-1
 748 1533 l 1,23,-1
 1065 1533 l 1,24,-1
 1065 0 l 1,25,-1
 868 0 l 2,0,1
547 227 m 0,26,27
 582 227 582 227 610 234 c 128,-1,28
 638 241 638 241 661.5 253 c 128,-1,29
 685 265 685 265 706 283.5 c 128,-1,30
 727 302 727 302 748 327 c 1,31,-1
 748 777 l 1,32,33
 711 817 711 817 669.5 833 c 128,-1,34
 628 849 628 849 582 849 c 0,35,36
 538 849 538 849 501 831.5 c 128,-1,37
 464 814 464 814 437 775.5 c 128,-1,38
 410 737 410 737 394.5 675.5 c 128,-1,39
 379 614 379 614 379 527 c 0,40,41
 379 443 379 443 391 386 c 128,-1,42
 403 329 403 329 425 293.5 c 128,-1,43
 447 258 447 258 478 242.5 c 128,-1,44
 509 227 509 227 547 227 c 0,26,27
EndSplineSet
Validated: 1
EndChar

StartChar: e
Encoding: 101 101 72
Width: 1114
GlyphClass: 1
Flags: W
LayerCount: 2
Fore
SplineSet
578 1078 m 0,0,1
 683 1078 683 1078 770.5 1045.5 c 128,-1,2
 858 1013 858 1013 921 950.5 c 128,-1,3
 984 888 984 888 1019.5 797.5 c 128,-1,4
 1055 707 1055 707 1055 592 c 0,5,6
 1055 556 1055 556 1052 533.5 c 128,-1,7
 1049 511 1049 511 1040.5 497.5 c 128,-1,8
 1032 484 1032 484 1018.5 479 c 128,-1,9
 1005 474 1005 474 983 474 c 2,10,-1
 371 474 l 1,11,12
 386 341 386 341 451.5 281 c 128,-1,13
 517 221 517 221 621 221 c 0,14,15
 676 221 676 221 716 234.5 c 128,-1,16
 756 248 756 248 787 264.5 c 128,-1,17
 818 281 818 281 844 294 c 128,-1,18
 870 307 870 307 899 307 c 0,19,20
 937 307 937 307 956 280 c 2,21,-1
 1049 166 l 1,22,23
 1000 110 1000 110 943 74.5 c 128,-1,24
 886 39 886 39 826 19 c 128,-1,25
 766 -1 766 -1 706 -8.5 c 128,-1,26
 646 -16 646 -16 592 -16 c 0,27,28
 480 -16 480 -16 382.5 20 c 128,-1,29
 285 56 285 56 211.5 128 c 128,-1,30
 138 200 138 200 95.5 306.5 c 128,-1,31
 53 413 53 413 53 554 c 0,32,33
 53 660 53 660 89.5 755.5 c 128,-1,34
 126 851 126 851 194 922.5 c 128,-1,35
 262 994 262 994 359 1036 c 128,-1,36
 456 1078 456 1078 578 1078 c 0,0,1
584 859 m 0,37,38
 493 859 493 859 441.5 807.5 c 128,-1,39
 390 756 390 756 374 658 c 1,40,-1
 770 658 l 1,41,42
 770 696 770 696 760.5 732 c 128,-1,43
 751 768 751 768 729 796 c 128,-1,44
 707 824 707 824 671 841.5 c 128,-1,45
 635 859 635 859 584 859 c 0,37,38
EndSplineSet
Validated: 1
EndChar

StartChar: f
Encoding: 102 102 73
Width: 741
GlyphClass: 1
Flags: W
LayerCount: 2
Fore
SplineSet
170 0 m 1,0,-1
 170 844 l 1,1,-1
 100 858 l 2,2,3
 64 866 64 866 42 883.5 c 128,-1,4
 20 901 20 901 20 935 c 2,5,-1
 20 1060 l 1,6,-1
 170 1060 l 1,7,-1
 170 1120 l 2,8,9
 170 1211 170 1211 199 1285 c 128,-1,10
 228 1359 228 1359 283 1411 c 128,-1,11
 338 1463 338 1463 417 1492 c 128,-1,12
 496 1521 496 1521 596 1521 c 0,13,14
 635 1521 635 1521 668 1516 c 128,-1,15
 701 1511 701 1511 737 1501 c 1,16,-1
 731 1347 l 2,17,18
 730 1331 730 1331 722.5 1320 c 128,-1,19
 715 1309 715 1309 703.5 1302 c 128,-1,20
 692 1295 692 1295 678.5 1292 c 128,-1,21
 665 1289 665 1289 651 1289 c 0,22,23
 609 1289 609 1289 576.5 1281 c 128,-1,24
 544 1273 544 1273 522 1252 c 128,-1,25
 500 1231 500 1231 488.5 1196.5 c 128,-1,26
 477 1162 477 1162 477 1110 c 2,27,-1
 477 1060 l 1,28,-1
 727 1060 l 1,29,-1
 727 843 l 1,30,-1
 487 843 l 1,31,-1
 487 0 l 1,32,-1
 170 0 l 1,0,-1
EndSplineSet
Validated: 1
EndChar

StartChar: g
Encoding: 103 103 74
Width: 1071
GlyphClass: 1
Flags: W
LayerCount: 2
Fore
SplineSet
498 1080 m 0,0,1
 566 1080 566 1080 625.5 1067 c 128,-1,2
 685 1054 685 1054 736 1029 c 1,3,-1
 1057 1029 l 1,4,-1
 1057 913 l 2,5,6
 1057 886 1057 886 1042 871 c 128,-1,7
 1027 856 1027 856 991 848 c 2,8,-1
 913 830 l 1,9,10
 927 784 927 784 928 735 c 0,11,12
 928 655 928 655 894.5 591.5 c 128,-1,13
 861 528 861 528 803 483.5 c 128,-1,14
 745 439 745 439 666.5 415 c 128,-1,15
 588 391 588 391 498 391 c 0,16,17
 448 391 448 391 403 397 c 1,18,19
 368 377 368 377 369 350 c 256,20,21
 369 323 369 323 397 311.5 c 128,-1,22
 425 300 425 300 471 295.5 c 128,-1,23
 517 291 517 291 576.5 289.5 c 128,-1,24
 636 288 636 288 697.5 282 c 128,-1,25
 759 276 759 276 818.5 263 c 128,-1,26
 878 250 878 250 924 220 c 128,-1,27
 970 190 970 190 998 140.5 c 128,-1,28
 1026 91 1026 91 1026 14 c 0,29,30
 1026 -58 1026 -58 991 -126.5 c 128,-1,31
 956 -195 956 -195 888.5 -248 c 128,-1,32
 821 -301 821 -301 723 -333.5 c 128,-1,33
 625 -366 625 -366 498 -366 c 0,34,35
 373 -366 373 -366 282 -342 c 128,-1,36
 191 -318 191 -318 131.5 -280 c 128,-1,37
 72 -242 72 -242 43 -191.5 c 128,-1,38
 14 -141 14 -141 14 -87 c 0,39,40
 14 -16 14 -16 57 32.5 c 128,-1,41
 100 81 100 81 175 109 c 1,42,43
 139 133 139 133 117.5 169.5 c 128,-1,44
 96 206 96 206 96 262 c 0,45,46
 96 286 96 286 104.5 312 c 128,-1,47
 113 338 113 338 130 362.5 c 128,-1,48
 147 387 147 387 174 409.5 c 128,-1,49
 201 432 201 432 238 450 c 1,50,51
 155 494 155 494 107 566.5 c 128,-1,52
 59 639 59 639 59 735 c 0,53,54
 59 815 59 815 93 879 c 128,-1,55
 127 943 127 943 186 987.5 c 128,-1,56
 245 1032 245 1032 325 1056 c 128,-1,57
 405 1080 405 1080 498 1080 c 0,0,1
733 -39 m 0,58,59
 733 -13 733 -13 717 2 c 128,-1,60
 701 17 701 17 674 26.5 c 128,-1,61
 647 36 647 36 610.5 40 c 128,-1,62
 574 44 574 44 532 46 c 128,-1,63
 490 48 490 48 445 49.5 c 128,-1,64
 400 51 400 51 356 56 c 1,65,66
 326 36 326 36 307.5 11 c 128,-1,67
 289 -14 289 -14 289 -46 c 0,68,69
 289 -69 289 -69 298.5 -87 c 128,-1,70
 308 -105 308 -105 332.5 -118.5 c 128,-1,71
 357 -132 357 -132 398.5 -139.5 c 128,-1,72
 440 -147 440 -147 504 -147 c 0,73,74
 573 -147 573 -147 616.5 -139 c 128,-1,75
 660 -131 660 -131 686.5 -116.5 c 128,-1,76
 713 -102 713 -102 723 -82.5 c 128,-1,77
 733 -63 733 -63 733 -39 c 0,58,59
498 587 m 0,78,79
 577 587 577 587 612 626.5 c 128,-1,80
 647 666 647 666 647 728 c 0,81,82
 647 793 647 793 612 829.5 c 128,-1,83
 577 866 577 866 498 866 c 256,84,85
 419 866 419 866 383.5 829.5 c 128,-1,86
 348 793 348 793 348 728 c 0,87,88
 348 697 348 697 357 671.5 c 128,-1,89
 366 646 366 646 384 627 c 128,-1,90
 402 608 402 608 430.5 597.5 c 128,-1,91
 459 587 459 587 498 587 c 0,78,79
EndSplineSet
Validated: 1
EndChar

StartChar: h
Encoding: 104 104 75
Width: 1187
GlyphClass: 1
Flags: W
LayerCount: 2
Fore
SplineSet
123 0 m 1,0,-1
 123 1533 l 1,1,-1
 440 1533 l 1,2,-1
 440 969 l 1,3,4
 497 1018 497 1018 564.5 1048 c 128,-1,5
 632 1078 632 1078 725 1078 c 0,6,7
 812 1078 812 1078 879 1048 c 128,-1,8
 946 1018 946 1018 992 964 c 128,-1,9
 1038 910 1038 910 1061.5 836 c 128,-1,10
 1085 762 1085 762 1085 675 c 2,11,-1
 1085 0 l 1,12,-1
 768 0 l 1,13,-1
 768 675 l 2,14,15
 768 753 768 753 732 796.5 c 128,-1,16
 696 840 696 840 627 840 c 0,17,18
 575 840 575 840 528.5 817.5 c 128,-1,19
 482 795 482 795 440 757 c 1,20,-1
 440 0 l 1,21,-1
 123 0 l 1,0,-1
EndSplineSet
Validated: 1
EndChar

StartChar: i
Encoding: 105 105 76
Width: 583
GlyphClass: 1
Flags: W
LayerCount: 2
Fore
SplineSet
451 1062 m 1,0,-1
 451 0 l 1,1,-1
 133 0 l 1,2,-1
 133 1062 l 1,3,-1
 451 1062 l 1,0,-1
487 1353 m 0,4,5
 487 1315 487 1315 472 1281.5 c 128,-1,6
 457 1248 457 1248 430 1223 c 128,-1,7
 403 1198 403 1198 368 1183 c 128,-1,8
 333 1168 333 1168 293 1168 c 0,9,10
 254 1168 254 1168 220 1183 c 128,-1,11
 186 1198 186 1198 160 1223 c 128,-1,12
 134 1248 134 1248 119 1281.5 c 128,-1,13
 104 1315 104 1315 104 1353 c 0,14,15
 104 1392 104 1392 119 1425.5 c 128,-1,16
 134 1459 134 1459 160 1484.5 c 128,-1,17
 186 1510 186 1510 220 1524.5 c 128,-1,18
 254 1539 254 1539 293 1539 c 0,19,20
 333 1539 333 1539 368 1524.5 c 128,-1,21
 403 1510 403 1510 430 1484.5 c 128,-1,22
 457 1459 457 1459 472 1425.5 c 128,-1,23
 487 1392 487 1392 487 1353 c 0,4,5
EndSplineSet
Validated: 1
EndChar

StartChar: j
Encoding: 106 106 77
Width: 579
GlyphClass: 1
Flags: W
LayerCount: 2
Fore
SplineSet
451 1062 m 1,0,-1
 451 -2 l 2,1,2
 451 -77 451 -77 432 -143 c 128,-1,3
 413 -209 413 -209 369.5 -258.5 c 128,-1,4
 326 -308 326 -308 254.5 -337 c 128,-1,5
 183 -366 183 -366 78 -366 c 0,6,7
 39 -366 39 -366 5.5 -361 c 128,-1,8
 -28 -356 -28 -356 -63 -347 c 1,9,-1
 -53 -180 l 2,10,11
 -51 -158 -51 -158 -39 -148 c 128,-1,12
 -27 -138 -27 -138 10 -138 c 256,13,14
 47 -138 47 -138 70.5 -132 c 128,-1,15
 94 -126 94 -126 108 -110.5 c 128,-1,16
 122 -95 122 -95 127.5 -69 c 128,-1,17
 133 -43 133 -43 133 -2 c 2,18,-1
 133 1062 l 1,19,-1
 451 1062 l 1,0,-1
487 1353 m 0,20,21
 487 1315 487 1315 472 1281.5 c 128,-1,22
 457 1248 457 1248 430 1223 c 128,-1,23
 403 1198 403 1198 368 1183 c 128,-1,24
 333 1168 333 1168 293 1168 c 0,25,26
 254 1168 254 1168 220 1183 c 128,-1,27
 186 1198 186 1198 160 1223 c 128,-1,28
 134 1248 134 1248 119 1281.5 c 128,-1,29
 104 1315 104 1315 104 1353 c 0,30,31
 104 1392 104 1392 119 1425.5 c 128,-1,32
 134 1459 134 1459 160 1484.5 c 128,-1,33
 186 1510 186 1510 220 1524.5 c 128,-1,34
 254 1539 254 1539 293 1539 c 0,35,36
 333 1539 333 1539 368 1524.5 c 128,-1,37
 403 1510 403 1510 430 1484.5 c 128,-1,38
 457 1459 457 1459 472 1425.5 c 128,-1,39
 487 1392 487 1392 487 1353 c 0,20,21
EndSplineSet
Validated: 1
EndChar

StartChar: k
Encoding: 107 107 78
Width: 1179
GlyphClass: 1
Flags: W
LayerCount: 2
Fore
SplineSet
440 1533 m 1,0,-1
 440 674 l 1,1,-1
 487 674 l 2,2,3
 517 674 517 674 533 682 c 128,-1,4
 549 690 549 690 563 712 c 2,5,-1
 764 1011 l 2,6,7
 781 1038 781 1038 805 1050 c 128,-1,8
 829 1062 829 1062 866 1062 c 2,9,-1
 1157 1062 l 1,10,-1
 883 684 l 2,11,12
 864 657 864 657 840.5 636.5 c 128,-1,13
 817 616 817 616 791 600 c 1,14,15
 837 565 837 565 870 508 c 2,16,-1
 1169 0 l 1,17,-1
 883 0 l 2,18,19
 847 0 847 0 821 12 c 128,-1,20
 795 24 795 24 778 53 c 2,21,-1
 578 429 l 2,22,23
 564 455 564 455 548 462.5 c 128,-1,24
 532 470 532 470 502 470 c 2,25,-1
 440 470 l 1,26,-1
 440 0 l 1,27,-1
 123 0 l 1,28,-1
 123 1533 l 1,29,-1
 440 1533 l 1,0,-1
EndSplineSet
Validated: 1
EndChar

StartChar: l
Encoding: 108 108 79
Width: 583
GlyphClass: 1
Flags: W
LayerCount: 2
Fore
SplineSet
451 1533 m 1,0,-1
 451 0 l 1,1,-1
 133 0 l 1,2,-1
 133 1533 l 1,3,-1
 451 1533 l 1,0,-1
EndSplineSet
Validated: 1
EndChar

StartChar: m
Encoding: 109 109 80
Width: 1763
GlyphClass: 1
Flags: W
LayerCount: 2
Fore
SplineSet
123 0 m 1,0,-1
 123 1062 l 1,1,-1
 319 1062 l 2,2,3
 349 1062 349 1062 369 1048.5 c 128,-1,4
 389 1035 389 1035 397 1009 c 2,5,-1
 415 951 l 1,6,7
 442 979 442 979 470.5 1002 c 128,-1,8
 499 1025 499 1025 532 1042 c 128,-1,9
 565 1059 565 1059 603.5 1068.5 c 128,-1,10
 642 1078 642 1078 688 1078 c 0,11,12
 784 1078 784 1078 847 1028.5 c 128,-1,13
 910 979 910 979 943 896 c 1,14,15
 970 945 970 945 1008.5 980 c 128,-1,16
 1047 1015 1047 1015 1091.5 1036.5 c 128,-1,17
 1136 1058 1136 1058 1185.5 1068 c 128,-1,18
 1235 1078 1235 1078 1284 1078 c 0,19,20
 1375 1078 1375 1078 1446 1051 c 128,-1,21
 1517 1024 1517 1024 1564.5 972.5 c 128,-1,22
 1612 921 1612 921 1636.5 845.5 c 128,-1,23
 1661 770 1661 770 1661 675 c 2,24,-1
 1661 0 l 1,25,-1
 1343 0 l 1,26,-1
 1343 675 l 2,27,28
 1343 840 1343 840 1202 840 c 0,29,30
 1137 840 1137 840 1095 797.5 c 128,-1,31
 1053 755 1053 755 1053 675 c 2,32,-1
 1053 0 l 1,33,-1
 735 0 l 1,34,-1
 735 675 l 2,35,36
 735 766 735 766 699.5 803 c 128,-1,37
 664 840 664 840 594 840 c 0,38,39
 551 840 551 840 512.5 820.5 c 128,-1,40
 474 801 474 801 440 768 c 1,41,-1
 440 0 l 1,42,-1
 123 0 l 1,0,-1
EndSplineSet
Validated: 1
EndChar

StartChar: n
Encoding: 110 110 81
Width: 1187
GlyphClass: 1
Flags: W
LayerCount: 2
Fore
SplineSet
123 0 m 1,0,-1
 123 1062 l 1,1,-1
 319 1062 l 2,2,3
 349 1062 349 1062 369 1048.5 c 128,-1,4
 389 1035 389 1035 397 1009 c 2,5,-1
 416 947 l 1,6,7
 447 976 447 976 479.5 1000.5 c 128,-1,8
 512 1025 512 1025 549.5 1042 c 128,-1,9
 587 1059 587 1059 630.5 1068.5 c 128,-1,10
 674 1078 674 1078 725 1078 c 0,11,12
 812 1078 812 1078 879 1048 c 128,-1,13
 946 1018 946 1018 992 964 c 128,-1,14
 1038 910 1038 910 1061.5 836 c 128,-1,15
 1085 762 1085 762 1085 675 c 2,16,-1
 1085 0 l 1,17,-1
 768 0 l 1,18,-1
 768 675 l 2,19,20
 768 753 768 753 732 796.5 c 128,-1,21
 696 840 696 840 627 840 c 0,22,23
 575 840 575 840 528.5 817.5 c 128,-1,24
 482 795 482 795 440 757 c 1,25,-1
 440 0 l 1,26,-1
 123 0 l 1,0,-1
EndSplineSet
Validated: 1
EndChar

StartChar: o
Encoding: 111 111 82
Width: 1187
GlyphClass: 1
Flags: W
LayerCount: 2
Fore
SplineSet
596 1078 m 0,0,1
 717 1078 717 1078 816 1040 c 128,-1,2
 915 1002 915 1002 986.5 931.5 c 128,-1,3
 1058 861 1058 861 1097.5 760 c 128,-1,4
 1137 659 1137 659 1137 534 c 0,5,6
 1137 407 1137 407 1097.5 305 c 128,-1,7
 1058 203 1058 203 986.5 131.5 c 128,-1,8
 915 60 915 60 816 22 c 128,-1,9
 717 -16 717 -16 596 -16 c 0,10,11
 474 -16 474 -16 374 22 c 128,-1,12
 274 60 274 60 202 131.5 c 128,-1,13
 130 203 130 203 90.5 305 c 128,-1,14
 51 407 51 407 51 534 c 0,15,16
 51 660 51 660 90.5 760.5 c 128,-1,17
 130 861 130 861 202 931.5 c 128,-1,18
 274 1002 274 1002 374 1040 c 128,-1,19
 474 1078 474 1078 596 1078 c 0,0,1
596 219 m 0,20,21
 706 219 706 219 757.5 296.5 c 128,-1,22
 809 374 809 374 809 531 c 256,23,24
 809 689 809 689 757.5 766 c 128,-1,25
 706 843 706 843 596 843 c 0,26,27
 483 843 483 843 431 766 c 128,-1,28
 379 689 379 689 379 531 c 256,29,30
 379 373 379 373 431 296 c 128,-1,31
 483 219 483 219 596 219 c 0,20,21
EndSplineSet
Validated: 1
EndChar

StartChar: p
Encoding: 112 112 83
Width: 1183
GlyphClass: 1
Flags: W
LayerCount: 2
Fore
SplineSet
123 -337 m 1,0,-1
 123 1062 l 1,1,-1
 319 1062 l 2,2,3
 349 1062 349 1062 369 1048.5 c 128,-1,4
 389 1035 389 1035 397 1009 c 2,5,-1
 421 931 l 1,6,7
 452 965 452 965 487 992.5 c 128,-1,8
 522 1020 522 1020 562.5 1040 c 128,-1,9
 603 1060 603 1060 649.5 1071 c 128,-1,10
 696 1082 696 1082 752 1082 c 0,11,12
 835 1082 835 1082 905.5 1045.5 c 128,-1,13
 976 1009 976 1009 1027 939 c 128,-1,14
 1078 869 1078 869 1107.5 768.5 c 128,-1,15
 1137 668 1137 668 1137 540 c 0,16,17
 1137 420 1137 420 1103.5 318.5 c 128,-1,18
 1070 217 1070 217 1010 142.5 c 128,-1,19
 950 68 950 68 866.5 26 c 128,-1,20
 783 -16 783 -16 682 -16 c 0,21,22
 599 -16 599 -16 542.5 7.5 c 128,-1,23
 486 31 486 31 440 71 c 1,24,-1
 440 -337 l 1,25,-1
 123 -337 l 1,0,-1
641 840 m 0,26,27
 606 840 606 840 578 833 c 128,-1,28
 550 826 550 826 526 814 c 128,-1,29
 502 802 502 802 481.5 783 c 128,-1,30
 461 764 461 764 440 739 c 1,31,-1
 440 289 l 1,32,33
 476 249 476 249 518 233 c 128,-1,34
 560 217 560 217 606 217 c 0,35,36
 650 217 650 217 687 234.5 c 128,-1,37
 724 252 724 252 751 290.5 c 128,-1,38
 778 329 778 329 793.5 390.5 c 128,-1,39
 809 452 809 452 809 540 c 0,40,41
 809 624 809 624 796.5 681 c 128,-1,42
 784 738 784 738 762 773.5 c 128,-1,43
 740 809 740 809 709.5 824.5 c 128,-1,44
 679 840 679 840 641 840 c 0,26,27
EndSplineSet
Validated: 1
EndChar

StartChar: q
Encoding: 113 113 84
Width: 1187
GlyphClass: 1
Flags: W
LayerCount: 2
Fore
SplineSet
1065 1062 m 1,0,-1
 1065 -337 l 1,1,-1
 748 -337 l 1,2,-1
 748 116 l 1,3,4
 688 57 688 57 613 20.5 c 128,-1,5
 538 -16 538 -16 436 -16 c 0,6,7
 353 -16 353 -16 282.5 20.5 c 128,-1,8
 212 57 212 57 161 127 c 128,-1,9
 110 197 110 197 80.5 297.5 c 128,-1,10
 51 398 51 398 51 527 c 0,11,12
 51 646 51 646 84 748 c 128,-1,13
 117 850 117 850 177 924 c 128,-1,14
 237 998 237 998 320.5 1040 c 128,-1,15
 404 1082 404 1082 506 1082 c 0,16,17
 554 1082 554 1082 593 1074 c 128,-1,18
 632 1066 632 1066 664 1050.5 c 128,-1,19
 696 1035 696 1035 724 1013.5 c 128,-1,20
 752 992 752 992 777 967 c 1,21,-1
 791 1009 l 2,22,23
 809 1062 809 1062 868 1062 c 2,24,-1
 1065 1062 l 1,0,-1
547 227 m 0,25,26
 582 227 582 227 610 234 c 128,-1,27
 638 241 638 241 661.5 253 c 128,-1,28
 685 265 685 265 706 283.5 c 128,-1,29
 727 302 727 302 748 327 c 1,30,-1
 748 777 l 1,31,32
 711 816 711 816 669.5 832.5 c 128,-1,33
 628 849 628 849 582 849 c 0,34,35
 538 849 538 849 501 831.5 c 128,-1,36
 464 814 464 814 437 775.5 c 128,-1,37
 410 737 410 737 394.5 675.5 c 128,-1,38
 379 614 379 614 379 527 c 0,39,40
 379 443 379 443 391 386 c 128,-1,41
 403 329 403 329 425 293.5 c 128,-1,42
 447 258 447 258 478 242.5 c 128,-1,43
 509 227 509 227 547 227 c 0,25,26
EndSplineSet
Validated: 1
EndChar

StartChar: r
Encoding: 114 114 85
Width: 845
GlyphClass: 1
Flags: W
LayerCount: 2
Fore
SplineSet
123 0 m 1,0,-1
 123 1062 l 1,1,-1
 311 1062 l 2,2,3
 335 1062 335 1062 351 1058 c 128,-1,4
 367 1054 367 1054 377.5 1045 c 128,-1,5
 388 1036 388 1036 393.5 1022 c 128,-1,6
 399 1008 399 1008 403 987 c 2,7,-1
 421 888 l 1,8,9
 479 978 479 978 552 1030 c 128,-1,10
 625 1082 625 1082 711 1082 c 0,11,12
 784 1082 784 1082 827 1048 c 1,13,-1
 786 814 l 2,14,15
 782 792 782 792 770 783.5 c 128,-1,16
 758 775 758 775 737 775 c 0,17,18
 720 775 720 775 696.5 779.5 c 128,-1,19
 673 784 673 784 637 784 c 0,20,21
 512 784 512 784 440 651 c 1,22,-1
 440 0 l 1,23,-1
 123 0 l 1,0,-1
EndSplineSet
Validated: 1
EndChar

StartChar: s
Encoding: 115 115 86
Width: 901
GlyphClass: 1
Flags: W
LayerCount: 2
Fore
SplineSet
772 829 m 2,0,1
 760 810 760 810 746 802 c 128,-1,2
 732 794 732 794 711 794 c 0,3,4
 688 794 688 794 665.5 803.5 c 128,-1,5
 643 813 643 813 617 824.5 c 128,-1,6
 591 836 591 836 558 845.5 c 128,-1,7
 525 855 525 855 483 855 c 0,8,9
 423 855 423 855 390.5 832 c 128,-1,10
 358 809 358 809 358 768 c 0,11,12
 358 738 358 738 379 718.5 c 128,-1,13
 400 699 400 699 435 684.5 c 128,-1,14
 470 670 470 670 514 656.5 c 128,-1,15
 558 643 558 643 604 626.5 c 128,-1,16
 650 610 650 610 694 588 c 128,-1,17
 738 566 738 566 773 534 c 128,-1,18
 808 502 808 502 829 456 c 128,-1,19
 850 410 850 410 850 345 c 0,20,21
 850 266 850 266 821.5 199.5 c 128,-1,22
 793 133 793 133 736 85 c 128,-1,23
 679 37 679 37 595.5 10.5 c 128,-1,24
 512 -16 512 -16 403 -16 c 0,25,26
 349 -16 349 -16 295 -6 c 128,-1,27
 241 4 241 4 190 21.5 c 128,-1,28
 139 39 139 39 96 63 c 128,-1,29
 53 87 53 87 23 115 c 1,30,-1
 96 231 l 2,31,32
 109 251 109 251 127.5 263 c 128,-1,33
 146 275 146 275 176 275 c 0,34,35
 204 275 204 275 226 263 c 128,-1,36
 248 251 248 251 273.5 236.5 c 128,-1,37
 299 222 299 222 333.5 210 c 128,-1,38
 368 198 368 198 420 198 c 0,39,40
 457 198 457 198 482.5 205.5 c 128,-1,41
 508 213 508 213 523.5 226.5 c 128,-1,42
 539 240 539 240 546 256 c 128,-1,43
 553 272 553 272 553 290 c 0,44,45
 553 322 553 322 531.5 342 c 128,-1,46
 510 362 510 362 475 377 c 128,-1,47
 440 392 440 392 395.5 405 c 128,-1,48
 351 418 351 418 305 434.5 c 128,-1,49
 259 451 259 451 214.5 474 c 128,-1,50
 170 497 170 497 135 532 c 128,-1,51
 100 567 100 567 78.5 618.5 c 128,-1,52
 57 670 57 670 57 742 c 0,53,54
 57 810 57 810 83.5 871 c 128,-1,55
 110 932 110 932 162 978 c 128,-1,56
 214 1024 214 1024 293 1051 c 128,-1,57
 372 1078 372 1078 477 1078 c 0,58,59
 534 1078 534 1078 588 1068 c 128,-1,60
 642 1058 642 1058 689 1039.5 c 128,-1,61
 736 1021 736 1021 775 996 c 128,-1,62
 814 971 814 971 844 941 c 1,63,-1
 772 829 l 2,0,1
EndSplineSet
Validated: 1
EndChar

StartChar: t
Encoding: 116 116 87
Width: 819
GlyphClass: 1
Flags: W
LayerCount: 2
Fore
SplineSet
496 -16 m 0,0,1
 420 -16 420 -16 362 6 c 128,-1,2
 304 28 304 28 264.5 68.5 c 128,-1,3
 225 109 225 109 204.5 166 c 128,-1,4
 184 223 184 223 184 294 c 2,5,-1
 184 843 l 1,6,-1
 94 843 l 2,7,8
 69 843 69 843 52 858.5 c 128,-1,9
 35 874 35 874 35 905 c 2,10,-1
 35 1029 l 1,11,-1
 204 1062 l 1,12,-1
 266 1321 l 2,13,14
 278 1370 278 1370 336 1370 c 2,15,-1
 502 1370 l 1,16,-1
 502 1060 l 1,17,-1
 760 1060 l 1,18,-1
 760 843 l 1,19,-1
 502 843 l 1,20,-1
 502 315 l 2,21,22
 502 278 502 278 520 254 c 128,-1,23
 538 230 538 230 571 230 c 0,24,25
 588 230 588 230 600 234 c 128,-1,26
 612 238 612 238 621 242.5 c 128,-1,27
 630 247 630 247 637.5 250.5 c 128,-1,28
 645 254 645 254 655 254 c 0,29,30
 669 254 669 254 678 247.5 c 128,-1,31
 687 241 687 241 696 226 c 2,32,-1
 793 76 l 1,33,34
 732 30 732 30 655 7 c 128,-1,35
 578 -16 578 -16 496 -16 c 0,0,1
EndSplineSet
Validated: 1
EndChar

StartChar: u
Encoding: 117 117 88
Width: 1187
GlyphClass: 1
Flags: W
LayerCount: 2
Fore
SplineSet
420 1062 m 1,0,-1
 420 388 l 2,1,2
 420 309 420 309 456 266 c 128,-1,3
 492 223 492 223 561 223 c 0,4,5
 613 223 613 223 659 244.5 c 128,-1,6
 705 266 705 266 748 305 c 1,7,-1
 748 1062 l 1,8,-1
 1065 1062 l 1,9,-1
 1065 0 l 1,10,-1
 868 0 l 2,11,12
 809 0 809 0 791 53 c 2,13,-1
 771 115 l 1,14,15
 740 85 740 85 707.5 61 c 128,-1,16
 675 37 675 37 637.5 20 c 128,-1,17
 600 3 600 3 557 -6.5 c 128,-1,18
 514 -16 514 -16 463 -16 c 0,19,20
 376 -16 376 -16 309 14 c 128,-1,21
 242 44 242 44 196 98.5 c 128,-1,22
 150 153 150 153 126 226.5 c 128,-1,23
 102 300 102 300 102 388 c 2,24,-1
 102 1062 l 1,25,-1
 420 1062 l 1,0,-1
EndSplineSet
Validated: 1
EndChar

StartChar: v
Encoding: 118 118 89
Width: 1132
GlyphClass: 1
Flags: W
LayerCount: 2
Fore
SplineSet
711 0 m 1,0,-1
 422 0 l 1,1,-1
 10 1062 l 1,2,-1
 274 1062 l 2,3,4
 308 1062 308 1062 331 1046 c 128,-1,5
 354 1030 354 1030 362 1007 c 2,6,-1
 510 530 l 2,7,8
 527 472 527 472 543 416.5 c 128,-1,9
 559 361 559 361 570 306 c 1,10,11
 581 361 581 361 597.5 416.5 c 128,-1,12
 614 472 614 472 633 530 c 2,13,-1
 786 1007 l 2,14,15
 794 1031 794 1031 817 1046.5 c 128,-1,16
 840 1062 840 1062 870 1062 c 2,17,-1
 1122 1062 l 1,18,-1
 711 0 l 1,0,-1
EndSplineSet
Validated: 1
EndChar

StartChar: w
Encoding: 119 119 90
Width: 1665
GlyphClass: 1
Flags: W
LayerCount: 2
Fore
SplineSet
0 1062 m 1,0,-1
 254 1062 l 2,1,2
 288 1062 288 1062 312.5 1046.5 c 128,-1,3
 337 1031 337 1031 342 1007 c 2,4,-1
 449 530 l 2,5,6
 461 476 461 476 471 425 c 128,-1,7
 481 374 481 374 489 324 c 1,8,9
 503 374 503 374 519.5 424.5 c 128,-1,10
 536 475 536 475 551 530 c 2,11,-1
 684 1008 l 2,12,13
 690 1032 690 1032 713.5 1047.5 c 128,-1,14
 737 1063 737 1063 768 1063 c 2,15,-1
 909 1063 l 2,16,17
 943 1063 943 1063 967 1047 c 128,-1,18
 991 1031 991 1031 997 1008 c 2,19,-1
 1124 530 l 2,20,21
 1138 476 1138 476 1153 425 c 128,-1,22
 1168 374 1168 374 1182 322 c 1,23,24
 1190 373 1190 373 1201.5 423.5 c 128,-1,25
 1213 474 1213 474 1227 530 c 2,26,-1
 1339 1007 l 2,27,28
 1344 1032 1344 1032 1368.5 1047 c 128,-1,29
 1393 1062 1393 1062 1423 1062 c 2,30,-1
 1665 1062 l 1,31,-1
 1335 0 l 1,32,-1
 1077 0 l 2,33,34
 1057 0 1057 0 1042.5 12.5 c 128,-1,35
 1028 25 1028 25 1020 53 c 2,36,-1
 868 583 l 2,37,38
 858 619 858 619 849 653.5 c 128,-1,39
 840 688 840 688 833 723 c 1,40,41
 826 687 826 687 817 651.5 c 128,-1,42
 808 616 808 616 797 581 c 2,43,-1
 643 53 l 2,44,45
 628 0 628 0 575 0 c 2,46,-1
 330 0 l 1,47,-1
 0 1062 l 1,0,-1
EndSplineSet
Validated: 1
EndChar

StartChar: x
Encoding: 120 120 91
Width: 1173
GlyphClass: 1
Flags: W
LayerCount: 2
Fore
SplineSet
377 549 m 1,0,-1
 35 1062 l 1,1,-1
 340 1062 l 2,2,3
 374 1062 374 1062 390 1053 c 128,-1,4
 406 1044 406 1044 418 1024 c 2,5,-1
 607 710 l 1,6,7
 613 728 613 728 622.5 745.5 c 128,-1,8
 632 763 632 763 643 782 c 2,9,-1
 778 1019 l 2,10,11
 791 1043 791 1043 807.5 1052.5 c 128,-1,12
 824 1062 824 1062 848 1062 c 2,13,-1
 1139 1062 l 1,14,-1
 797 563 l 1,15,-1
 1153 0 l 1,16,-1
 848 0 l 2,17,18
 814 0 814 0 793.5 16.5 c 128,-1,19
 773 33 773 33 760 55 c 2,20,-1
 570 381 l 1,21,22
 565 364 565 364 558 348.5 c 128,-1,23
 551 333 551 333 543 319 c 2,24,-1
 387 55 l 2,25,26
 375 33 375 33 354.5 16.5 c 128,-1,27
 334 0 334 0 303 0 c 2,28,-1
 20 0 l 1,29,-1
 377 549 l 1,0,-1
EndSplineSet
Validated: 1
EndChar

StartChar: y
Encoding: 121 121 92
Width: 1132
GlyphClass: 1
Flags: W
LayerCount: 2
Fore
SplineSet
557 -275 m 2,0,1
 543 -307 543 -307 522.5 -322 c 128,-1,2
 502 -337 502 -337 457 -337 c 2,3,-1
 219 -337 l 1,4,-1
 424 93 l 1,5,-1
 0 1062 l 1,6,-1
 281 1062 l 2,7,8
 318 1062 318 1062 338 1045.5 c 128,-1,9
 358 1029 358 1029 367 1007 c 2,10,-1
 541 549 l 2,11,12
 566 486 566 486 581 422 c 1,13,14
 591 455 591 455 603 486.5 c 128,-1,15
 615 518 615 518 627 551 c 2,16,-1
 784 1007 l 2,17,18
 792 1031 792 1031 816.5 1046.5 c 128,-1,19
 841 1062 841 1062 868 1062 c 2,20,-1
 1124 1062 l 1,21,-1
 557 -275 l 2,0,1
EndSplineSet
Validated: 1
EndChar

StartChar: z
Encoding: 122 122 93
Width: 976
GlyphClass: 1
Flags: W
LayerCount: 2
Fore
SplineSet
915 935 m 2,0,1
 915 902 915 902 903 872.5 c 128,-1,2
 891 843 891 843 874 821 c 2,3,-1
 431 236 l 1,4,-1
 905 236 l 1,5,-1
 905 0 l 1,6,-1
 66 0 l 1,7,-1
 66 129 l 2,8,9
 66 148 66 148 76.5 177.5 c 128,-1,10
 87 207 87 207 106 233 c 2,11,-1
 554 826 l 1,12,-1
 94 826 l 1,13,-1
 94 1062 l 1,14,-1
 915 1062 l 1,15,-1
 915 935 l 2,0,1
EndSplineSet
Validated: 1
EndChar

StartChar: braceleft
Encoding: 123 123 94
Width: 614
GlyphClass: 1
Flags: W
LayerCount: 2
Fore
SplineSet
123 407 m 0,0,1
 123 468 123 468 99.5 505.5 c 128,-1,2
 76 543 76 543 14 543 c 1,3,-1
 14 720 l 1,4,5
 45 720 45 720 66 730 c 128,-1,6
 87 740 87 740 99.5 758 c 128,-1,7
 112 776 112 776 117.5 801 c 128,-1,8
 123 826 123 826 123 856 c 0,9,10
 123 901 123 901 117.5 947 c 128,-1,11
 112 993 112 993 104.5 1039 c 128,-1,12
 97 1085 97 1085 91.5 1132.5 c 128,-1,13
 86 1180 86 1180 86 1227 c 0,14,15
 86 1310 86 1310 110 1378 c 128,-1,16
 134 1446 134 1446 185 1494 c 128,-1,17
 236 1542 236 1542 313.5 1568 c 128,-1,18
 391 1594 391 1594 500 1594 c 2,19,-1
 553 1594 l 1,20,-1
 553 1457 l 2,21,22
 553 1441 553 1441 546 1429.5 c 128,-1,23
 539 1418 539 1418 528.5 1411 c 128,-1,24
 518 1404 518 1404 507 1400.5 c 128,-1,25
 496 1397 496 1397 487 1397 c 0,26,27
 422 1397 422 1397 392 1357 c 128,-1,28
 362 1317 362 1317 362 1246 c 0,29,30
 362 1190 362 1190 367 1140 c 128,-1,31
 372 1090 372 1090 377 1043 c 128,-1,32
 382 996 382 996 386.5 951 c 128,-1,33
 391 906 391 906 391 860 c 0,34,35
 391 821 391 821 381 785.5 c 128,-1,36
 371 750 371 750 350 719.5 c 128,-1,37
 329 689 329 689 298 666 c 128,-1,38
 267 643 267 643 227 631 c 1,39,40
 267 619 267 619 298 596 c 128,-1,41
 329 573 329 573 350 543 c 128,-1,42
 371 513 371 513 381 476.5 c 128,-1,43
 391 440 391 440 391 402 c 0,44,45
 391 356 391 356 386.5 311 c 128,-1,46
 382 266 382 266 377 219.5 c 128,-1,47
 372 173 372 173 367 123 c 128,-1,48
 362 73 362 73 362 16 c 0,49,50
 362 -55 362 -55 392.5 -94.5 c 128,-1,51
 423 -134 423 -134 487 -134 c 0,52,53
 495 -134 495 -134 506.5 -137.5 c 128,-1,54
 518 -141 518 -141 528.5 -148.5 c 128,-1,55
 539 -156 539 -156 546 -167 c 128,-1,56
 553 -178 553 -178 553 -195 c 2,57,-1
 553 -332 l 1,58,-1
 500 -332 l 2,59,60
 391 -332 391 -332 313.5 -306 c 128,-1,61
 236 -280 236 -280 185 -231 c 128,-1,62
 134 -182 134 -182 110 -114.5 c 128,-1,63
 86 -47 86 -47 86 36 c 0,64,65
 86 83 86 83 91.5 130 c 128,-1,66
 97 177 97 177 104.5 223 c 128,-1,67
 112 269 112 269 117.5 315.5 c 128,-1,68
 123 362 123 362 123 407 c 0,0,1
EndSplineSet
Validated: 1
EndChar

StartChar: bar
Encoding: 124 124 95
Width: 614
GlyphClass: 1
Flags: W
LayerCount: 2
Fore
SplineSet
184 1594 m 1,0,-1
 430 1594 l 1,1,-1
 430 -337 l 1,2,-1
 184 -337 l 1,3,-1
 184 1594 l 1,0,-1
EndSplineSet
Validated: 1
EndChar

StartChar: braceright
Encoding: 125 125 96
Width: 614
GlyphClass: 1
Flags: W
LayerCount: 2
Fore
SplineSet
492 407 m 0,0,1
 492 362 492 362 497.5 315.5 c 128,-1,2
 503 269 503 269 510 223 c 128,-1,3
 517 177 517 177 522.5 130 c 128,-1,4
 528 83 528 83 528 36 c 0,5,6
 528 -47 528 -47 504 -114.5 c 128,-1,7
 480 -182 480 -182 429.5 -231 c 128,-1,8
 379 -280 379 -280 301 -306 c 128,-1,9
 223 -332 223 -332 115 -332 c 2,10,-1
 61 -332 l 1,11,-1
 61 -195 l 2,12,13
 61 -179 61 -179 68.5 -167.5 c 128,-1,14
 76 -156 76 -156 86 -148.5 c 128,-1,15
 96 -141 96 -141 107.5 -137.5 c 128,-1,16
 119 -134 119 -134 127 -134 c 0,17,18
 192 -134 192 -134 222 -94 c 128,-1,19
 252 -54 252 -54 252 16 c 0,20,21
 252 72 252 72 247.5 122.5 c 128,-1,22
 243 173 243 173 237.5 219.5 c 128,-1,23
 232 266 232 266 227.5 311 c 128,-1,24
 223 356 223 356 223 402 c 0,25,26
 223 440 223 440 233.5 476.5 c 128,-1,27
 244 513 244 513 265 543 c 128,-1,28
 286 573 286 573 316 595.5 c 128,-1,29
 346 618 346 618 386 631 c 1,30,31
 346 643 346 643 316 666 c 128,-1,32
 286 689 286 689 265 719.5 c 128,-1,33
 244 750 244 750 233.5 785.5 c 128,-1,34
 223 821 223 821 223 860 c 0,35,36
 223 906 223 906 227.5 951 c 128,-1,37
 232 996 232 996 237.5 1043 c 128,-1,38
 243 1090 243 1090 247.5 1140 c 128,-1,39
 252 1190 252 1190 252 1246 c 0,40,41
 252 1317 252 1317 221.5 1357 c 128,-1,42
 191 1397 191 1397 127 1397 c 0,43,44
 119 1397 119 1397 107.5 1400.5 c 128,-1,45
 96 1404 96 1404 86 1411 c 128,-1,46
 76 1418 76 1418 68.5 1429.5 c 128,-1,47
 61 1441 61 1441 61 1457 c 2,48,-1
 61 1594 l 1,49,-1
 115 1594 l 2,50,51
 224 1594 224 1594 301.5 1568 c 128,-1,52
 379 1542 379 1542 429.5 1494 c 128,-1,53
 480 1446 480 1446 504 1378 c 128,-1,54
 528 1310 528 1310 528 1227 c 0,55,56
 528 1180 528 1180 522.5 1132.5 c 128,-1,57
 517 1085 517 1085 510 1039 c 128,-1,58
 503 993 503 993 497.5 947 c 128,-1,59
 492 901 492 901 492 856 c 0,60,61
 492 826 492 826 497.5 801 c 128,-1,62
 503 776 503 776 515 758 c 128,-1,63
 527 740 527 740 548 730 c 128,-1,64
 569 720 569 720 600 720 c 1,65,-1
 600 543 l 1,66,67
 539 543 539 543 515.5 505.5 c 128,-1,68
 492 468 492 468 492 407 c 0,0,1
EndSplineSet
Validated: 1
EndChar

StartChar: asciitilde
Encoding: 126 126 97
Width: 1187
GlyphClass: 1
Flags: W
LayerCount: 2
Fore
SplineSet
748 693 m 0,0,1
 797 693 797 693 823.5 725 c 128,-1,2
 850 757 850 757 850 818 c 1,3,-1
 1106 818 l 1,4,5
 1106 731 1106 731 1083 661.5 c 128,-1,6
 1060 592 1060 592 1017 543.5 c 128,-1,7
 974 495 974 495 911 468.5 c 128,-1,8
 848 442 848 442 768 442 c 0,9,10
 714 442 714 442 666 454 c 128,-1,11
 618 466 618 466 577.5 481 c 128,-1,12
 537 496 537 496 502.5 507.5 c 128,-1,13
 468 519 468 519 440 519 c 0,14,15
 391 519 391 519 364.5 487.5 c 128,-1,16
 338 456 338 456 338 394 c 1,17,-1
 82 394 l 1,18,19
 82 481 82 481 105 551 c 128,-1,20
 128 621 128 621 171 669.5 c 128,-1,21
 214 718 214 718 277 744 c 128,-1,22
 340 770 340 770 420 770 c 0,23,24
 474 770 474 770 521.5 758 c 128,-1,25
 569 746 569 746 610 731.5 c 128,-1,26
 651 717 651 717 685.5 705 c 128,-1,27
 720 693 720 693 748 693 c 0,0,1
EndSplineSet
Validated: 1
EndChar

StartChar: exclamdown
Encoding: 161 161 99
Width: 770
GlyphClass: 1
Flags: W
LayerCount: 2
Fore
SplineSet
240 -337 m 1,0,-1
 240 203 l 2,1,2
 240 297 240 297 251 390 c 128,-1,3
 262 483 262 483 281 579 c 1,4,-1
 496 579 l 1,5,6
 514 484 514 484 525.5 390.5 c 128,-1,7
 537 297 537 297 537 203 c 2,8,-1
 537 -337 l 1,9,-1
 240 -337 l 1,0,-1
205 903 m 256,10,11
 205 940 205 940 218.5 972.5 c 128,-1,12
 232 1005 232 1005 256.5 1028.5 c 128,-1,13
 281 1052 281 1052 313.5 1065 c 128,-1,14
 346 1078 346 1078 385 1078 c 0,15,16
 423 1078 423 1078 455.5 1065 c 128,-1,17
 488 1052 488 1052 513 1028.5 c 128,-1,18
 538 1005 538 1005 551.5 972.5 c 128,-1,19
 565 940 565 940 565 903 c 256,20,21
 565 866 565 866 551.5 834.5 c 128,-1,22
 538 803 538 803 513 779.5 c 128,-1,23
 488 756 488 756 455.5 742 c 128,-1,24
 423 728 423 728 385 728 c 0,25,26
 346 728 346 728 313.5 742 c 128,-1,27
 281 756 281 756 256.5 779.5 c 128,-1,28
 232 803 232 803 218.5 834.5 c 128,-1,29
 205 866 205 866 205 903 c 256,10,11
EndSplineSet
Validated: 1
EndChar

StartChar: cent
Encoding: 162 162 100
Width: 1187
GlyphClass: 1
Flags: W
LayerCount: 2
Fore
SplineSet
530 -6 m 1,0,1
 442 10 442 10 365.5 53 c 128,-1,2
 289 96 289 96 232 164.5 c 128,-1,3
 175 233 175 233 143 325.5 c 128,-1,4
 111 418 111 418 111 531 c 0,5,6
 111 642 111 642 145 739 c 128,-1,7
 179 836 179 836 246.5 908.5 c 128,-1,8
 314 981 314 981 413 1025 c 128,-1,9
 512 1069 512 1069 641 1075 c 1,10,-1
 655 1219 l 2,11,12
 658 1247 658 1247 680.5 1270 c 128,-1,13
 703 1293 703 1293 739 1293 c 2,14,-1
 856 1293 l 1,15,-1
 833 1061 l 1,16,17
 910 1044 910 1044 974 1009 c 128,-1,18
 1038 974 1038 974 1094 922 c 1,19,-1
 1012 814 l 2,20,21
 999 797 999 797 986 787.5 c 128,-1,22
 973 778 973 778 948 778 c 0,23,24
 933 778 933 778 918.5 783 c 128,-1,25
 904 788 904 788 887.5 796 c 128,-1,26
 871 804 871 804 852 812.5 c 128,-1,27
 833 821 833 821 809 829 c 1,28,-1
 746 217 l 1,29,30
 790 223 790 223 820 237 c 128,-1,31
 850 251 850 251 873 265 c 128,-1,32
 896 279 896 279 915.5 289 c 128,-1,33
 935 299 935 299 958 299 c 0,34,35
 976 299 976 299 991.5 292 c 128,-1,36
 1007 285 1007 285 1016 273 c 2,37,-1
 1104 164 l 1,38,39
 1063 119 1063 119 1017.5 87.5 c 128,-1,40
 972 56 972 56 924 35 c 128,-1,41
 876 14 876 14 825 3 c 128,-1,42
 774 -8 774 -8 723 -12 c 1,43,-1
 711 -141 l 2,44,45
 708 -169 708 -169 685.5 -192.5 c 128,-1,46
 663 -216 663 -216 627 -216 c 2,47,-1
 510 -216 l 1,48,-1
 530 -6 l 1,0,1
424 531 m 0,49,50
 424 420 424 420 458 347.5 c 128,-1,51
 492 275 492 275 556 242 c 1,52,-1
 616 840 l 1,53,54
 516 820 516 820 470 739.5 c 128,-1,55
 424 659 424 659 424 531 c 0,49,50
EndSplineSet
Validated: 1
EndChar

StartChar: sterling
Encoding: 163 163 101
Width: 1187
GlyphClass: 1
Flags: W
LayerCount: 2
Fore
SplineSet
29 701 m 2,0,1
 29 742 29 742 55 772.5 c 128,-1,2
 81 803 81 803 133 803 c 2,3,-1
 219 803 l 1,4,-1
 219 1024 l 2,5,6
 219 1121 219 1121 249 1208.5 c 128,-1,7
 279 1296 279 1296 339.5 1363 c 128,-1,8
 400 1430 400 1430 492 1469 c 128,-1,9
 584 1508 584 1508 709 1508 c 0,10,11
 792 1508 792 1508 859 1487 c 128,-1,12
 926 1466 926 1466 978.5 1429 c 128,-1,13
 1031 1392 1031 1392 1071 1341 c 128,-1,14
 1111 1290 1111 1290 1141 1232 c 1,15,-1
 1014 1152 l 2,16,17
 976 1132 976 1132 941 1132 c 0,18,19
 894 1132 894 1132 856 1170 c 0,20,21
 817 1210 817 1210 785.5 1229.5 c 128,-1,22
 754 1249 754 1249 709 1249 c 0,23,24
 626 1249 626 1249 585.5 1191.5 c 128,-1,25
 545 1134 545 1134 545 1025 c 2,26,-1
 545 803 l 1,27,-1
 934 803 l 1,28,-1
 934 682 l 2,29,30
 934 667 934 667 927.5 653 c 128,-1,31
 921 639 921 639 909 627.5 c 128,-1,32
 897 616 897 616 881 609.5 c 128,-1,33
 865 603 865 603 846 603 c 2,34,-1
 545 603 l 1,35,-1
 545 443 l 2,36,37
 545 382 545 382 522 332.5 c 128,-1,38
 499 283 499 283 460 240 c 1,39,40
 506 250 506 250 552 255.5 c 128,-1,41
 598 261 598 261 645 261 c 2,42,-1
 1159 261 l 1,43,-1
 1159 131 l 2,44,45
 1159 108 1159 108 1149.5 84.5 c 128,-1,46
 1140 61 1140 61 1122.5 42.5 c 128,-1,47
 1105 24 1105 24 1080 12 c 128,-1,48
 1055 0 1055 0 1024 0 c 2,49,-1
 47 0 l 1,50,-1
 47 190 l 1,51,52
 81 196 81 196 112 209.5 c 128,-1,53
 143 223 143 223 166.5 243.5 c 128,-1,54
 190 264 190 264 204.5 293 c 128,-1,55
 219 322 219 322 219 359 c 2,56,-1
 219 603 l 1,57,-1
 29 603 l 1,58,-1
 29 701 l 2,0,1
EndSplineSet
Validated: 1
EndChar

StartChar: currency
Encoding: 164 164 102
Width: 1187
GlyphClass: 1
Flags: W
LayerCount: 2
Fore
SplineSet
205 690 m 0,0,1
 205 740 205 740 216.5 786.5 c 128,-1,2
 228 833 228 833 250 873 c 1,3,-1
 92 1030 l 1,4,-1
 252 1182 l 1,5,-1
 406 1030 l 1,6,7
 448 1053 448 1053 495 1065 c 128,-1,8
 542 1077 542 1077 594 1077 c 0,9,10
 643 1077 643 1077 688.5 1065.5 c 128,-1,11
 734 1054 734 1054 775 1032 c 1,12,-1
 932 1188 l 1,13,-1
 1090 1034 l 1,14,-1
 933 880 l 1,15,16
 957 838 957 838 970 790 c 128,-1,17
 983 742 983 742 983 690 c 0,18,19
 983 640 983 640 971 594 c 128,-1,20
 959 548 959 548 937 507 c 1,21,-1
 1096 351 l 1,22,-1
 936 199 l 1,23,-1
 781 350 l 1,24,25
 739 327 739 327 692 315 c 128,-1,26
 645 303 645 303 594 303 c 0,27,28
 545 303 545 303 499.5 314.5 c 128,-1,29
 454 326 454 326 413 346 c 1,30,-1
 256 193 l 1,31,-1
 98 346 l 1,32,-1
 254 500 l 1,33,34
 230 542 230 542 217.5 590 c 128,-1,35
 205 638 205 638 205 690 c 0,0,1
438 690 m 0,36,37
 438 657 438 657 450.5 627.5 c 128,-1,38
 463 598 463 598 484 575.5 c 128,-1,39
 505 553 505 553 533 540 c 128,-1,40
 561 527 561 527 594 527 c 256,41,42
 627 527 627 527 655.5 540 c 128,-1,43
 684 553 684 553 705.5 575.5 c 128,-1,44
 727 598 727 598 739.5 627.5 c 128,-1,45
 752 657 752 657 752 690 c 0,46,47
 752 725 752 725 739.5 754.5 c 128,-1,48
 727 784 727 784 705.5 806.5 c 128,-1,49
 684 829 684 829 655.5 842 c 128,-1,50
 627 855 627 855 594 855 c 256,51,52
 561 855 561 855 533 842 c 128,-1,53
 505 829 505 829 484 806.5 c 128,-1,54
 463 784 463 784 450.5 754.5 c 128,-1,55
 438 725 438 725 438 690 c 0,36,37
EndSplineSet
Validated: 1
EndChar

StartChar: yen
Encoding: 165 165 103
Width: 1187
GlyphClass: 1
Flags: W
LayerCount: 2
Fore
SplineSet
125 654 m 1,0,-1
 379 654 l 1,1,-1
 -20 1492 l 1,2,-1
 244 1492 l 2,3,4
 289 1492 289 1492 316.5 1472 c 128,-1,5
 344 1452 344 1452 358 1417 c 2,6,-1
 528 982 l 2,7,8
 550 927 550 927 567 881.5 c 128,-1,9
 584 836 584 836 594 791 c 1,10,11
 603 837 603 837 619 882.5 c 128,-1,12
 635 928 635 928 655 982 c 2,13,-1
 823 1417 l 2,14,15
 834 1447 834 1447 863.5 1469.5 c 128,-1,16
 893 1492 893 1492 936 1492 c 2,17,-1
 1202 1492 l 1,18,-1
 802 654 l 1,19,-1
 1057 654 l 1,20,-1
 1057 485 l 1,21,-1
 750 485 l 1,22,-1
 750 395 l 1,23,-1
 1057 395 l 1,24,-1
 1057 226 l 1,25,-1
 750 226 l 1,26,-1
 750 0 l 1,27,-1
 432 0 l 1,28,-1
 432 226 l 1,29,-1
 125 226 l 1,30,-1
 125 395 l 1,31,-1
 432 395 l 1,32,-1
 432 485 l 1,33,-1
 125 485 l 1,34,-1
 125 654 l 1,0,-1
EndSplineSet
Validated: 1
EndChar

StartChar: brokenbar
Encoding: 166 166 104
Width: 614
GlyphClass: 1
Flags: W
LayerCount: 2
Fore
SplineSet
184 1594 m 1,0,-1
 430 1594 l 1,1,-1
 430 756 l 1,2,-1
 184 756 l 1,3,-1
 184 1594 l 1,0,-1
184 502 m 1,4,-1
 430 502 l 1,5,-1
 430 -337 l 1,6,-1
 184 -337 l 1,7,-1
 184 502 l 1,4,-1
EndSplineSet
Validated: 1
EndChar

StartChar: section
Encoding: 167 167 105
Width: 1038
GlyphClass: 1
Flags: W
LayerCount: 2
Fore
SplineSet
854 1257 m 2,0,1
 842 1238 842 1238 828 1230.5 c 128,-1,2
 814 1223 814 1223 793 1223 c 0,3,4
 770 1223 770 1223 747.5 1232 c 128,-1,5
 725 1241 725 1241 699 1253 c 128,-1,6
 673 1265 673 1265 640 1274 c 128,-1,7
 607 1283 607 1283 565 1283 c 0,8,9
 491 1283 491 1283 455.5 1255.5 c 128,-1,10
 420 1228 420 1228 420 1185 c 0,11,12
 420 1158 420 1158 443.5 1136.5 c 128,-1,13
 467 1115 467 1115 506 1095.5 c 128,-1,14
 545 1076 545 1076 594.5 1056.5 c 128,-1,15
 644 1037 644 1037 696.5 1014.5 c 128,-1,16
 749 992 749 992 798.5 964.5 c 128,-1,17
 848 937 848 937 887 900.5 c 128,-1,18
 926 864 926 864 949.5 817 c 128,-1,19
 973 770 973 770 973 710 c 0,20,21
 973 628 973 628 935 560 c 128,-1,22
 897 492 897 492 813 449 c 1,23,24
 857 411 857 411 884 361 c 128,-1,25
 911 311 911 311 911 242 c 0,26,27
 911 163 911 163 882.5 96.5 c 128,-1,28
 854 30 854 30 797 -18.5 c 128,-1,29
 740 -67 740 -67 656.5 -93.5 c 128,-1,30
 573 -120 573 -120 465 -120 c 0,31,32
 411 -120 411 -120 356.5 -109.5 c 128,-1,33
 302 -99 302 -99 251.5 -82 c 128,-1,34
 201 -65 201 -65 158 -40.5 c 128,-1,35
 115 -16 115 -16 84 11 c 1,36,-1
 158 128 l 2,37,38
 171 148 171 148 189.5 160 c 128,-1,39
 208 172 208 172 238 172 c 0,40,41
 266 172 266 172 287.5 159.5 c 128,-1,42
 309 147 309 147 336.5 133 c 128,-1,43
 364 119 364 119 400 106.5 c 128,-1,44
 436 94 436 94 494 94 c 0,45,46
 561 94 561 94 598 118 c 128,-1,47
 635 142 635 142 635 190 c 0,48,49
 635 228 635 228 611 254.5 c 128,-1,50
 587 281 587 281 548 301.5 c 128,-1,51
 509 322 509 322 459 339 c 128,-1,52
 409 356 409 356 356.5 376.5 c 128,-1,53
 304 397 304 397 254 423 c 128,-1,54
 204 449 204 449 165 485 c 128,-1,55
 126 521 126 521 102 571.5 c 128,-1,56
 78 622 78 622 78 691 c 0,57,58
 78 771 78 771 118 835.5 c 128,-1,59
 158 900 158 900 240 939 c 1,60,61
 195 980 195 980 167 1035.5 c 128,-1,62
 139 1091 139 1091 139 1170 c 0,63,64
 139 1238 139 1238 165 1299 c 128,-1,65
 191 1360 191 1360 243.5 1406 c 128,-1,66
 296 1452 296 1452 375 1479 c 128,-1,67
 454 1506 454 1506 559 1506 c 0,68,69
 616 1506 616 1506 670 1496 c 128,-1,70
 724 1486 724 1486 771 1467.5 c 128,-1,71
 818 1449 818 1449 857 1424 c 128,-1,72
 896 1399 896 1399 926 1369 c 1,73,-1
 854 1257 l 2,0,1
358 741 m 0,74,75
 358 705 358 705 383 678.5 c 128,-1,76
 408 652 408 652 447.5 630 c 128,-1,77
 487 608 487 608 538.5 588 c 128,-1,78
 590 568 590 568 643 546 c 1,79,80
 672 563 672 563 684 587.5 c 128,-1,81
 696 612 696 612 696 640 c 0,82,83
 696 677 696 677 671.5 703 c 128,-1,84
 647 729 647 729 607 750.5 c 128,-1,85
 567 772 567 772 516.5 791.5 c 128,-1,86
 466 811 466 811 414 835 c 1,87,88
 384 816 384 816 371 793.5 c 128,-1,89
 358 771 358 771 358 741 c 0,74,75
EndSplineSet
Validated: 1
EndChar

StartChar: dieresis
Encoding: 168 168 106
Width: 675
GlyphClass: 1
Flags: W
LayerCount: 2
Fore
SplineSet
305 1326 m 0,0,1
 305 1293 305 1293 292 1264.5 c 128,-1,2
 279 1236 279 1236 255.5 1215 c 128,-1,3
 232 1194 232 1194 202 1181.5 c 128,-1,4
 172 1169 172 1169 137 1169 c 0,5,6
 104 1169 104 1169 75 1181.5 c 128,-1,7
 46 1194 46 1194 24 1215 c 128,-1,8
 2 1236 2 1236 -11.5 1264.5 c 128,-1,9
 -25 1293 -25 1293 -25 1326 c 0,10,11
 -25 1360 -25 1360 -11.5 1389.5 c 128,-1,12
 2 1419 2 1419 24 1441 c 128,-1,13
 46 1463 46 1463 75 1476 c 128,-1,14
 104 1489 104 1489 137 1489 c 0,15,16
 172 1489 172 1489 202 1476 c 128,-1,17
 232 1463 232 1463 255.5 1441 c 128,-1,18
 279 1419 279 1419 292 1389.5 c 128,-1,19
 305 1360 305 1360 305 1326 c 0,0,1
700 1326 m 0,20,21
 700 1293 700 1293 687.5 1264.5 c 128,-1,22
 675 1236 675 1236 652.5 1215 c 128,-1,23
 630 1194 630 1194 599.5 1181.5 c 128,-1,24
 569 1169 569 1169 535 1169 c 256,25,26
 501 1169 501 1169 471 1181.5 c 128,-1,27
 441 1194 441 1194 418.5 1215 c 128,-1,28
 396 1236 396 1236 383.5 1264.5 c 128,-1,29
 371 1293 371 1293 371 1326 c 0,30,31
 371 1360 371 1360 383.5 1389.5 c 128,-1,32
 396 1419 396 1419 418.5 1441 c 128,-1,33
 441 1463 441 1463 471 1476 c 128,-1,34
 501 1489 501 1489 535 1489 c 0,35,36
 570 1489 570 1489 600 1476 c 128,-1,37
 630 1463 630 1463 652.5 1441 c 128,-1,38
 675 1419 675 1419 687.5 1389.5 c 128,-1,39
 700 1360 700 1360 700 1326 c 0,20,21
EndSplineSet
Validated: 1
Substitution2: "'case' Case-Sensitive Forms in Latin lookup 0 subtable" dieresis.case
EndChar

StartChar: copyright
Encoding: 169 169 107
Width: 1607
GlyphClass: 1
Flags: W
LayerCount: 2
Fore
SplineSet
1008 555 m 0,0,1
 1020 555 1020 555 1031 549 c 128,-1,2
 1042 543 1042 543 1051 534 c 2,3,-1
 1155 426 l 1,4,5
 1100 349 1100 349 1010.5 309.5 c 128,-1,6
 921 270 921 270 803 270 c 0,7,8
 700 270 700 270 616 307.5 c 128,-1,9
 532 345 532 345 474 410 c 128,-1,10
 416 475 416 475 384 562 c 128,-1,11
 352 649 352 649 352 750 c 0,12,13
 352 854 352 854 389 941.5 c 128,-1,14
 426 1029 426 1029 490 1093 c 128,-1,15
 554 1157 554 1157 640 1192.5 c 128,-1,16
 726 1228 726 1228 825 1228 c 0,17,18
 943 1228 943 1228 1028 1187 c 128,-1,19
 1113 1146 1113 1146 1165 1084 c 1,20,-1
 1081 973 l 2,21,22
 1073 965 1073 965 1061 954 c 128,-1,23
 1049 943 1049 943 1028 943 c 256,24,25
 1008 943 1008 943 993 952.5 c 128,-1,26
 978 962 978 962 959.5 973 c 128,-1,27
 941 984 941 984 914 993 c 128,-1,28
 887 1002 887 1002 842 1002 c 0,29,30
 739 1002 739 1002 686 934 c 128,-1,31
 633 866 633 866 633 750 c 0,32,33
 633 689 633 689 646.5 641.5 c 128,-1,34
 660 594 660 594 685 562 c 128,-1,35
 710 530 710 530 744 514 c 128,-1,36
 778 498 778 498 819 498 c 0,37,38
 867 498 867 498 895.5 506.5 c 128,-1,39
 924 515 924 515 942.5 525.5 c 128,-1,40
 961 536 961 536 974.5 545 c 128,-1,41
 988 554 988 554 1008 555 c 0,0,1
41 746 m 256,42,43
 41 851 41 851 68 949 c 128,-1,44
 95 1047 95 1047 145 1131 c 128,-1,45
 195 1215 195 1215 264.5 1285 c 128,-1,46
 334 1355 334 1355 419 1404.5 c 128,-1,47
 504 1454 504 1454 600.5 1481 c 128,-1,48
 697 1508 697 1508 803 1508 c 256,49,50
 908 1508 908 1508 1006 1481 c 128,-1,51
 1104 1454 1104 1454 1188.5 1404.5 c 128,-1,52
 1273 1355 1273 1355 1343 1285 c 128,-1,53
 1413 1215 1413 1215 1462.5 1131 c 128,-1,54
 1512 1047 1512 1047 1539.5 949.5 c 128,-1,55
 1567 852 1567 852 1567 746 c 0,56,57
 1567 642 1567 642 1539.5 544.5 c 128,-1,58
 1512 447 1512 447 1462.5 363 c 128,-1,59
 1413 279 1413 279 1343 209 c 128,-1,60
 1273 139 1273 139 1188.5 89.5 c 128,-1,61
 1104 40 1104 40 1006 13 c 128,-1,62
 908 -14 908 -14 803 -14 c 0,63,64
 699 -14 699 -14 601.5 13 c 128,-1,65
 504 40 504 40 419 89.5 c 128,-1,66
 334 139 334 139 264.5 209 c 128,-1,67
 195 279 195 279 145 363 c 128,-1,68
 95 447 95 447 68 544 c 128,-1,69
 41 641 41 641 41 746 c 256,42,43
211 746 m 256,70,71
 211 616 211 616 256.5 503.5 c 128,-1,72
 302 391 302 391 382 307.5 c 128,-1,73
 462 224 462 224 570 176.5 c 128,-1,74
 678 129 678 129 803 129 c 0,75,76
 929 129 929 129 1038 176.5 c 128,-1,77
 1147 224 1147 224 1228 307.5 c 128,-1,78
 1309 391 1309 391 1355 503.5 c 128,-1,79
 1401 616 1401 616 1401 746 c 0,80,81
 1401 833 1401 833 1380 913 c 128,-1,82
 1359 993 1359 993 1320.5 1062.5 c 128,-1,83
 1282 1132 1282 1132 1228 1188.5 c 128,-1,84
 1174 1245 1174 1245 1107 1285 c 128,-1,85
 1040 1325 1040 1325 963.5 1347 c 128,-1,86
 887 1369 887 1369 803 1369 c 0,87,88
 678 1369 678 1369 570 1321 c 128,-1,89
 462 1273 462 1273 382 1188.5 c 128,-1,90
 302 1104 302 1104 256.5 990 c 128,-1,91
 211 876 211 876 211 746 c 256,70,71
EndSplineSet
Validated: 1
EndChar

StartChar: ordfeminine
Encoding: 170 170 108
Width: 722
GlyphClass: 1
Flags: W
LayerCount: 2
Fore
SplineSet
662 862 m 1,0,-1
 555 862 l 2,1,2
 524 862 524 862 508.5 870.5 c 128,-1,3
 493 879 493 879 479 905 c 2,4,-1
 467 933 l 1,5,6
 443 913 443 913 421.5 898.5 c 128,-1,7
 400 884 400 884 377 873.5 c 128,-1,8
 354 863 354 863 328 858.5 c 128,-1,9
 302 854 302 854 270 854 c 0,10,11
 177 854 177 854 124.5 901 c 128,-1,12
 72 948 72 948 72 1034 c 0,13,14
 72 1067 72 1067 87.5 1102.5 c 128,-1,15
 103 1138 103 1138 144 1168 c 128,-1,16
 185 1198 185 1198 257 1218.5 c 128,-1,17
 329 1239 329 1239 440 1242 c 1,18,-1
 440 1258 l 2,19,20
 440 1305 440 1305 420 1322 c 128,-1,21
 400 1339 400 1339 367 1339 c 0,22,23
 336 1339 336 1339 316.5 1333 c 128,-1,24
 297 1327 297 1327 281 1320 c 128,-1,25
 265 1313 265 1313 248.5 1306.5 c 128,-1,26
 232 1300 232 1300 207 1300 c 0,27,28
 183 1300 183 1300 168 1313.5 c 128,-1,29
 153 1327 153 1327 141 1341 c 2,30,-1
 102 1412 l 1,31,32
 162 1466 162 1466 236 1490 c 128,-1,33
 310 1514 310 1514 395 1514 c 0,34,35
 455 1514 455 1514 504.5 1495 c 128,-1,36
 554 1476 554 1476 589 1441 c 128,-1,37
 624 1406 624 1406 643 1359.5 c 128,-1,38
 662 1313 662 1313 662 1258 c 2,39,-1
 662 862 l 1,0,-1
344 1004 m 0,40,41
 372 1004 372 1004 394 1012.5 c 128,-1,42
 416 1021 416 1021 440 1044 c 1,43,-1
 440 1109 l 1,44,45
 392 1107 392 1107 362.5 1101.5 c 128,-1,46
 333 1096 333 1096 316.5 1087 c 128,-1,47
 300 1078 300 1078 294.5 1067 c 128,-1,48
 289 1056 289 1056 289 1044 c 0,49,50
 289 1020 289 1020 301 1012 c 128,-1,51
 313 1004 313 1004 344 1004 c 0,40,41
EndSplineSet
Validated: 1
EndChar

StartChar: guillemotleft
Encoding: 171 171 109
Width: 1036
GlyphClass: 1
Flags: W
LayerCount: 2
Fore
SplineSet
113 538 m 1,0,-1
 113 578 l 1,1,-1
 381 989 l 1,2,-1
 485 942 l 2,3,4
 510 931 510 931 522 914.5 c 128,-1,5
 534 898 534 898 534 878 c 0,6,7
 534 853 534 853 518 825 c 2,8,-1
 395 605 l 2,9,10
 378 574 378 574 358 557 c 1,11,12
 376 541 376 541 395 510 c 2,13,-1
 518 289 l 2,14,15
 533 262 533 262 534 238 c 0,16,17
 534 218 534 218 522 201 c 128,-1,18
 510 184 510 184 485 173 c 2,19,-1
 381 126 l 1,20,-1
 113 538 l 1,0,-1
481 538 m 1,21,-1
 481 578 l 1,22,-1
 750 989 l 1,23,-1
 854 942 l 2,24,25
 879 931 879 931 890.5 914.5 c 128,-1,26
 902 898 902 898 902 878 c 0,27,28
 902 853 902 853 887 825 c 2,29,-1
 764 605 l 2,30,31
 747 574 747 574 727 557 c 1,32,33
 745 541 745 541 764 510 c 2,34,-1
 887 289 l 2,35,36
 902 262 902 262 902 238 c 0,37,38
 902 218 902 218 890.5 201 c 128,-1,39
 879 184 879 184 854 173 c 2,40,-1
 750 126 l 1,41,-1
 481 538 l 1,21,-1
EndSplineSet
Validated: 1
EndChar

StartChar: logicalnot
Encoding: 172 172 110
Width: 1187
GlyphClass: 1
Flags: W
LayerCount: 2
Fore
SplineSet
127 802 m 1,0,-1
 1059 802 l 1,1,-1
 1059 289 l 1,2,-1
 791 289 l 1,3,-1
 791 574 l 1,4,-1
 127 574 l 1,5,-1
 127 802 l 1,0,-1
EndSplineSet
Validated: 1
EndChar

StartChar: uni00AD
Encoding: 173 173 111
Width: 757
GlyphClass: 1
Flags: W
LayerCount: 2
Fore
SplineSet
102 751 m 1,0,-1
 655 751 l 1,1,-1
 655 495 l 1,2,-1
 102 495 l 1,3,-1
 102 751 l 1,0,-1
EndSplineSet
Validated: 1
EndChar

StartChar: registered
Encoding: 174 174 112
Width: 1607
GlyphClass: 1
Flags: W
LayerCount: 2
Fore
SplineSet
41 746 m 256,0,1
 41 851 41 851 68 949 c 128,-1,2
 95 1047 95 1047 145 1131 c 128,-1,3
 195 1215 195 1215 264.5 1285 c 128,-1,4
 334 1355 334 1355 419 1404.5 c 128,-1,5
 504 1454 504 1454 600.5 1481 c 128,-1,6
 697 1508 697 1508 803 1508 c 256,7,8
 908 1508 908 1508 1006 1481 c 128,-1,9
 1104 1454 1104 1454 1188.5 1404.5 c 128,-1,10
 1273 1355 1273 1355 1343 1285 c 128,-1,11
 1413 1215 1413 1215 1462.5 1131 c 128,-1,12
 1512 1047 1512 1047 1539.5 949.5 c 128,-1,13
 1567 852 1567 852 1567 746 c 0,14,15
 1567 642 1567 642 1539.5 544.5 c 128,-1,16
 1512 447 1512 447 1462.5 363 c 128,-1,17
 1413 279 1413 279 1343 209 c 128,-1,18
 1273 139 1273 139 1188.5 89.5 c 128,-1,19
 1104 40 1104 40 1006 13 c 128,-1,20
 908 -14 908 -14 803 -14 c 0,21,22
 699 -14 699 -14 601.5 13 c 128,-1,23
 504 40 504 40 419 89.5 c 128,-1,24
 334 139 334 139 264.5 209 c 128,-1,25
 195 279 195 279 145 363 c 128,-1,26
 95 447 95 447 68 544 c 128,-1,27
 41 641 41 641 41 746 c 256,0,1
211 746 m 256,28,29
 211 616 211 616 256.5 503.5 c 128,-1,30
 302 391 302 391 382 307.5 c 128,-1,31
 462 224 462 224 570 176.5 c 128,-1,32
 678 129 678 129 803 129 c 0,33,34
 921 129 921 129 1023.5 171 c 128,-1,35
 1126 213 1126 213 1206 288 c 1,36,-1
 985 288 l 2,37,38
 929 288 929 288 907 328 c 1,39,-1
 813 564 l 2,40,41
 802 581 802 581 789 589 c 128,-1,42
 776 597 776 597 752 597 c 2,43,-1
 719 597 l 1,44,-1
 719 288 l 1,45,-1
 444 288 l 1,46,-1
 444 1210 l 1,47,-1
 805 1210 l 2,48,49
 907 1210 907 1210 981.5 1192 c 128,-1,50
 1056 1174 1056 1174 1103.5 1139 c 128,-1,51
 1151 1104 1151 1104 1173.5 1052.5 c 128,-1,52
 1196 1001 1196 1001 1196 936 c 0,53,54
 1196 893 1196 893 1186 853.5 c 128,-1,55
 1176 814 1176 814 1155 781 c 128,-1,56
 1134 748 1134 748 1100.5 721 c 128,-1,57
 1067 694 1067 694 1021 677 c 1,58,59
 1051 662 1051 662 1071.5 637.5 c 128,-1,60
 1092 613 1092 613 1108 580 c 2,61,-1
 1235 316 l 1,62,63
 1313 399 1313 399 1357 508.5 c 128,-1,64
 1401 618 1401 618 1401 746 c 0,65,66
 1401 833 1401 833 1380 913 c 128,-1,67
 1359 993 1359 993 1320.5 1062.5 c 128,-1,68
 1282 1132 1282 1132 1228 1188.5 c 128,-1,69
 1174 1245 1174 1245 1107 1285 c 128,-1,70
 1040 1325 1040 1325 963.5 1347 c 128,-1,71
 887 1369 887 1369 803 1369 c 0,72,73
 678 1369 678 1369 570 1321 c 128,-1,74
 462 1273 462 1273 382 1188.5 c 128,-1,75
 302 1104 302 1104 256.5 990 c 128,-1,76
 211 876 211 876 211 746 c 256,28,29
719 785 m 1,77,-1
 784 785 l 2,78,79
 833 785 833 785 861.5 793 c 128,-1,80
 890 801 890 801 904.5 815 c 128,-1,81
 919 829 919 829 922.5 851 c 128,-1,82
 926 873 926 873 926 901 c 0,83,84
 926 928 926 928 922.5 948 c 128,-1,85
 919 968 919 968 906.5 981.5 c 128,-1,86
 894 995 894 995 870 1002.5 c 128,-1,87
 846 1010 846 1010 805 1010 c 2,88,-1
 719 1010 l 1,89,-1
 719 785 l 1,77,-1
EndSplineSet
Validated: 1
EndChar

StartChar: macron
Encoding: 175 175 113
Width: 675
GlyphClass: 1
Flags: W
LayerCount: 2
Fore
SplineSet
20 1424 m 1,0,-1
 655 1424 l 1,1,-1
 655 1230 l 1,2,-1
 20 1230 l 1,3,-1
 20 1424 l 1,0,-1
EndSplineSet
Validated: 1
Substitution2: "'case' Case-Sensitive Forms in Latin lookup 0 subtable" macron.case
EndChar

StartChar: degree
Encoding: 176 176 114
Width: 829
GlyphClass: 1
Flags: W
LayerCount: 2
Fore
SplineSet
41 1146 m 0,0,1
 41 1222 41 1222 69.5 1288.5 c 128,-1,2
 98 1355 98 1355 148.5 1404 c 128,-1,3
 199 1453 199 1453 267 1481.5 c 128,-1,4
 335 1510 335 1510 414 1510 c 256,5,6
 493 1510 493 1510 561.5 1481.5 c 128,-1,7
 630 1453 630 1453 680.5 1404 c 128,-1,8
 731 1355 731 1355 759.5 1288.5 c 128,-1,9
 788 1222 788 1222 788 1146 c 0,10,11
 788 1072 788 1072 759.5 1006 c 128,-1,12
 731 940 731 940 680.5 891 c 128,-1,13
 630 842 630 842 561.5 812.5 c 128,-1,14
 493 783 493 783 414 783 c 256,15,16
 335 783 335 783 267 812.5 c 128,-1,17
 199 842 199 842 148.5 891 c 128,-1,18
 98 940 98 940 69.5 1006 c 128,-1,19
 41 1072 41 1072 41 1146 c 0,0,1
260 1144 m 0,20,21
 260 1110 260 1110 271.5 1081 c 128,-1,22
 283 1052 283 1052 303.5 1030 c 128,-1,23
 324 1008 324 1008 352 995.5 c 128,-1,24
 380 983 380 983 414 983 c 256,25,26
 448 983 448 983 476 995.5 c 128,-1,27
 504 1008 504 1008 524.5 1030 c 128,-1,28
 545 1052 545 1052 556 1081 c 128,-1,29
 567 1110 567 1110 567 1144 c 0,30,31
 567 1179 567 1179 556 1209 c 128,-1,32
 545 1239 545 1239 524.5 1261 c 128,-1,33
 504 1283 504 1283 475.5 1296 c 128,-1,34
 447 1309 447 1309 414 1309 c 256,35,36
 380 1309 380 1309 352 1296 c 128,-1,37
 324 1283 324 1283 303.5 1261 c 128,-1,38
 283 1239 283 1239 271.5 1209 c 128,-1,39
 260 1179 260 1179 260 1144 c 0,20,21
EndSplineSet
Validated: 1
EndChar

StartChar: plusminus
Encoding: 177 177 115
Width: 1187
GlyphClass: 1
Flags: W
LayerCount: 2
Fore
SplineSet
721 1303 m 1,0,-1
 721 958 l 1,1,-1
 1100 958 l 1,2,-1
 1100 730 l 1,3,-1
 721 730 l 1,4,-1
 721 403 l 1,5,-1
 463 403 l 1,6,-1
 463 730 l 1,7,-1
 86 730 l 1,8,-1
 86 958 l 1,9,-1
 463 958 l 1,10,-1
 463 1303 l 1,11,-1
 721 1303 l 1,0,-1
86 309 m 1,12,-1
 1100 309 l 1,13,-1
 1100 82 l 1,14,-1
 86 82 l 1,15,-1
 86 309 l 1,12,-1
EndSplineSet
Validated: 1
EndChar

StartChar: twosuperior
Encoding: 178 178 116
Width: 684
GlyphClass: 1
Flags: W
LayerCount: 2
Fore
SplineSet
360 1698 m 0,0,1
 426 1698 426 1698 475.5 1679.5 c 128,-1,2
 525 1661 525 1661 558.5 1629 c 128,-1,3
 592 1597 592 1597 608.5 1555.5 c 128,-1,4
 625 1514 625 1514 625 1468 c 0,5,6
 625 1426 625 1426 612 1391.5 c 128,-1,7
 599 1357 599 1357 578 1325 c 128,-1,8
 557 1293 557 1293 529.5 1263.5 c 128,-1,9
 502 1234 502 1234 473 1203 c 2,10,-1
 370 1098 l 1,11,12
 404 1108 404 1108 436.5 1114 c 128,-1,13
 469 1120 469 1120 496 1120 c 2,14,-1
 565 1120 l 2,15,16
 601 1120 601 1120 621 1101 c 128,-1,17
 641 1082 641 1082 641 1051 c 2,18,-1
 641 922 l 1,19,-1
 57 922 l 1,20,-1
 57 992 l 2,21,22
 57 1012 57 1012 65.5 1036 c 128,-1,23
 74 1060 74 1060 94 1079 c 2,24,-1
 297 1278 l 2,25,26
 317 1298 317 1298 335 1322.5 c 128,-1,27
 353 1347 353 1347 366.5 1371 c 128,-1,28
 380 1395 380 1395 387.5 1418 c 128,-1,29
 395 1441 395 1441 395 1460 c 0,30,31
 395 1485 395 1485 385 1504 c 128,-1,32
 375 1523 375 1523 348 1523 c 0,33,34
 326 1523 326 1523 313.5 1512.5 c 128,-1,35
 301 1502 301 1502 289 1480 c 0,36,37
 275 1460 275 1460 259.5 1448 c 128,-1,38
 244 1436 244 1436 215 1436 c 0,39,40
 201 1436 201 1436 184 1439 c 2,41,-1
 57 1458 l 1,42,43
 66 1520 66 1520 92 1565.5 c 128,-1,44
 118 1611 118 1611 157.5 1640 c 128,-1,45
 197 1669 197 1669 248.5 1683.5 c 128,-1,46
 300 1698 300 1698 360 1698 c 0,0,1
EndSplineSet
Validated: 1
EndChar

StartChar: threesuperior
Encoding: 179 179 117
Width: 684
GlyphClass: 1
Flags: W
LayerCount: 2
Fore
SplineSet
373 1698 m 0,0,1
 436 1698 436 1698 485 1680 c 128,-1,2
 534 1662 534 1662 566 1633 c 128,-1,3
 598 1604 598 1604 614.5 1568 c 128,-1,4
 631 1532 631 1532 631 1496 c 0,5,6
 631 1433 631 1433 607 1388 c 128,-1,7
 583 1343 583 1343 526 1317 c 1,8,9
 584 1298 584 1298 613.5 1262 c 128,-1,10
 643 1226 643 1226 643 1167 c 0,11,12
 643 1099 643 1099 618 1051.5 c 128,-1,13
 593 1004 593 1004 553 973 c 128,-1,14
 513 942 513 942 463 927.5 c 128,-1,15
 413 913 413 913 362 913 c 0,16,17
 309 913 309 913 264.5 922 c 128,-1,18
 220 931 220 931 183 955 c 128,-1,19
 146 979 146 979 117 1020 c 128,-1,20
 88 1061 88 1061 66 1125 c 1,21,-1
 164 1164 l 2,22,23
 190 1173 190 1173 213 1174 c 0,24,25
 261 1174 261 1174 279 1141 c 0,26,27
 293 1114 293 1114 312.5 1104 c 128,-1,28
 332 1094 332 1094 350 1094 c 0,29,30
 381 1094 381 1094 398.5 1111.5 c 128,-1,31
 416 1129 416 1129 416 1159 c 0,32,33
 416 1185 416 1185 410 1200 c 128,-1,34
 404 1215 404 1215 389.5 1223.5 c 128,-1,35
 375 1232 375 1232 350 1234.5 c 128,-1,36
 325 1237 325 1237 287 1237 c 1,37,-1
 287 1380 l 1,38,39
 328 1380 328 1380 353 1385.5 c 128,-1,40
 378 1391 378 1391 392 1400 c 128,-1,41
 406 1409 406 1409 410 1423.5 c 128,-1,42
 414 1438 414 1438 414 1456 c 0,43,44
 414 1483 414 1483 403.5 1501 c 128,-1,45
 393 1519 393 1519 360 1519 c 0,46,47
 335 1519 335 1519 322.5 1509.5 c 128,-1,48
 310 1500 310 1500 301 1482 c 0,49,50
 288 1458 288 1458 274 1447 c 128,-1,51
 260 1436 260 1436 234 1436 c 0,52,53
 220 1436 220 1436 201 1439 c 2,54,-1
 84 1458 l 1,55,56
 93 1520 93 1520 118.5 1565.5 c 128,-1,57
 144 1611 144 1611 182 1640 c 128,-1,58
 220 1669 220 1669 269 1683.5 c 128,-1,59
 318 1698 318 1698 373 1698 c 0,0,1
EndSplineSet
Validated: 1
EndChar

StartChar: acute
Encoding: 180 180 118
Width: 675
GlyphClass: 1
Flags: W
LayerCount: 2
Fore
SplineSet
743 1508 m 1,0,-1
 477 1239 l 2,1,2
 453 1215 453 1215 432 1205.5 c 128,-1,3
 411 1196 411 1196 375 1196 c 2,4,-1
 184 1196 l 1,5,-1
 324 1447 l 2,6,7
 341 1477 341 1477 364.5 1492.5 c 128,-1,8
 388 1508 388 1508 436 1508 c 2,9,-1
 743 1508 l 1,0,-1
EndSplineSet
Validated: 1
Substitution2: "'case' Case-Sensitive Forms in Latin lookup 0 subtable" acute.case
EndChar

StartChar: mu
Encoding: 181 181 119
Width: 1187
GlyphClass: 1
Flags: W
LayerCount: 2
Fore
SplineSet
420 1062 m 1,0,-1
 420 380 l 2,1,2
 420 305 420 305 457 264 c 128,-1,3
 494 223 494 223 561 223 c 0,4,5
 613 223 613 223 659 244.5 c 128,-1,6
 705 266 705 266 748 305 c 1,7,-1
 748 1062 l 1,8,-1
 1065 1062 l 1,9,-1
 1065 0 l 1,10,-1
 868 0 l 2,11,12
 838 0 838 0 818.5 13.5 c 128,-1,13
 799 27 799 27 791 53 c 2,14,-1
 771 116 l 1,15,16
 741 89 741 89 714.5 71 c 128,-1,17
 688 53 688 53 661 42.5 c 128,-1,18
 634 32 634 32 604.5 27.5 c 128,-1,19
 575 23 575 23 541 23 c 0,20,21
 492 23 492 23 450 36.5 c 128,-1,22
 408 50 408 50 373 76 c 1,23,24
 388 29 388 29 393.5 -24 c 128,-1,25
 399 -77 399 -77 399 -123 c 2,26,-1
 399 -337 l 1,27,-1
 242 -337 l 2,28,29
 175 -337 175 -337 138.5 -304 c 128,-1,30
 102 -271 102 -271 102 -210 c 2,31,-1
 102 1062 l 1,32,-1
 420 1062 l 1,0,-1
EndSplineSet
Validated: 1
EndChar

StartChar: paragraph
Encoding: 182 182 120
Width: 1492
GlyphClass: 1
Flags: W
LayerCount: 2
Fore
SplineSet
1466 1492 m 1,0,-1
 1466 1235 l 1,1,-1
 1251 1235 l 1,2,-1
 1251 -221 l 1,3,-1
 975 -221 l 1,4,-1
 975 1235 l 1,5,-1
 774 1235 l 1,6,-1
 774 -221 l 1,7,-1
 498 -221 l 1,8,-1
 498 621 l 1,9,10
 392 621 392 621 304 655.5 c 128,-1,11
 216 690 216 690 154 749 c 128,-1,12
 92 808 92 808 58.5 886.5 c 128,-1,13
 25 965 25 965 25 1053 c 0,14,15
 25 1149 25 1149 58.5 1230 c 128,-1,16
 92 1311 92 1311 154 1369 c 128,-1,17
 216 1427 216 1427 303.5 1459.5 c 128,-1,18
 391 1492 391 1492 498 1492 c 2,19,-1
 1466 1492 l 1,0,-1
EndSplineSet
Validated: 1
EndChar

StartChar: periodcentered
Encoding: 183 183 121
Width: 583
GlyphClass: 1
Flags: W
LayerCount: 2
Fore
SplineSet
61 610 m 256,0,1
 61 656 61 656 79 697 c 128,-1,2
 97 738 97 738 128.5 768.5 c 128,-1,3
 160 799 160 799 201.5 816.5 c 128,-1,4
 243 834 243 834 291 834 c 256,5,6
 339 834 339 834 381.5 816.5 c 128,-1,7
 424 799 424 799 455 768.5 c 128,-1,8
 486 738 486 738 504 697 c 128,-1,9
 522 656 522 656 522 610 c 256,10,11
 522 564 522 564 504 523.5 c 128,-1,12
 486 483 486 483 455 453 c 128,-1,13
 424 423 424 423 381.5 405.5 c 128,-1,14
 339 388 339 388 291 388 c 256,15,16
 243 388 243 388 201.5 405.5 c 128,-1,17
 160 423 160 423 128.5 453 c 128,-1,18
 97 483 97 483 79 523.5 c 128,-1,19
 61 564 61 564 61 610 c 256,0,1
EndSplineSet
Validated: 1
EndChar

StartChar: cedilla
Encoding: 184 184 122
Width: 675
GlyphClass: 1
Flags: W
LayerCount: 2
Fore
SplineSet
199 -215 m 0,0,1
 214 -215 214 -215 228.5 -219 c 128,-1,2
 243 -223 243 -223 264 -223 c 0,3,4
 291 -223 291 -223 302 -213.5 c 128,-1,5
 313 -204 313 -204 313 -193 c 0,6,7
 313 -171 313 -171 282 -160.5 c 128,-1,8
 251 -150 251 -150 176 -139 c 1,9,-1
 223 17 l 1,10,-1
 420 17 l 1,11,-1
 402 -44 l 1,12,13
 448 -56 448 -56 479 -72.5 c 128,-1,14
 510 -89 510 -89 528 -108.5 c 128,-1,15
 546 -128 546 -128 553.5 -151 c 128,-1,16
 561 -174 561 -174 561 -199 c 0,17,18
 561 -235 561 -235 541 -263.5 c 128,-1,19
 521 -292 521 -292 485.5 -312.5 c 128,-1,20
 450 -333 450 -333 399 -344 c 128,-1,21
 348 -355 348 -355 287 -355 c 0,22,23
 245 -355 245 -355 209.5 -351 c 128,-1,24
 174 -347 174 -347 135 -339 c 1,25,-1
 164 -243 l 2,26,27
 170 -215 170 -215 199 -215 c 0,0,1
EndSplineSet
Validated: 1
EndChar

StartChar: onesuperior
Encoding: 185 185 123
Width: 684
GlyphClass: 1
Flags: W
LayerCount: 2
Fore
SplineSet
154 1061 m 1,0,-1
 287 1061 l 1,1,-1
 287 1366 l 1,2,-1
 293 1421 l 1,3,-1
 242 1383 l 2,4,5
 222 1369 222 1369 199 1369 c 0,6,7
 181 1369 181 1369 166 1376.5 c 128,-1,8
 151 1384 151 1384 143 1394 c 2,9,-1
 74 1486 l 1,10,-1
 322 1690 l 1,11,-1
 512 1690 l 1,12,-1
 512 1061 l 1,13,-1
 616 1061 l 1,14,-1
 616 922 l 1,15,-1
 154 922 l 1,16,-1
 154 1061 l 1,0,-1
EndSplineSet
Validated: 1
EndChar

StartChar: ordmasculine
Encoding: 186 186 124
Width: 806
GlyphClass: 1
Flags: W
LayerCount: 2
Fore
SplineSet
406 1512 m 0,0,1
 483 1512 483 1512 547 1489.5 c 128,-1,2
 611 1467 611 1467 657 1424.5 c 128,-1,3
 703 1382 703 1382 729.5 1321.5 c 128,-1,4
 756 1261 756 1261 756 1184 c 0,5,6
 756 1106 756 1106 729.5 1044 c 128,-1,7
 703 982 703 982 657 939 c 128,-1,8
 611 896 611 896 546.5 873 c 128,-1,9
 482 850 482 850 406 850 c 0,10,11
 328 850 328 850 263 873 c 128,-1,12
 198 896 198 896 150.5 939 c 128,-1,13
 103 982 103 982 77 1044 c 128,-1,14
 51 1106 51 1106 51 1184 c 0,15,16
 51 1261 51 1261 77 1321.5 c 128,-1,17
 103 1382 103 1382 150.5 1424.5 c 128,-1,18
 198 1467 198 1467 263 1489.5 c 128,-1,19
 328 1512 328 1512 406 1512 c 0,0,1
406 1028 m 0,20,21
 458 1028 458 1028 483 1063.5 c 128,-1,22
 508 1099 508 1099 508 1182 c 256,23,24
 508 1265 508 1265 483 1299.5 c 128,-1,25
 458 1334 458 1334 406 1334 c 0,26,27
 349 1334 349 1334 324 1299.5 c 128,-1,28
 299 1265 299 1265 299 1182 c 256,29,30
 299 1099 299 1099 324 1063.5 c 128,-1,31
 349 1028 349 1028 406 1028 c 0,20,21
EndSplineSet
Validated: 1
EndChar

StartChar: guillemotright
Encoding: 187 187 125
Width: 1036
GlyphClass: 1
Flags: W
LayerCount: 2
Fore
SplineSet
287 126 m 1,0,-1
 182 173 l 2,1,2
 157 184 157 184 145.5 200.5 c 128,-1,3
 134 217 134 217 134 238 c 0,4,5
 134 263 134 263 150 289 c 2,6,-1
 272 510 l 2,7,8
 287 539 287 539 309 557 c 1,9,10
 299 566 299 566 290 578.5 c 128,-1,11
 281 591 281 591 272 605 c 2,12,-1
 150 825 l 2,13,14
 135 853 135 853 134 878 c 0,15,16
 134 898 134 898 146 914.5 c 128,-1,17
 158 931 158 931 182 942 c 2,18,-1
 287 989 l 1,19,-1
 555 578 l 1,20,-1
 555 538 l 1,21,-1
 287 126 l 1,0,-1
924 578 m 1,22,-1
 924 538 l 1,23,-1
 655 126 l 1,24,-1
 551 173 l 2,25,26
 526 184 526 184 514.5 200.5 c 128,-1,27
 503 217 503 217 503 238 c 0,28,29
 503 263 503 263 518 289 c 2,30,-1
 641 510 l 2,31,32
 656 539 656 539 678 557 c 1,33,34
 668 566 668 566 658.5 578.5 c 128,-1,35
 649 591 649 591 641 605 c 2,36,-1
 518 825 l 2,37,38
 503 853 503 853 503 878 c 0,39,40
 503 898 503 898 514.5 914.5 c 128,-1,41
 526 931 526 931 551 942 c 2,42,-1
 655 989 l 1,43,-1
 924 578 l 1,22,-1
EndSplineSet
Validated: 1
EndChar

StartChar: onequarter
Encoding: 188 188 126
Width: 1458
GlyphClass: 1
Flags: W
LayerCount: 2
Fore
SplineSet
1374 302 m 1,0,-1
 1456 302 l 1,1,-1
 1456 193 l 2,2,3
 1456 178 1456 178 1445 165.5 c 128,-1,4
 1434 153 1434 153 1415 153 c 2,5,-1
 1374 153 l 1,6,-1
 1374 0 l 1,7,-1
 1186 0 l 1,8,-1
 1186 153 l 1,9,-1
 905 153 l 2,10,11
 875 153 875 153 858.5 165.5 c 128,-1,12
 842 178 842 178 838 198 c 2,13,-1
 819 292 l 1,14,-1
 1155 768 l 1,15,-1
 1374 768 l 1,16,-1
 1374 302 l 1,0,-1
133 864 m 1,17,-1
 266 864 l 1,18,-1
 266 1169 l 1,19,-1
 272 1225 l 1,20,-1
 221 1187 l 2,21,22
 201 1173 201 1173 178 1172 c 0,23,24
 160 1172 160 1172 145 1180 c 128,-1,25
 130 1188 130 1188 123 1197 c 2,26,-1
 53 1289 l 1,27,-1
 301 1493 l 1,28,-1
 492 1493 l 1,29,-1
 492 864 l 1,30,-1
 596 864 l 1,31,-1
 596 725 l 1,32,-1
 133 725 l 1,33,-1
 133 864 l 1,17,-1
1186 414 m 2,34,35
 1186 441 1186 441 1187.5 472.5 c 128,-1,36
 1189 504 1189 504 1193 538 c 1,37,-1
 1023 302 l 1,38,-1
 1186 302 l 1,39,-1
 1186 414 l 2,34,35
487 87 m 2,40,41
 471 61 471 61 454 44.5 c 128,-1,42
 437 28 437 28 418 18 c 128,-1,43
 399 8 399 8 377.5 4 c 128,-1,44
 356 0 356 0 332 0 c 2,45,-1
 197 0 l 1,46,-1
 1065 1392 l 2,47,48
 1096 1440 1096 1440 1135 1466 c 128,-1,49
 1174 1492 1174 1492 1229 1492 c 2,50,-1
 1364 1492 l 1,51,-1
 487 87 l 2,40,41
EndSplineSet
Validated: 1
EndChar

StartChar: onehalf
Encoding: 189 189 127
Width: 1458
GlyphClass: 1
Flags: W
LayerCount: 2
Fore
SplineSet
1155 776 m 0,0,1
 1221 776 1221 776 1270.5 757.5 c 128,-1,2
 1320 739 1320 739 1353 707.5 c 128,-1,3
 1386 676 1386 676 1402.5 634.5 c 128,-1,4
 1419 593 1419 593 1419 547 c 0,5,6
 1419 505 1419 505 1406.5 470 c 128,-1,7
 1394 435 1394 435 1373 403.5 c 128,-1,8
 1352 372 1352 372 1324 342 c 128,-1,9
 1296 312 1296 312 1268 282 c 2,10,-1
 1164 176 l 1,11,12
 1198 186 1198 186 1231 192.5 c 128,-1,13
 1264 199 1264 199 1290 199 c 2,14,-1
 1360 199 l 2,15,16
 1396 199 1396 199 1416 180 c 128,-1,17
 1436 161 1436 161 1436 129 c 2,18,-1
 1436 0 l 1,19,-1
 852 0 l 1,20,-1
 852 71 l 2,21,22
 852 91 852 91 860 114.5 c 128,-1,23
 868 138 868 138 889 158 c 2,24,-1
 1092 356 l 2,25,26
 1112 376 1112 376 1130 400.5 c 128,-1,27
 1148 425 1148 425 1161.5 449 c 128,-1,28
 1175 473 1175 473 1182.5 496 c 128,-1,29
 1190 519 1190 519 1190 539 c 0,30,31
 1190 564 1190 564 1179.5 582.5 c 128,-1,32
 1169 601 1169 601 1143 601 c 0,33,34
 1121 601 1121 601 1108.5 591 c 128,-1,35
 1096 581 1096 581 1083 558 c 0,36,37
 1069 538 1069 538 1053.5 526 c 128,-1,38
 1038 514 1038 514 1010 514 c 0,39,40
 996 514 996 514 979 517 c 2,41,-1
 852 537 l 1,42,43
 861 599 861 599 886.5 644 c 128,-1,44
 912 689 912 689 951.5 718.5 c 128,-1,45
 991 748 991 748 1043 762 c 128,-1,46
 1095 776 1095 776 1155 776 c 0,0,1
133 864 m 1,47,-1
 266 864 l 1,48,-1
 266 1169 l 1,49,-1
 272 1225 l 1,50,-1
 221 1187 l 2,51,52
 201 1173 201 1173 178 1172 c 0,53,54
 160 1172 160 1172 145 1180 c 128,-1,55
 130 1188 130 1188 123 1197 c 2,56,-1
 53 1289 l 1,57,-1
 301 1493 l 1,58,-1
 492 1493 l 1,59,-1
 492 864 l 1,60,-1
 596 864 l 1,61,-1
 596 725 l 1,62,-1
 133 725 l 1,63,-1
 133 864 l 1,47,-1
449 87 m 2,64,65
 433 61 433 61 415.5 44.5 c 128,-1,66
 398 28 398 28 379 18 c 128,-1,67
 360 8 360 8 338.5 4 c 128,-1,68
 317 0 317 0 293 0 c 2,69,-1
 158 0 l 1,70,-1
 1026 1392 l 2,71,72
 1057 1440 1057 1440 1096 1466 c 128,-1,73
 1135 1492 1135 1492 1190 1492 c 2,74,-1
 1325 1492 l 1,75,-1
 449 87 l 2,64,65
EndSplineSet
Validated: 1
EndChar

StartChar: threequarters
Encoding: 190 190 128
Width: 1458
GlyphClass: 1
Flags: W
LayerCount: 2
Fore
SplineSet
1374 302 m 1,0,-1
 1456 302 l 1,1,-1
 1456 193 l 2,2,3
 1456 178 1456 178 1445 165.5 c 128,-1,4
 1434 153 1434 153 1415 153 c 2,5,-1
 1374 153 l 1,6,-1
 1374 0 l 1,7,-1
 1186 0 l 1,8,-1
 1186 153 l 1,9,-1
 905 153 l 2,10,11
 875 153 875 153 858.5 165.5 c 128,-1,12
 842 178 842 178 838 198 c 2,13,-1
 819 292 l 1,14,-1
 1155 768 l 1,15,-1
 1374 768 l 1,16,-1
 1374 302 l 1,0,-1
352 1501 m 0,17,18
 415 1501 415 1501 464 1483 c 128,-1,19
 513 1465 513 1465 545.5 1436 c 128,-1,20
 578 1407 578 1407 594 1371 c 128,-1,21
 610 1335 610 1335 610 1299 c 0,22,23
 610 1236 610 1236 586 1191.5 c 128,-1,24
 562 1147 562 1147 506 1120 c 1,25,26
 564 1101 564 1101 593.5 1065 c 128,-1,27
 623 1029 623 1029 623 971 c 0,28,29
 623 903 623 903 597.5 855 c 128,-1,30
 572 807 572 807 532.5 776 c 128,-1,31
 493 745 493 745 442.5 731 c 128,-1,32
 392 717 392 717 342 717 c 0,33,34
 289 717 289 717 244.5 725.5 c 128,-1,35
 200 734 200 734 163 758 c 128,-1,36
 126 782 126 782 97 823 c 128,-1,37
 68 864 68 864 45 929 c 1,38,-1
 143 968 l 2,39,40
 169 977 169 977 193 977 c 0,41,42
 241 977 241 977 258 944 c 0,43,44
 272 917 272 917 291.5 907 c 128,-1,45
 311 897 311 897 330 897 c 0,46,47
 361 897 361 897 378 915 c 128,-1,48
 395 933 395 933 395 963 c 0,49,50
 395 989 395 989 389.5 1004 c 128,-1,51
 384 1019 384 1019 369 1027 c 128,-1,52
 354 1035 354 1035 329 1037.5 c 128,-1,53
 304 1040 304 1040 266 1040 c 1,54,-1
 266 1184 l 1,55,56
 307 1184 307 1184 332 1189 c 128,-1,57
 357 1194 357 1194 371 1203 c 128,-1,58
 385 1212 385 1212 389 1226.5 c 128,-1,59
 393 1241 393 1241 393 1260 c 0,60,61
 393 1287 393 1287 383 1304.5 c 128,-1,62
 373 1322 373 1322 340 1322 c 0,63,64
 315 1322 315 1322 302.5 1313 c 128,-1,65
 290 1304 290 1304 281 1285 c 0,66,67
 268 1261 268 1261 254 1250 c 128,-1,68
 240 1239 240 1239 214 1239 c 0,69,70
 200 1239 200 1239 180 1242 c 2,71,-1
 63 1262 l 1,72,73
 72 1324 72 1324 98 1369 c 128,-1,74
 124 1414 124 1414 162 1443.5 c 128,-1,75
 200 1473 200 1473 248.5 1487 c 128,-1,76
 297 1501 297 1501 352 1501 c 0,17,18
1186 414 m 2,77,78
 1186 441 1186 441 1187.5 472.5 c 128,-1,79
 1189 504 1189 504 1193 538 c 1,80,-1
 1023 302 l 1,81,-1
 1186 302 l 1,82,-1
 1186 414 l 2,77,78
487 87 m 2,83,84
 471 61 471 61 454 44.5 c 128,-1,85
 437 28 437 28 418 18 c 128,-1,86
 399 8 399 8 377.5 4 c 128,-1,87
 356 0 356 0 332 0 c 2,88,-1
 197 0 l 1,89,-1
 1065 1392 l 2,90,91
 1096 1440 1096 1440 1135 1466 c 128,-1,92
 1174 1492 1174 1492 1229 1492 c 2,93,-1
 1364 1492 l 1,94,-1
 487 87 l 2,83,84
EndSplineSet
Validated: 1
EndChar

StartChar: questiondown
Encoding: 191 191 129
Width: 903
GlyphClass: 1
Flags: W
LayerCount: 2
Fore
SplineSet
885 -201 m 1,0,1
 846 -233 846 -233 802 -260.5 c 128,-1,2
 758 -288 758 -288 706.5 -309 c 128,-1,3
 655 -330 655 -330 596.5 -341.5 c 128,-1,4
 538 -353 538 -353 469 -353 c 0,5,6
 373 -353 373 -353 295.5 -328.5 c 128,-1,7
 218 -304 218 -304 164 -258.5 c 128,-1,8
 110 -213 110 -213 80.5 -147.5 c 128,-1,9
 51 -82 51 -82 51 0 c 0,10,11
 51 78 51 78 72.5 132 c 128,-1,12
 94 186 94 186 127.5 223.5 c 128,-1,13
 161 261 161 261 200.5 287 c 128,-1,14
 240 313 240 313 275 335 c 128,-1,15
 310 357 310 357 336 380 c 128,-1,16
 362 403 362 403 369 436 c 2,17,-1
 397 579 l 1,18,-1
 614 579 l 1,19,-1
 637 415 l 2,20,21
 638 406 638 406 638.5 399 c 128,-1,22
 639 392 639 392 639 386 c 0,23,24
 639 339 639 339 617.5 307 c 128,-1,25
 596 275 596 275 563 251.5 c 128,-1,26
 530 228 530 228 492.5 208 c 128,-1,27
 455 188 455 188 422 164 c 128,-1,28
 389 140 389 140 367.5 108 c 128,-1,29
 346 76 346 76 346 28 c 0,30,31
 346 -33 346 -33 386.5 -69.5 c 128,-1,32
 427 -106 427 -106 498 -106 c 0,33,34
 551 -106 551 -106 588 -95 c 128,-1,35
 625 -84 625 -84 651 -70 c 128,-1,36
 677 -56 677 -56 696.5 -45 c 128,-1,37
 716 -34 716 -34 735 -34 c 0,38,39
 779 -34 779 -34 801 -72 c 2,40,-1
 885 -201 l 1,0,1
332 904 m 256,41,42
 332 941 332 941 345.5 973 c 128,-1,43
 359 1005 359 1005 383.5 1028.5 c 128,-1,44
 408 1052 408 1052 440.5 1065.5 c 128,-1,45
 473 1079 473 1079 512 1079 c 0,46,47
 550 1079 550 1079 582.5 1065.5 c 128,-1,48
 615 1052 615 1052 640 1028.5 c 128,-1,49
 665 1005 665 1005 678.5 973 c 128,-1,50
 692 941 692 941 692 904 c 256,51,52
 692 867 692 867 678.5 835 c 128,-1,53
 665 803 665 803 640 779.5 c 128,-1,54
 615 756 615 756 582.5 742.5 c 128,-1,55
 550 729 550 729 512 729 c 0,56,57
 473 729 473 729 440.5 742.5 c 128,-1,58
 408 756 408 756 383.5 779.5 c 128,-1,59
 359 803 359 803 345.5 835 c 128,-1,60
 332 867 332 867 332 904 c 256,41,42
EndSplineSet
Validated: 1
EndChar

StartChar: AE
Encoding: 198 198 136
Width: 1921
GlyphClass: 1
Flags: W
LayerCount: 2
Fore
SplineSet
700 1492 m 1,0,-1
 1847 1492 l 1,1,-1
 1847 1226 l 1,2,-1
 1187 1226 l 1,3,-1
 1229 878 l 1,4,-1
 1704 878 l 1,5,-1
 1704 622 l 1,6,-1
 1260 622 l 1,7,-1
 1303 266 l 1,8,-1
 1847 266 l 1,9,-1
 1847 0 l 1,10,-1
 1008 0 l 1,11,-1
 967 335 l 1,12,-1
 472 335 l 1,13,-1
 358 75 l 2,14,15
 344 41 344 41 309.5 20.5 c 128,-1,16
 275 0 275 0 229 0 c 2,17,-1
 -33 0 l 1,18,-1
 700 1492 l 1,0,-1
575 570 m 1,19,-1
 938 570 l 1,20,-1
 858 1238 l 1,21,22
 838 1178 838 1178 817.5 1125.5 c 128,-1,23
 797 1073 797 1073 776 1029 c 2,24,-1
 575 570 l 1,19,-1
EndSplineSet
Validated: 1
EndChar

StartChar: Ccedilla
Encoding: 199 199 137
Width: 1345
GlyphClass: 1
Flags: W
LayerCount: 2
Fore
SplineSet
637 -215 m 0,0,1
 652 -215 652 -215 666.5 -219 c 128,-1,2
 681 -223 681 -223 702 -223 c 0,3,4
 729 -223 729 -223 740.5 -213.5 c 128,-1,5
 752 -204 752 -204 752 -193 c 0,6,7
 752 -171 752 -171 720.5 -160.5 c 128,-1,8
 689 -150 689 -150 614 -139 c 1,9,-1
 653 -9 l 1,10,11
 508 9 508 9 394 73 c 128,-1,12
 280 137 280 137 200.5 236.5 c 128,-1,13
 121 336 121 336 79 466 c 128,-1,14
 37 596 37 596 37 746 c 0,15,16
 37 913 37 913 94.5 1053 c 128,-1,17
 152 1193 152 1193 254.5 1294.5 c 128,-1,18
 357 1396 357 1396 500.5 1452 c 128,-1,19
 644 1508 644 1508 817 1508 c 0,20,21
 901 1508 901 1508 975.5 1493.5 c 128,-1,22
 1050 1479 1050 1479 1114.5 1452.5 c 128,-1,23
 1179 1426 1179 1426 1233 1390 c 128,-1,24
 1287 1354 1287 1354 1329 1310 c 1,25,-1
 1212 1153 l 2,26,27
 1201 1139 1201 1139 1185.5 1127 c 128,-1,28
 1170 1115 1170 1115 1143 1115 c 0,29,30
 1125 1115 1125 1115 1108.5 1123.5 c 128,-1,31
 1092 1132 1092 1132 1073.5 1143.5 c 128,-1,32
 1055 1155 1055 1155 1033 1169 c 128,-1,33
 1011 1183 1011 1183 980.5 1194.5 c 128,-1,34
 950 1206 950 1206 909.5 1214.5 c 128,-1,35
 869 1223 869 1223 815 1223 c 0,36,37
 721 1223 721 1223 643 1189.5 c 128,-1,38
 565 1156 565 1156 509.5 1094 c 128,-1,39
 454 1032 454 1032 422.5 944 c 128,-1,40
 391 856 391 856 391 746 c 0,41,42
 391 631 391 631 422.5 542.5 c 128,-1,43
 454 454 454 454 507.5 393 c 128,-1,44
 561 332 561 332 633 300 c 128,-1,45
 705 268 705 268 786 268 c 0,46,47
 833 268 833 268 872 273 c 128,-1,48
 911 278 911 278 944.5 289 c 128,-1,49
 978 300 978 300 1008 318 c 128,-1,50
 1038 336 1038 336 1069 362 c 0,51,52
 1081 372 1081 372 1095.5 379 c 128,-1,53
 1110 386 1110 386 1125 386 c 0,54,55
 1137 386 1137 386 1149.5 381.5 c 128,-1,56
 1162 377 1162 377 1174 366 c 2,57,-1
 1311 221 l 1,58,59
 1232 118 1232 118 1116.5 59 c 128,-1,60
 1001 0 1001 0 849 -12 c 1,61,-1
 841 -44 l 1,62,63
 887 -56 887 -56 917.5 -72.5 c 128,-1,64
 948 -89 948 -89 966 -108.5 c 128,-1,65
 984 -128 984 -128 991.5 -151 c 128,-1,66
 999 -174 999 -174 999 -199 c 0,67,68
 999 -235 999 -235 979 -263.5 c 128,-1,69
 959 -292 959 -292 923.5 -312.5 c 128,-1,70
 888 -333 888 -333 837 -344 c 128,-1,71
 786 -355 786 -355 725 -355 c 0,72,73
 683 -355 683 -355 647.5 -351 c 128,-1,74
 612 -347 612 -347 573 -339 c 1,75,-1
 602 -243 l 2,76,77
 608 -215 608 -215 637 -215 c 0,0,1
EndSplineSet
Validated: 1
EndChar

StartChar: Eth
Encoding: 208 208 146
Width: 1622
GlyphClass: 1
Flags: W
LayerCount: 2
Fore
SplineSet
55 843 m 1,0,-1
 225 843 l 1,1,-1
 225 1492 l 1,2,-1
 805 1492 l 2,3,4
 979 1492 979 1492 1122 1435.5 c 128,-1,5
 1265 1379 1265 1379 1366 1280 c 128,-1,6
 1467 1181 1467 1181 1523 1044 c 128,-1,7
 1579 907 1579 907 1579 746 c 0,8,9
 1579 584 1579 584 1523 447.5 c 128,-1,10
 1467 311 1467 311 1366 211.5 c 128,-1,11
 1265 112 1265 112 1122 56 c 128,-1,12
 979 0 979 0 805 0 c 2,13,-1
 225 0 l 1,14,-1
 225 654 l 1,15,-1
 55 654 l 1,16,-1
 55 843 l 1,0,-1
1225 746 m 0,17,18
 1225 857 1225 857 1196 946 c 128,-1,19
 1167 1035 1167 1035 1113.5 1097 c 128,-1,20
 1060 1159 1060 1159 982 1192.5 c 128,-1,21
 904 1226 904 1226 805 1226 c 2,22,-1
 573 1226 l 1,23,-1
 573 843 l 1,24,-1
 926 843 l 1,25,-1
 926 654 l 1,26,-1
 573 654 l 1,27,-1
 573 266 l 1,28,-1
 805 266 l 2,29,30
 904 266 904 266 982 299.5 c 128,-1,31
 1060 333 1060 333 1113.5 395 c 128,-1,32
 1167 457 1167 457 1196 545.5 c 128,-1,33
 1225 634 1225 634 1225 746 c 0,17,18
EndSplineSet
Validated: 1
EndChar

StartChar: multiply
Encoding: 215 215 153
Width: 1187
GlyphClass: 1
Flags: W
LayerCount: 2
Fore
SplineSet
1073 1006 m 1,0,-1
 756 688 l 1,1,-1
 1094 351 l 1,2,-1
 926 190 l 1,3,-1
 592 524 l 1,4,-1
 256 188 l 1,5,-1
 88 349 l 1,6,-1
 427 688 l 1,7,-1
 109 1008 l 1,8,-1
 274 1168 l 1,9,-1
 591 852 l 1,10,-1
 905 1166 l 1,11,-1
 1073 1006 l 1,0,-1
EndSplineSet
Validated: 1
EndChar

StartChar: Oslash
Encoding: 216 216 154
Width: 1638
GlyphClass: 1
Flags: W
LayerCount: 2
Fore
SplineSet
1595 746 m 0,0,1
 1595 584 1595 584 1539.5 445 c 128,-1,2
 1484 306 1484 306 1382.5 203 c 128,-1,3
 1281 100 1281 100 1138 42 c 128,-1,4
 995 -16 995 -16 821 -16 c 0,5,6
 725 -16 725 -16 639 1.5 c 128,-1,7
 553 19 553 19 476 53 c 1,8,-1
 418 -28 l 2,9,10
 401 -53 401 -53 378 -69.5 c 128,-1,11
 355 -86 355 -86 330.5 -96 c 128,-1,12
 306 -106 306 -106 280 -111 c 128,-1,13
 254 -116 254 -116 229 -116 c 2,14,-1
 94 -116 l 1,15,-1
 298 167 l 1,16,17
 177 271 177 271 111 419.5 c 128,-1,18
 45 568 45 568 45 746 c 0,19,20
 45 908 45 908 101 1047.5 c 128,-1,21
 157 1187 157 1187 258.5 1289.5 c 128,-1,22
 360 1392 360 1392 503.5 1450 c 128,-1,23
 647 1508 647 1508 821 1508 c 0,24,25
 929 1508 929 1508 1023.5 1485.5 c 128,-1,26
 1118 1463 1118 1463 1201 1420 c 1,27,-1
 1243 1479 l 2,28,29
 1259 1502 1259 1502 1273 1517 c 128,-1,30
 1287 1532 1287 1532 1302.5 1541.5 c 128,-1,31
 1318 1551 1318 1551 1337.5 1555.5 c 128,-1,32
 1357 1560 1357 1560 1384 1560 c 2,33,-1
 1561 1560 l 1,34,-1
 1372 1298 l 1,35,36
 1480 1194 1480 1194 1537.5 1052.5 c 128,-1,37
 1595 911 1595 911 1595 746 c 0,0,1
399 746 m 0,38,39
 399 549 399 549 485 428 c 1,40,-1
 1025 1177 l 1,41,42
 982 1200 982 1200 931 1211.5 c 128,-1,43
 880 1223 880 1223 821 1223 c 0,44,45
 721 1223 721 1223 642.5 1190 c 128,-1,46
 564 1157 564 1157 510.5 1095.5 c 128,-1,47
 457 1034 457 1034 428 945.5 c 128,-1,48
 399 857 399 857 399 746 c 0,38,39
1241 746 m 0,49,50
 1241 829 1241 829 1224.5 900 c 128,-1,51
 1208 971 1208 971 1178 1027 c 1,52,-1
 653 299 l 1,53,54
 726 270 726 270 821 270 c 0,55,56
 920 270 920 270 998 302.5 c 128,-1,57
 1076 335 1076 335 1130 396.5 c 128,-1,58
 1184 458 1184 458 1212.5 546 c 128,-1,59
 1241 634 1241 634 1241 746 c 0,49,50
EndSplineSet
Validated: 1
EndChar

StartChar: Thorn
Encoding: 222 222 160
Width: 1306
GlyphClass: 1
Flags: W
LayerCount: 2
Fore
SplineSet
469 258 m 1,0,-1
 469 0 l 1,1,-1
 123 0 l 1,2,-1
 123 1492 l 1,3,-1
 469 1492 l 1,4,-1
 469 1251 l 1,5,-1
 649 1251 l 2,6,7
 807 1251 807 1251 920 1214 c 128,-1,8
 1033 1177 1033 1177 1106.5 1111.5 c 128,-1,9
 1180 1046 1180 1046 1214.5 956.5 c 128,-1,10
 1249 867 1249 867 1249 764 c 0,11,12
 1249 652 1249 652 1213.5 559 c 128,-1,13
 1178 466 1178 466 1104 399.5 c 128,-1,14
 1030 333 1030 333 917 295.5 c 128,-1,15
 804 258 804 258 649 258 c 2,16,-1
 469 258 l 1,0,-1
469 519 m 1,17,-1
 649 519 l 2,18,19
 784 519 784 519 843.5 583.5 c 128,-1,20
 903 648 903 648 903 764 c 0,21,22
 903 815 903 815 887.5 857 c 128,-1,23
 872 899 872 899 841 929 c 128,-1,24
 810 959 810 959 762.5 975.5 c 128,-1,25
 715 992 715 992 649 992 c 2,26,-1
 469 992 l 1,27,-1
 469 519 l 1,17,-1
EndSplineSet
Validated: 1
EndChar

StartChar: germandbls
Encoding: 223 223 161
Width: 1347
GlyphClass: 1
Flags: W
LayerCount: 2
Fore
SplineSet
741 1521 m 0,0,1
 874 1521 874 1521 966.5 1483 c 128,-1,2
 1059 1445 1059 1445 1115.5 1388.5 c 128,-1,3
 1172 1332 1172 1332 1197.5 1268.5 c 128,-1,4
 1223 1205 1223 1205 1223 1153 c 0,5,6
 1223 1096 1223 1096 1204.5 1055 c 128,-1,7
 1186 1014 1186 1014 1158 984 c 128,-1,8
 1130 954 1130 954 1098.5 932 c 128,-1,9
 1067 910 1067 910 1039.5 890.5 c 128,-1,10
 1012 871 1012 871 993.5 851 c 128,-1,11
 975 831 975 831 975 805 c 0,12,13
 975 776 975 776 999 753 c 128,-1,14
 1023 730 1023 730 1058.5 705.5 c 128,-1,15
 1094 681 1094 681 1136 652.5 c 128,-1,16
 1178 624 1178 624 1213 583.5 c 128,-1,17
 1248 543 1248 543 1272 487 c 128,-1,18
 1296 431 1296 431 1296 353 c 0,19,20
 1296 260 1296 260 1261 191 c 128,-1,21
 1226 122 1226 122 1167.5 76 c 128,-1,22
 1109 30 1109 30 1032 7 c 128,-1,23
 955 -16 955 -16 872 -16 c 0,24,25
 827 -16 827 -16 780 -6 c 128,-1,26
 733 4 733 4 688.5 21.5 c 128,-1,27
 644 39 644 39 604.5 63 c 128,-1,28
 565 87 565 87 535 115 c 1,29,-1
 608 231 l 2,30,31
 621 251 621 251 639.5 263 c 128,-1,32
 658 275 658 275 688 275 c 0,33,34
 716 275 716 275 738.5 263 c 128,-1,35
 761 251 761 251 784 236.5 c 128,-1,36
 807 222 807 222 834.5 210 c 128,-1,37
 862 198 862 198 901 198 c 0,38,39
 941 198 941 198 970 227 c 128,-1,40
 999 256 999 256 999 304 c 0,41,42
 999 345 999 345 972.5 373.5 c 128,-1,43
 946 402 946 402 906 427 c 128,-1,44
 866 452 866 452 820 477 c 128,-1,45
 774 502 774 502 734 537 c 128,-1,46
 694 572 694 572 667.5 621 c 128,-1,47
 641 670 641 670 641 742 c 0,48,49
 641 803 641 803 661 847.5 c 128,-1,50
 681 892 681 892 711.5 924 c 128,-1,51
 742 956 742 956 777 982 c 128,-1,52
 812 1008 812 1008 842.5 1032.5 c 128,-1,53
 873 1057 873 1057 893 1085 c 128,-1,54
 913 1113 913 1113 913 1151 c 0,55,56
 913 1220 913 1220 868.5 1259 c 128,-1,57
 824 1298 824 1298 727 1298 c 0,58,59
 662 1298 662 1298 616.5 1277 c 128,-1,60
 571 1256 571 1256 542.5 1217 c 128,-1,61
 514 1178 514 1178 500.5 1120.5 c 128,-1,62
 487 1063 487 1063 487 991 c 2,63,-1
 487 0 l 1,64,-1
 170 0 l 1,65,-1
 170 1001 l 2,66,67
 170 1111 170 1111 208.5 1205.5 c 128,-1,68
 247 1300 247 1300 320.5 1370.5 c 128,-1,69
 394 1441 394 1441 500 1481 c 128,-1,70
 606 1521 606 1521 741 1521 c 0,0,1
EndSplineSet
Validated: 1
EndChar

StartChar: ae
Encoding: 230 230 168
Width: 1708
GlyphClass: 1
Flags: W
LayerCount: 2
Fore
SplineSet
1208 1078 m 0,0,1
 1302 1078 1302 1078 1383 1042.5 c 128,-1,2
 1464 1007 1464 1007 1523 940.5 c 128,-1,3
 1582 874 1582 874 1615.5 780.5 c 128,-1,4
 1649 687 1649 687 1649 571 c 0,5,6
 1649 535 1649 535 1645.5 512.5 c 128,-1,7
 1642 490 1642 490 1634.5 477 c 128,-1,8
 1627 464 1627 464 1614 459 c 128,-1,9
 1601 454 1601 454 1579 454 c 2,10,-1
 995 454 l 1,11,12
 1012 332 1012 332 1074.5 276.5 c 128,-1,13
 1137 221 1137 221 1231 221 c 0,14,15
 1300 221 1300 221 1340 233.5 c 128,-1,16
 1380 246 1380 246 1406.5 260 c 128,-1,17
 1433 274 1433 274 1451.5 286.5 c 128,-1,18
 1470 299 1470 299 1497 299 c 0,19,20
 1541 299 1541 299 1561 271 c 2,21,-1
 1647 166 l 1,22,23
 1598 110 1598 110 1542 74.5 c 128,-1,24
 1486 39 1486 39 1427.5 19 c 128,-1,25
 1369 -1 1369 -1 1311 -8.5 c 128,-1,26
 1253 -16 1253 -16 1200 -16 c 0,27,28
 1148 -16 1148 -16 1097 -5.5 c 128,-1,29
 1046 5 1046 5 998.5 28 c 128,-1,30
 951 51 951 51 909.5 87 c 128,-1,31
 868 123 868 123 835 172 c 1,32,33
 802 123 802 123 756.5 87 c 128,-1,34
 711 51 711 51 656.5 28 c 128,-1,35
 602 5 602 5 540.5 -5.5 c 128,-1,36
 479 -16 479 -16 414 -16 c 0,37,38
 250 -16 250 -16 161 63.5 c 128,-1,39
 72 143 72 143 72 288 c 0,40,41
 72 326 72 326 84 366 c 128,-1,42
 96 406 96 406 124.5 444 c 128,-1,43
 153 482 153 482 199.5 516.5 c 128,-1,44
 246 551 246 551 315 577.5 c 128,-1,45
 384 604 384 604 477 620.5 c 128,-1,46
 570 637 570 637 692 640 c 1,47,-1
 692 664 l 2,48,49
 692 757 692 757 653.5 803 c 128,-1,50
 615 849 615 849 545 849 c 0,51,52
 489 849 489 849 453 835 c 128,-1,53
 417 821 417 821 388.5 804 c 128,-1,54
 360 787 360 787 333.5 773.5 c 128,-1,55
 307 760 307 760 270 760 c 0,56,57
 237 760 237 760 214 776 c 128,-1,58
 191 792 191 792 178 815 c 2,59,-1
 121 914 l 1,60,61
 217 999 217 999 321.5 1040.5 c 128,-1,62
 426 1082 426 1082 551 1082 c 0,63,64
 667 1082 667 1082 743.5 1042 c 128,-1,65
 820 1002 820 1002 863 932 c 1,66,67
 923 1000 923 1000 1009 1039 c 128,-1,68
 1095 1078 1095 1078 1208 1078 c 0,0,1
1194 859 m 0,69,70
 1104 859 1104 859 1055.5 802 c 128,-1,71
 1007 745 1007 745 993 638 c 1,72,-1
 1366 638 l 1,73,74
 1366 676 1366 676 1357.5 715.5 c 128,-1,75
 1349 755 1349 755 1329 786.5 c 128,-1,76
 1309 818 1309 818 1275.5 838.5 c 128,-1,77
 1242 859 1242 859 1194 859 c 0,69,70
692 454 m 1,78,79
 597 449 597 449 535.5 435 c 128,-1,80
 474 421 474 421 438 400.5 c 128,-1,81
 402 380 402 380 388.5 355 c 128,-1,82
 375 330 375 330 375 303 c 0,83,84
 375 248 375 248 404.5 221 c 128,-1,85
 434 194 434 194 492 194 c 0,86,87
 535 194 535 194 571.5 206.5 c 128,-1,88
 608 219 608 219 635 247.5 c 128,-1,89
 662 276 662 276 677 323 c 128,-1,90
 692 370 692 370 692 437 c 2,91,-1
 692 454 l 1,78,79
EndSplineSet
Validated: 1
EndChar

StartChar: ccedilla
Encoding: 231 231 169
Width: 995
GlyphClass: 1
Flags: W
LayerCount: 2
Fore
SplineSet
420 -215 m 0,0,1
 435 -215 435 -215 449.5 -219 c 128,-1,2
 464 -223 464 -223 485 -223 c 0,3,4
 512 -223 512 -223 523.5 -213.5 c 128,-1,5
 535 -204 535 -204 535 -193 c 0,6,7
 535 -171 535 -171 503.5 -160.5 c 128,-1,8
 472 -150 472 -150 397 -139 c 1,9,-1
 437 -5 l 1,10,11
 357 11 357 11 287 55 c 128,-1,12
 217 99 217 99 165 168 c 128,-1,13
 113 237 113 237 83 328.5 c 128,-1,14
 53 420 53 420 53 534 c 0,15,16
 53 649 53 649 87.5 748.5 c 128,-1,17
 122 848 122 848 189 921 c 128,-1,18
 256 994 256 994 355 1036 c 128,-1,19
 454 1078 454 1078 584 1078 c 0,20,21
 709 1078 709 1078 803 1038 c 128,-1,22
 897 998 897 998 973 922 c 1,23,-1
 889 810 l 2,24,25
 875 793 875 793 861.5 782.5 c 128,-1,26
 848 772 848 772 823 772 c 0,27,28
 799 772 799 772 780.5 783.5 c 128,-1,29
 762 795 762 795 738.5 808.5 c 128,-1,30
 715 822 715 822 683 833.5 c 128,-1,31
 651 845 651 845 604 845 c 0,32,33
 546 845 546 845 503.5 823.5 c 128,-1,34
 461 802 461 802 433.5 762 c 128,-1,35
 406 722 406 722 392.5 664 c 128,-1,36
 379 606 379 606 379 534 c 0,37,38
 379 381 379 381 438 299 c 128,-1,39
 497 217 497 217 600 217 c 0,40,41
 655 217 655 217 687.5 231 c 128,-1,42
 720 245 720 245 742.5 262 c 128,-1,43
 765 279 765 279 784 293 c 128,-1,44
 803 307 803 307 831 307 c 0,45,46
 869 307 869 307 889 280 c 2,47,-1
 981 166 l 1,48,49
 942 121 942 121 899.5 89.5 c 128,-1,50
 857 58 857 58 812.5 37.5 c 128,-1,51
 768 17 768 17 723 5.5 c 128,-1,52
 678 -6 678 -6 633 -11 c 1,53,-1
 624 -44 l 1,54,55
 670 -56 670 -56 700.5 -72.5 c 128,-1,56
 731 -89 731 -89 749 -108.5 c 128,-1,57
 767 -128 767 -128 774.5 -151 c 128,-1,58
 782 -174 782 -174 782 -199 c 0,59,60
 782 -235 782 -235 762 -263.5 c 128,-1,61
 742 -292 742 -292 706.5 -312.5 c 128,-1,62
 671 -333 671 -333 620 -344 c 128,-1,63
 569 -355 569 -355 508 -355 c 0,64,65
 466 -355 466 -355 430.5 -351 c 128,-1,66
 395 -347 395 -347 356 -339 c 1,67,-1
 385 -243 l 2,68,69
 391 -215 391 -215 420 -215 c 0,0,1
EndSplineSet
Validated: 1
EndChar

StartChar: eth
Encoding: 240 240 178
Width: 1189
GlyphClass: 1
Flags: W
LayerCount: 2
Fore
SplineSet
367 1084 m 2,0,1
 354 1106 354 1106 353 1125 c 0,2,3
 353 1142 353 1142 364 1158 c 128,-1,4
 375 1174 375 1174 395 1183 c 2,5,-1
 442 1205 l 1,6,7
 422 1212 422 1212 401.5 1219 c 128,-1,8
 381 1226 381 1226 358 1232 c 0,9,10
 326 1240 326 1240 306.5 1262 c 128,-1,11
 287 1284 287 1284 287 1321 c 0,12,13
 287 1346 287 1346 297 1375 c 2,14,-1
 334 1481 l 1,15,16
 443 1464 443 1464 542 1431 c 128,-1,17
 641 1398 641 1398 728 1348 c 1,18,-1
 915 1457 l 1,19,-1
 979 1357 l 2,20,21
 990 1340 990 1340 990 1320 c 0,22,23
 990 1303 990 1303 981 1288 c 128,-1,24
 972 1273 972 1273 954 1265 c 2,25,-1
 887 1231 l 1,26,27
 999 1126 999 1126 1062.5 975.5 c 128,-1,28
 1126 825 1126 825 1126 626 c 0,29,30
 1126 472 1126 472 1090 352.5 c 128,-1,31
 1054 233 1054 233 983.5 151 c 128,-1,32
 913 69 913 69 811 26.5 c 128,-1,33
 709 -16 709 -16 578 -16 c 0,34,35
 466 -16 466 -16 370.5 18 c 128,-1,36
 275 52 275 52 205.5 117.5 c 128,-1,37
 136 183 136 183 96.5 277.5 c 128,-1,38
 57 372 57 372 57 492 c 0,39,40
 57 584 57 584 91.5 668.5 c 128,-1,41
 126 753 126 753 189 817.5 c 128,-1,42
 252 882 252 882 340 919.5 c 128,-1,43
 428 957 428 957 535 957 c 0,44,45
 627 957 627 957 699 928.5 c 128,-1,46
 771 900 771 900 829 848 c 1,47,48
 809 932 809 932 765 996.5 c 128,-1,49
 721 1061 721 1061 643 1113 c 1,50,-1
 426 986 l 1,51,-1
 367 1084 l 2,0,1
586 217 m 0,52,53
 632 217 632 217 674 234 c 128,-1,54
 716 251 716 251 749 291.5 c 128,-1,55
 782 332 782 332 802.5 401 c 128,-1,56
 823 470 823 470 826 574 c 1,57,58
 796 639 796 639 741.5 681.5 c 128,-1,59
 687 724 687 724 600 724 c 0,60,61
 545 724 545 724 502.5 705.5 c 128,-1,62
 460 687 460 687 431 655.5 c 128,-1,63
 402 624 402 624 387.5 581.5 c 128,-1,64
 373 539 373 539 373 489 c 0,65,66
 373 422 373 422 389.5 371.5 c 128,-1,67
 406 321 406 321 434.5 286.5 c 128,-1,68
 463 252 463 252 502 234.5 c 128,-1,69
 541 217 541 217 586 217 c 0,52,53
EndSplineSet
Validated: 1
EndChar

StartChar: divide
Encoding: 247 247 185
Width: 1187
GlyphClass: 1
Flags: W
LayerCount: 2
Fore
SplineSet
86 802 m 1,0,-1
 1100 802 l 1,1,-1
 1100 574 l 1,2,-1
 86 574 l 1,3,-1
 86 802 l 1,0,-1
412 1053 m 256,4,5
 412 1090 412 1090 425.5 1121.5 c 128,-1,6
 439 1153 439 1153 463 1176.5 c 128,-1,7
 487 1200 487 1200 520 1214 c 128,-1,8
 553 1228 553 1228 592 1228 c 0,9,10
 630 1228 630 1228 662.5 1214 c 128,-1,11
 695 1200 695 1200 719.5 1176.5 c 128,-1,12
 744 1153 744 1153 758 1121.5 c 128,-1,13
 772 1090 772 1090 772 1053 c 256,14,15
 772 1016 772 1016 758 983.5 c 128,-1,16
 744 951 744 951 719.5 927.5 c 128,-1,17
 695 904 695 904 662.5 891 c 128,-1,18
 630 878 630 878 592 878 c 0,19,20
 553 878 553 878 520 891 c 128,-1,21
 487 904 487 904 463 927.5 c 128,-1,22
 439 951 439 951 425.5 983.5 c 128,-1,23
 412 1016 412 1016 412 1053 c 256,4,5
412 324 m 256,24,25
 412 361 412 361 425.5 392.5 c 128,-1,26
 439 424 439 424 463 447.5 c 128,-1,27
 487 471 487 471 520 485 c 128,-1,28
 553 499 553 499 592 499 c 0,29,30
 630 499 630 499 662.5 485 c 128,-1,31
 695 471 695 471 719.5 447.5 c 128,-1,32
 744 424 744 424 758 392 c 128,-1,33
 772 360 772 360 772 324 c 256,34,35
 772 287 772 287 758 254.5 c 128,-1,36
 744 222 744 222 719.5 198.5 c 128,-1,37
 695 175 695 175 662.5 161.5 c 128,-1,38
 630 148 630 148 592 148 c 0,39,40
 553 148 553 148 520 161.5 c 128,-1,41
 487 175 487 175 463 198.5 c 128,-1,42
 439 222 439 222 425.5 254.5 c 128,-1,43
 412 287 412 287 412 324 c 256,24,25
EndSplineSet
Validated: 1
EndChar

StartChar: oslash
Encoding: 248 248 186
Width: 1187
GlyphClass: 1
Flags: W
LayerCount: 2
Fore
SplineSet
997 921 m 1,0,1
 1064 850 1064 850 1100.5 752 c 128,-1,2
 1137 654 1137 654 1137 534 c 0,3,4
 1137 407 1137 407 1097.5 305 c 128,-1,5
 1058 203 1058 203 986.5 131.5 c 128,-1,6
 915 60 915 60 816 22 c 128,-1,7
 717 -16 717 -16 596 -16 c 0,8,9
 458 -16 458 -16 345 34 c 1,10,-1
 328 9 l 2,11,12
 311 -17 311 -17 288.5 -33.5 c 128,-1,13
 266 -50 266 -50 241 -60.5 c 128,-1,14
 216 -71 216 -71 190 -75.5 c 128,-1,15
 164 -80 164 -80 139 -80 c 2,16,-1
 25 -80 l 1,17,-1
 189 144 l 1,18,19
 122 215 122 215 86.5 313.5 c 128,-1,20
 51 412 51 412 51 534 c 0,21,22
 51 660 51 660 90.5 760.5 c 128,-1,23
 130 861 130 861 202 931.5 c 128,-1,24
 274 1002 274 1002 374 1040 c 128,-1,25
 474 1078 474 1078 596 1078 c 0,26,27
 731 1078 731 1078 840 1030 c 1,28,-1
 887 1094 l 2,29,30
 903 1116 903 1116 917 1131 c 128,-1,31
 931 1146 931 1146 946.5 1155.5 c 128,-1,32
 962 1165 962 1165 981 1169.5 c 128,-1,33
 1000 1174 1000 1174 1028 1174 c 2,34,-1
 1184 1174 l 1,35,-1
 997 921 l 1,0,1
596 210 m 0,36,37
 706 210 706 210 767.5 292 c 128,-1,38
 829 374 829 374 829 531 c 0,39,40
 829 611 829 611 815 672 c 1,41,-1
 489 230 l 1,42,43
 534 210 534 210 596 210 c 0,36,37
358 531 m 0,44,45
 358 449 358 449 372 393 c 1,46,-1
 695 834 l 1,47,48
 653 853 653 853 596 853 c 0,49,50
 483 853 483 853 420.5 771 c 128,-1,51
 358 689 358 689 358 531 c 0,44,45
EndSplineSet
Validated: 1
EndChar

StartChar: thorn
Encoding: 254 254 192
Width: 1183
GlyphClass: 1
Flags: W
LayerCount: 2
Fore
SplineSet
123 -337 m 1,0,-1
 123 1533 l 1,1,-1
 440 1533 l 1,2,-1
 440 949 l 1,3,4
 499 1007 499 1007 574.5 1042.5 c 128,-1,5
 650 1078 650 1078 752 1078 c 0,6,7
 835 1078 835 1078 905.5 1042.5 c 128,-1,8
 976 1007 976 1007 1027 937.5 c 128,-1,9
 1078 868 1078 868 1107.5 768 c 128,-1,10
 1137 668 1137 668 1137 540 c 0,11,12
 1137 420 1137 420 1103.5 318.5 c 128,-1,13
 1070 217 1070 217 1010 142.5 c 128,-1,14
 950 68 950 68 866.5 26 c 128,-1,15
 783 -16 783 -16 682 -16 c 0,16,17
 640 -16 640 -16 605 -8.5 c 128,-1,18
 570 -1 570 -1 541 13 c 128,-1,19
 512 27 512 27 487.5 46.5 c 128,-1,20
 463 66 463 66 440 89 c 1,21,-1
 440 -337 l 1,22,-1
 123 -337 l 1,0,-1
641 840 m 0,23,24
 606 840 606 840 578 833 c 128,-1,25
 550 826 550 826 526 814 c 128,-1,26
 502 802 502 802 481.5 783 c 128,-1,27
 461 764 461 764 440 739 c 1,28,-1
 440 289 l 1,29,30
 476 249 476 249 518 233 c 128,-1,31
 560 217 560 217 606 217 c 0,32,33
 650 217 650 217 687 234.5 c 128,-1,34
 724 252 724 252 751 290.5 c 128,-1,35
 778 329 778 329 793.5 390.5 c 128,-1,36
 809 452 809 452 809 540 c 0,37,38
 809 624 809 624 796.5 681 c 128,-1,39
 784 738 784 738 762 773.5 c 128,-1,40
 740 809 740 809 709.5 824.5 c 128,-1,41
 679 840 679 840 641 840 c 0,23,24
EndSplineSet
Validated: 1
EndChar

StartChar: Aogonek
Encoding: 260 260 194
Width: 1509
GlyphClass: 1
Flags: W
LayerCount: 2
Fore
SplineSet
1460 -171 m 0,0,1
 1482 -171 1482 -171 1489 -190 c 2,2,-1
 1536 -304 l 1,3,4
 1500 -326 1500 -326 1447 -340.5 c 128,-1,5
 1394 -355 1394 -355 1333 -355 c 0,6,7
 1223 -355 1223 -355 1166.5 -312 c 128,-1,8
 1110 -269 1110 -269 1110 -203 c 0,9,10
 1110 -151 1110 -151 1144.5 -98.5 c 128,-1,11
 1179 -46 1179 -46 1255 0 c 1,12,-1
 1243 0 l 2,13,14
 1198 0 1198 0 1169 21 c 128,-1,15
 1140 42 1140 42 1128 75 c 2,16,-1
 1040 335 l 1,17,-1
 473 335 l 1,18,-1
 385 75 l 2,19,20
 375 46 375 46 345 23 c 128,-1,21
 315 0 315 0 272 0 c 2,22,-1
 2 0 l 1,23,-1
 580 1492 l 1,24,-1
 934 1492 l 1,25,-1
 1511 0 l 1,26,-1
 1442 0 l 1,27,28
 1402 -22 1402 -22 1374 -54 c 128,-1,29
 1346 -86 1346 -86 1346 -125 c 0,30,31
 1346 -150 1346 -150 1359.5 -164.5 c 128,-1,32
 1373 -179 1373 -179 1401 -179 c 0,33,34
 1416 -179 1416 -179 1425.5 -178 c 128,-1,35
 1435 -177 1435 -177 1441 -175.5 c 128,-1,36
 1447 -174 1447 -174 1451 -172.5 c 128,-1,37
 1455 -171 1455 -171 1460 -171 c 0,0,1
553 570 m 1,38,-1
 961 570 l 1,39,-1
 823 979 l 2,40,41
 808 1018 808 1018 790.5 1070.5 c 128,-1,42
 773 1123 773 1123 756 1185 c 1,43,44
 740 1123 740 1123 723 1069.5 c 128,-1,45
 706 1016 706 1016 690 977 c 2,46,-1
 553 570 l 1,38,-1
EndSplineSet
Validated: 1
EndChar

StartChar: aogonek
Encoding: 261 261 195
Width: 1103
GlyphClass: 1
Flags: W
LayerCount: 2
Fore
SplineSet
1020 -171 m 0,0,1
 1042 -171 1042 -171 1049 -190 c 2,2,-1
 1096 -304 l 1,3,4
 1060 -326 1060 -326 1006.5 -340.5 c 128,-1,5
 953 -355 953 -355 893 -355 c 0,6,7
 783 -355 783 -355 726.5 -312 c 128,-1,8
 670 -269 670 -269 670 -203 c 0,9,10
 670 -150 670 -150 705.5 -97 c 128,-1,11
 741 -44 741 -44 819 2 c 1,12,13
 792 6 792 6 776.5 20 c 128,-1,14
 761 34 761 34 750 63 c 2,15,-1
 727 122 l 1,16,17
 687 88 687 88 650 62.5 c 128,-1,18
 613 37 613 37 574 19 c 128,-1,19
 535 1 535 1 490 -7.5 c 128,-1,20
 445 -16 445 -16 391 -16 c 0,21,22
 318 -16 318 -16 259 3 c 128,-1,23
 200 22 200 22 158.5 58.5 c 128,-1,24
 117 95 117 95 94.5 150 c 128,-1,25
 72 205 72 205 72 276 c 0,26,27
 72 332 72 332 100.5 392 c 128,-1,28
 129 452 129 452 199.5 500.5 c 128,-1,29
 270 549 270 549 390 581.5 c 128,-1,30
 510 614 510 614 692 618 c 1,31,-1
 692 664 l 2,32,33
 692 757 692 757 653.5 798.5 c 128,-1,34
 615 840 615 840 545 840 c 0,35,36
 489 840 489 840 453 827.5 c 128,-1,37
 417 815 417 815 388.5 799.5 c 128,-1,38
 360 784 360 784 333.5 772 c 128,-1,39
 307 760 307 760 270 760 c 0,40,41
 237 760 237 760 214 776 c 128,-1,42
 191 792 191 792 178 815 c 2,43,-1
 121 914 l 1,44,45
 217 999 217 999 334.5 1040.5 c 128,-1,46
 452 1082 452 1082 586 1082 c 0,47,48
 682 1082 682 1082 759.5 1051 c 128,-1,49
 837 1020 837 1020 890.5 964 c 128,-1,50
 944 908 944 908 972.5 831.5 c 128,-1,51
 1001 755 1001 755 1001 664 c 2,52,-1
 1001 0 l 1,53,54
 961 -22 961 -22 933 -54 c 128,-1,55
 905 -86 905 -86 905 -125 c 0,56,57
 905 -150 905 -150 919 -164.5 c 128,-1,58
 933 -179 933 -179 961 -179 c 0,59,60
 976 -179 976 -179 985 -178 c 128,-1,61
 994 -177 994 -177 1000.5 -175.5 c 128,-1,62
 1007 -174 1007 -174 1011 -172.5 c 128,-1,63
 1015 -171 1015 -171 1020 -171 c 0,0,1
492 194 m 0,64,65
 553 194 553 194 599 215.5 c 128,-1,66
 645 237 645 237 692 285 c 1,67,-1
 692 432 l 1,68,69
 597 428 597 428 535.5 415.5 c 128,-1,70
 474 403 474 403 438 385 c 128,-1,71
 402 367 402 367 388.5 343 c 128,-1,72
 375 319 375 319 375 292 c 0,73,74
 375 238 375 238 405 216 c 128,-1,75
 435 194 435 194 492 194 c 0,64,65
EndSplineSet
Validated: 1
EndChar

StartChar: Eogonek
Encoding: 280 280 198
Width: 1157
GlyphClass: 1
Flags: W
LayerCount: 2
Fore
SplineSet
1008 -171 m 0,0,1
 1030 -171 1030 -171 1036 -190 c 2,2,-1
 1083 -304 l 1,3,4
 1047 -326 1047 -326 994 -340.5 c 128,-1,5
 941 -355 941 -355 881 -355 c 0,6,7
 771 -355 771 -355 714 -312 c 128,-1,8
 657 -269 657 -269 657 -203 c 0,9,10
 657 -151 657 -151 691.5 -98.5 c 128,-1,11
 726 -46 726 -46 803 0 c 1,12,-1
 123 0 l 1,13,-1
 123 1492 l 1,14,-1
 1083 1492 l 1,15,-1
 1083 1226 l 1,16,-1
 471 1226 l 1,17,-1
 471 878 l 1,18,-1
 940 878 l 1,19,-1
 940 622 l 1,20,-1
 471 622 l 1,21,-1
 471 266 l 1,22,-1
 1083 266 l 1,23,-1
 1083 0 l 1,24,-1
 989 0 l 1,25,26
 949 -22 949 -22 921 -54 c 128,-1,27
 893 -86 893 -86 893 -125 c 0,28,29
 893 -150 893 -150 907 -164.5 c 128,-1,30
 921 -179 921 -179 948 -179 c 0,31,32
 963 -179 963 -179 972.5 -178 c 128,-1,33
 982 -177 982 -177 988 -175.5 c 128,-1,34
 994 -174 994 -174 998.5 -172.5 c 128,-1,35
 1003 -171 1003 -171 1008 -171 c 0,0,1
EndSplineSet
Validated: 1
EndChar

StartChar: eogonek
Encoding: 281 281 199
Width: 1114
GlyphClass: 1
Flags: W
LayerCount: 2
Fore
SplineSet
762 -171 m 0,0,1
 784 -171 784 -171 791 -190 c 2,2,-1
 838 -304 l 1,3,4
 802 -326 802 -326 748.5 -340.5 c 128,-1,5
 695 -355 695 -355 635 -355 c 0,6,7
 525 -355 525 -355 468.5 -312 c 128,-1,8
 412 -269 412 -269 412 -203 c 0,9,10
 412 -154 412 -154 441.5 -105 c 128,-1,11
 471 -56 471 -56 536 -13 c 1,12,13
 435 -5 435 -5 346.5 35.5 c 128,-1,14
 258 76 258 76 193 147 c 128,-1,15
 128 218 128 218 90.5 320 c 128,-1,16
 53 422 53 422 53 554 c 0,17,18
 53 660 53 660 89.5 755.5 c 128,-1,19
 126 851 126 851 194 922.5 c 128,-1,20
 262 994 262 994 359 1036 c 128,-1,21
 456 1078 456 1078 578 1078 c 0,22,23
 683 1078 683 1078 770.5 1045.5 c 128,-1,24
 858 1013 858 1013 921 950.5 c 128,-1,25
 984 888 984 888 1019.5 797.5 c 128,-1,26
 1055 707 1055 707 1055 592 c 0,27,28
 1055 556 1055 556 1052 533.5 c 128,-1,29
 1049 511 1049 511 1040.5 497.5 c 128,-1,30
 1032 484 1032 484 1018.5 479 c 128,-1,31
 1005 474 1005 474 983 474 c 2,32,-1
 371 474 l 1,33,34
 386 341 386 341 451.5 281 c 128,-1,35
 517 221 517 221 621 221 c 0,36,37
 676 221 676 221 716 234.5 c 128,-1,38
 756 248 756 248 787 264.5 c 128,-1,39
 818 281 818 281 844 294 c 128,-1,40
 870 307 870 307 899 307 c 0,41,42
 937 307 937 307 956 280 c 2,43,-1
 1049 166 l 1,44,45
 981 88 981 88 899 49 c 128,-1,46
 817 10 817 10 735 -4 c 1,47,48
 698 -26 698 -26 672.5 -56.5 c 128,-1,49
 647 -87 647 -87 647 -125 c 0,50,51
 647 -150 647 -150 661 -164.5 c 128,-1,52
 675 -179 675 -179 702 -179 c 0,53,54
 717 -179 717 -179 726.5 -178 c 128,-1,55
 736 -177 736 -177 742.5 -175.5 c 128,-1,56
 749 -174 749 -174 753 -172.5 c 128,-1,57
 757 -171 757 -171 762 -171 c 0,0,1
584 859 m 0,58,59
 493 859 493 859 441.5 807.5 c 128,-1,60
 390 756 390 756 374 658 c 1,61,-1
 770 658 l 1,62,63
 770 696 770 696 760.5 732 c 128,-1,64
 751 768 751 768 729 796 c 128,-1,65
 707 824 707 824 671 841.5 c 128,-1,66
 635 859 635 859 584 859 c 0,58,59
EndSplineSet
Validated: 1
EndChar

StartChar: dotlessi
Encoding: 305 305 200
Width: 583
GlyphClass: 1
Flags: W
LayerCount: 2
Fore
SplineSet
451 1062 m 1,0,-1
 451 0 l 1,1,-1
 133 0 l 1,2,-1
 133 1062 l 1,3,-1
 451 1062 l 1,0,-1
EndSplineSet
Validated: 1
EndChar

StartChar: Lslash
Encoding: 321 321 201
Width: 1142
GlyphClass: 1
Flags: W
LayerCount: 2
Fore
SplineSet
549 945 m 1,0,-1
 891 1114 l 1,1,-1
 891 888 l 2,2,3
 891 839 891 839 850 824 c 1,4,-1
 549 669 l 1,5,-1
 549 276 l 1,6,-1
 1102 276 l 1,7,-1
 1102 0 l 1,8,-1
 203 0 l 1,9,-1
 203 517 l 1,10,-1
 25 430 l 1,11,-1
 25 664 l 2,12,13
 25 704 25 704 61 719 c 2,14,-1
 203 792 l 1,15,-1
 203 1492 l 1,16,-1
 549 1492 l 1,17,-1
 549 945 l 1,0,-1
EndSplineSet
Validated: 1
EndChar

StartChar: lslash
Encoding: 322 322 202
Width: 727
GlyphClass: 1
Flags: W
LayerCount: 2
Fore
SplineSet
522 1533 m 1,0,-1
 522 974 l 1,1,-1
 676 1034 l 1,2,-1
 676 856 l 2,3,4
 676 810 676 810 635 793 c 2,5,-1
 522 745 l 1,6,-1
 522 0 l 1,7,-1
 205 0 l 1,8,-1
 205 639 l 1,9,-1
 51 580 l 1,10,-1
 51 764 l 2,11,12
 51 804 51 804 88 819 c 2,13,-1
 205 867 l 1,14,-1
 205 1533 l 1,15,-1
 522 1533 l 1,0,-1
EndSplineSet
Validated: 1
EndChar

StartChar: OE
Encoding: 338 338 205
Width: 2187
GlyphClass: 1
Flags: W
LayerCount: 2
Fore
SplineSet
2114 1492 m 1,0,-1
 2114 1226 l 1,1,-1
 1501 1226 l 1,2,-1
 1501 878 l 1,3,-1
 1970 878 l 1,4,-1
 1970 622 l 1,5,-1
 1501 622 l 1,6,-1
 1501 266 l 1,7,-1
 2114 266 l 1,8,-1
 2114 0 l 1,9,-1
 1194 0 l 1,10,-1
 1194 152 l 1,11,12
 1106 72 1106 72 993 28 c 128,-1,13
 880 -16 880 -16 743 -16 c 0,14,15
 585 -16 585 -16 457 42 c 128,-1,16
 329 100 329 100 237 203 c 128,-1,17
 145 306 145 306 95 445.5 c 128,-1,18
 45 585 45 585 45 746 c 256,19,20
 45 908 45 908 95 1047.5 c 128,-1,21
 145 1187 145 1187 237 1289.5 c 128,-1,22
 329 1392 329 1392 457.5 1450 c 128,-1,23
 586 1508 586 1508 743 1508 c 0,24,25
 879 1508 879 1508 992.5 1463.5 c 128,-1,26
 1106 1419 1106 1419 1194 1339 c 1,27,-1
 1194 1492 l 1,28,-1
 2114 1492 l 1,0,-1
1153 746 m 0,29,30
 1153 857 1153 857 1128 947 c 128,-1,31
 1103 1037 1103 1037 1055 1100 c 128,-1,32
 1007 1163 1007 1163 937 1197.5 c 128,-1,33
 867 1232 867 1232 778 1232 c 0,34,35
 687 1232 687 1232 617 1197.5 c 128,-1,36
 547 1163 547 1163 498.5 1100 c 128,-1,37
 450 1037 450 1037 424.5 947 c 128,-1,38
 399 857 399 857 399 746 c 0,39,40
 399 634 399 634 424.5 544.5 c 128,-1,41
 450 455 450 455 498.5 392 c 128,-1,42
 547 329 547 329 617 294.5 c 128,-1,43
 687 260 687 260 778 260 c 0,44,45
 867 260 867 260 937 294.5 c 128,-1,46
 1007 329 1007 329 1055 392 c 128,-1,47
 1103 455 1103 455 1128 544.5 c 128,-1,48
 1153 634 1153 634 1153 746 c 0,29,30
EndSplineSet
Validated: 1
EndChar

StartChar: oe
Encoding: 339 339 206
Width: 1804
GlyphClass: 1
Flags: W
LayerCount: 2
Fore
SplineSet
1305 1078 m 0,0,1
 1399 1078 1399 1078 1480 1042.5 c 128,-1,2
 1561 1007 1561 1007 1619.5 940.5 c 128,-1,3
 1678 874 1678 874 1711.5 780.5 c 128,-1,4
 1745 687 1745 687 1745 571 c 0,5,6
 1745 535 1745 535 1742 512.5 c 128,-1,7
 1739 490 1739 490 1731 477 c 128,-1,8
 1723 464 1723 464 1710 459 c 128,-1,9
 1697 454 1697 454 1675 454 c 2,10,-1
 1092 454 l 1,11,12
 1109 332 1109 332 1171 276.5 c 128,-1,13
 1233 221 1233 221 1327 221 c 0,14,15
 1379 221 1379 221 1416.5 234.5 c 128,-1,16
 1454 248 1454 248 1483 264.5 c 128,-1,17
 1512 281 1512 281 1538 294 c 128,-1,18
 1564 307 1564 307 1593 307 c 0,19,20
 1610 307 1610 307 1624 299.5 c 128,-1,21
 1638 292 1638 292 1649 280 c 2,22,-1
 1743 166 l 1,23,24
 1694 110 1694 110 1638 74.5 c 128,-1,25
 1582 39 1582 39 1523.5 19 c 128,-1,26
 1465 -1 1465 -1 1407.5 -8.5 c 128,-1,27
 1350 -16 1350 -16 1296 -16 c 0,28,29
 1244 -16 1244 -16 1194 -5.5 c 128,-1,30
 1144 5 1144 5 1097.5 27.5 c 128,-1,31
 1051 50 1051 50 1009.5 84.5 c 128,-1,32
 968 119 968 119 935 166 c 1,33,34
 870 78 870 78 772 31 c 128,-1,35
 674 -16 674 -16 547 -16 c 0,36,37
 442 -16 442 -16 351 22 c 128,-1,38
 260 60 260 60 193.5 131.5 c 128,-1,39
 127 203 127 203 89 305 c 128,-1,40
 51 407 51 407 51 534 c 0,41,42
 51 660 51 660 89.5 760.5 c 128,-1,43
 128 861 128 861 195.5 931.5 c 128,-1,44
 263 1002 263 1002 356.5 1040 c 128,-1,45
 450 1078 450 1078 559 1078 c 0,46,47
 680 1078 680 1078 774.5 1032 c 128,-1,48
 869 986 869 986 934 899 c 1,49,50
 993 982 993 982 1086 1030 c 128,-1,51
 1179 1078 1179 1078 1305 1078 c 0,0,1
578 219 m 0,52,53
 680 219 680 219 727 296.5 c 128,-1,54
 774 374 774 374 774 531 c 256,55,56
 774 689 774 689 727 766 c 128,-1,57
 680 843 680 843 578 843 c 0,58,59
 475 843 475 843 427 766 c 128,-1,60
 379 689 379 689 379 531 c 256,61,62
 379 373 379 373 427 296 c 128,-1,63
 475 219 475 219 578 219 c 0,52,53
1290 859 m 0,64,65
 1200 859 1200 859 1151.5 802 c 128,-1,66
 1103 745 1103 745 1090 638 c 1,67,-1
 1462 638 l 1,68,69
 1462 676 1462 676 1453.5 715.5 c 128,-1,70
 1445 755 1445 755 1425 786.5 c 128,-1,71
 1405 818 1405 818 1371.5 838.5 c 128,-1,72
 1338 859 1338 859 1290 859 c 0,64,65
EndSplineSet
Validated: 1
EndChar

StartChar: florin
Encoding: 402 402 218
Width: 1187
GlyphClass: 1
Flags: W
LayerCount: 2
Fore
SplineSet
755 744 m 1,0,-1
 674 74 l 2,1,2
 661 -38 661 -38 620.5 -117.5 c 128,-1,3
 580 -197 580 -197 509 -248 c 128,-1,4
 438 -299 438 -299 334.5 -323 c 128,-1,5
 231 -347 231 -347 92 -347 c 1,6,-1
 92 -186 l 2,7,8
 92 -137 92 -137 115.5 -114.5 c 128,-1,9
 139 -92 139 -92 190 -92 c 0,10,11
 227 -92 227 -92 256 -83 c 128,-1,12
 285 -74 285 -74 305.5 -53 c 128,-1,13
 326 -32 326 -32 339 2 c 128,-1,14
 352 36 352 36 358 84 c 2,15,-1
 439 739 l 1,16,-1
 342 760 l 2,17,18
 308 768 308 768 290 786 c 128,-1,19
 272 804 272 804 272 837 c 2,20,-1
 272 962 l 1,21,-1
 466 962 l 1,22,-1
 483 1099 l 2,23,24
 496 1203 496 1203 536.5 1282 c 128,-1,25
 577 1361 577 1361 647.5 1413.5 c 128,-1,26
 718 1466 718 1466 821.5 1493.5 c 128,-1,27
 925 1521 925 1521 1065 1521 c 1,28,-1
 1065 1352 l 2,29,30
 1065 1303 1065 1303 1041.5 1284.5 c 128,-1,31
 1018 1266 1018 1266 967 1266 c 0,32,33
 893 1266 893 1266 848.5 1226 c 128,-1,34
 804 1186 804 1186 791 1090 c 2,35,-1
 773 962 l 1,36,-1
 1049 962 l 1,37,-1
 1049 744 l 1,38,-1
 755 744 l 1,0,-1
EndSplineSet
Validated: 1
EndChar

StartChar: circumflex
Encoding: 710 710 219
Width: 675
GlyphClass: 1
Flags: W
LayerCount: 2
Fore
SplineSet
727 1196 m 1,0,-1
 516 1196 l 2,1,2
 498 1196 498 1196 482.5 1201.5 c 128,-1,3
 467 1207 467 1207 455 1217 c 2,4,-1
 369 1290 l 2,5,6
 362 1295 362 1295 355.5 1301.5 c 128,-1,7
 349 1308 349 1308 343 1316 c 1,8,9
 337 1308 337 1308 330.5 1301.5 c 128,-1,10
 324 1295 324 1295 317 1290 c 2,11,-1
 229 1217 l 2,12,13
 220 1209 220 1209 203 1202.5 c 128,-1,14
 186 1196 186 1196 168 1196 c 2,15,-1
 -51 1196 l 1,16,-1
 188 1492 l 1,17,-1
 487 1492 l 1,18,-1
 727 1196 l 1,0,-1
EndSplineSet
Validated: 1
Substitution2: "'case' Case-Sensitive Forms in Latin lookup 0 subtable" circumflex.case
EndChar

StartChar: caron
Encoding: 711 711 220
Width: 675
GlyphClass: 1
Flags: W
LayerCount: 2
Fore
SplineSet
-51 1492 m 1,0,-1
 168 1492 l 2,1,2
 186 1492 186 1492 203 1486.5 c 128,-1,3
 220 1481 220 1481 229 1473 c 2,4,-1
 315 1399 l 2,5,6
 321 1394 321 1394 328.5 1386.5 c 128,-1,7
 336 1379 336 1379 342 1371 c 1,8,9
 353 1387 353 1387 369 1399 c 2,10,-1
 455 1473 l 2,11,12
 464 1479 464 1479 481 1485.5 c 128,-1,13
 498 1492 498 1492 516 1492 c 2,14,-1
 727 1492 l 1,15,-1
 487 1196 l 1,16,-1
 188 1196 l 1,17,-1
 -51 1492 l 1,0,-1
EndSplineSet
Validated: 1
Substitution2: "'case' Case-Sensitive Forms in Latin lookup 0 subtable" caron.case
EndChar

StartChar: breve
Encoding: 728 728 222
Width: 675
GlyphClass: 1
Flags: W
LayerCount: 2
Fore
SplineSet
338 1187 m 256,0,1
 242 1187 242 1187 177.5 1211.5 c 128,-1,2
 113 1236 113 1236 74 1277.5 c 128,-1,3
 35 1319 35 1319 18.5 1374.5 c 128,-1,4
 2 1430 2 1430 2 1492 c 1,5,-1
 223 1492 l 1,6,7
 223 1464 223 1464 227.5 1442.5 c 128,-1,8
 232 1421 232 1421 245 1407.5 c 128,-1,9
 258 1394 258 1394 280 1386.5 c 128,-1,10
 302 1379 302 1379 338 1379 c 0,11,12
 373 1379 373 1379 395.5 1386.5 c 128,-1,13
 418 1394 418 1394 430.5 1407.5 c 128,-1,14
 443 1421 443 1421 448 1442.5 c 128,-1,15
 453 1464 453 1464 453 1492 c 1,16,-1
 674 1492 l 1,17,18
 674 1430 674 1430 657.5 1374.5 c 128,-1,19
 641 1319 641 1319 602 1277.5 c 128,-1,20
 563 1236 563 1236 498.5 1211.5 c 128,-1,21
 434 1187 434 1187 338 1187 c 256,0,1
EndSplineSet
Validated: 1
Substitution2: "'case' Case-Sensitive Forms in Latin lookup 0 subtable" breve.case
EndChar

StartChar: dotaccent
Encoding: 729 729 223
Width: 675
GlyphClass: 1
Flags: W
LayerCount: 2
Fore
SplineSet
530 1354 m 256,0,1
 530 1316 530 1316 515 1282 c 128,-1,2
 500 1248 500 1248 473 1223 c 128,-1,3
 446 1198 446 1198 411 1183.5 c 128,-1,4
 376 1169 376 1169 336 1169 c 0,5,6
 297 1169 297 1169 263 1183.5 c 128,-1,7
 229 1198 229 1198 203 1223 c 128,-1,8
 177 1248 177 1248 162 1282 c 128,-1,9
 147 1316 147 1316 147 1354 c 256,10,11
 147 1392 147 1392 162 1426 c 128,-1,12
 177 1460 177 1460 203 1485 c 128,-1,13
 229 1510 229 1510 263 1525 c 128,-1,14
 297 1540 297 1540 336 1540 c 0,15,16
 376 1540 376 1540 411 1525 c 128,-1,17
 446 1510 446 1510 473 1485 c 128,-1,18
 500 1460 500 1460 515 1426 c 128,-1,19
 530 1392 530 1392 530 1354 c 256,0,1
EndSplineSet
Validated: 1
Substitution2: "'case' Case-Sensitive Forms in Latin lookup 0 subtable" dotaccent.case
EndChar

StartChar: ring
Encoding: 730 730 224
Width: 675
GlyphClass: 1
Flags: W
LayerCount: 2
Fore
SplineSet
88 1366 m 0,0,1
 88 1417 88 1417 108.5 1458.5 c 128,-1,2
 129 1500 129 1500 163 1530 c 128,-1,3
 197 1560 197 1560 242 1575.5 c 128,-1,4
 287 1591 287 1591 336 1591 c 0,5,6
 386 1591 386 1591 432 1575.5 c 128,-1,7
 478 1560 478 1560 513.5 1530 c 128,-1,8
 549 1500 549 1500 569.5 1458.5 c 128,-1,9
 590 1417 590 1417 590 1366 c 0,10,11
 590 1316 590 1316 569.5 1275.5 c 128,-1,12
 549 1235 549 1235 513.5 1206.5 c 128,-1,13
 478 1178 478 1178 432 1162 c 128,-1,14
 386 1146 386 1146 336 1146 c 0,15,16
 287 1146 287 1146 242 1162 c 128,-1,17
 197 1178 197 1178 163 1206.5 c 128,-1,18
 129 1235 129 1235 108.5 1275.5 c 128,-1,19
 88 1316 88 1316 88 1366 c 0,0,1
258 1366 m 0,20,21
 258 1330 258 1330 278 1307 c 128,-1,22
 298 1284 298 1284 340 1284 c 0,23,24
 377 1284 377 1284 398.5 1307 c 128,-1,25
 420 1330 420 1330 420 1366 c 0,26,27
 420 1405 420 1405 398.5 1427.5 c 128,-1,28
 377 1450 377 1450 340 1450 c 0,29,30
 298 1450 298 1450 278 1427.5 c 128,-1,31
 258 1405 258 1405 258 1366 c 0,20,21
EndSplineSet
Validated: 1
Substitution2: "'case' Case-Sensitive Forms in Latin lookup 0 subtable" ring.case
EndChar

StartChar: ogonek
Encoding: 731 731 225
Width: 675
GlyphClass: 1
Flags: W
LayerCount: 2
Fore
SplineSet
481 -171 m 0,0,1
 503 -171 503 -171 510 -190 c 2,2,-1
 557 -304 l 1,3,4
 521 -326 521 -326 468 -340.5 c 128,-1,5
 415 -355 415 -355 354 -355 c 0,6,7
 244 -355 244 -355 187.5 -312 c 128,-1,8
 131 -269 131 -269 131 -203 c 0,9,10
 131 -147 131 -147 171 -91 c 128,-1,11
 211 -35 211 -35 299 12 c 1,12,-1
 463 0 l 1,13,14
 423 -22 423 -22 395 -54 c 128,-1,15
 367 -86 367 -86 367 -125 c 0,16,17
 367 -150 367 -150 380.5 -164.5 c 128,-1,18
 394 -179 394 -179 422 -179 c 0,19,20
 437 -179 437 -179 446.5 -178 c 128,-1,21
 456 -177 456 -177 462 -175.5 c 128,-1,22
 468 -174 468 -174 472 -172.5 c 128,-1,23
 476 -171 476 -171 481 -171 c 0,0,1
EndSplineSet
Validated: 1
EndChar

StartChar: tilde
Encoding: 732 732 226
Width: 675
GlyphClass: 1
Flags: W
LayerCount: 2
Fore
SplineSet
444 1420 m 0,0,1
 469 1420 469 1420 484.5 1433 c 128,-1,2
 500 1446 500 1446 500 1488 c 1,3,-1
 692 1488 l 1,4,5
 692 1423 692 1423 674 1371.5 c 128,-1,6
 656 1320 656 1320 624.5 1283.5 c 128,-1,7
 593 1247 593 1247 550 1227.5 c 128,-1,8
 507 1208 507 1208 457 1208 c 0,9,10
 419 1208 419 1208 386 1220 c 128,-1,11
 353 1232 353 1232 325 1246.5 c 128,-1,12
 297 1261 297 1261 274 1272.5 c 128,-1,13
 251 1284 251 1284 233 1284 c 0,14,15
 208 1284 208 1284 194 1270 c 128,-1,16
 180 1256 180 1256 180 1214 c 1,17,-1
 -14 1214 l 1,18,19
 -14 1279 -14 1279 4.5 1330.5 c 128,-1,20
 23 1382 23 1382 54.5 1419 c 128,-1,21
 86 1456 86 1456 129 1476 c 128,-1,22
 172 1496 172 1496 221 1496 c 0,23,24
 259 1496 259 1496 292.5 1484.5 c 128,-1,25
 326 1473 326 1473 353.5 1458.5 c 128,-1,26
 381 1444 381 1444 404 1432 c 128,-1,27
 427 1420 427 1420 444 1420 c 0,0,1
EndSplineSet
Validated: 1
Substitution2: "'case' Case-Sensitive Forms in Latin lookup 0 subtable" tilde.case
EndChar

StartChar: hungarumlaut
Encoding: 733 733 227
Width: 675
GlyphClass: 1
Flags: W
LayerCount: 2
Fore
SplineSet
483 1508 m 1,0,-1
 279 1239 l 2,1,2
 259 1213 259 1213 235.5 1204.5 c 128,-1,3
 212 1196 212 1196 176 1196 c 2,4,-1
 47 1196 l 1,5,-1
 166 1447 l 2,6,7
 180 1478 180 1478 205 1493 c 128,-1,8
 230 1508 230 1508 279 1508 c 2,9,-1
 483 1508 l 1,0,-1
872 1508 m 1,10,-1
 606 1239 l 2,11,12
 582 1215 582 1215 561 1205.5 c 128,-1,13
 540 1196 540 1196 504 1196 c 2,14,-1
 354 1196 l 1,15,-1
 535 1447 l 2,16,17
 545 1461 545 1461 554.5 1472.5 c 128,-1,18
 564 1484 564 1484 577 1492 c 128,-1,19
 590 1500 590 1500 607 1504 c 128,-1,20
 624 1508 624 1508 647 1508 c 2,21,-1
 872 1508 l 1,10,-1
EndSplineSet
Validated: 1
Substitution2: "'case' Case-Sensitive Forms in Latin lookup 0 subtable" hungarumlaut.case
EndChar

StartChar: pi
Encoding: 960 960 228
Width: 1368
GlyphClass: 1
Flags: W
LayerCount: 2
Fore
SplineSet
1329 1062 m 1,0,-1
 1329 939 l 2,1,2
 1329 900 1329 900 1304 872 c 128,-1,3
 1279 844 1279 844 1233 844 c 2,4,-1
 1151 844 l 1,5,-1
 1151 0 l 1,6,-1
 834 0 l 1,7,-1
 834 844 l 1,8,-1
 541 844 l 1,9,-1
 541 291 l 2,10,11
 541 223 541 223 524.5 167 c 128,-1,12
 508 111 508 111 471 70 c 128,-1,13
 434 29 434 29 374 6.5 c 128,-1,14
 314 -16 314 -16 227 -16 c 0,15,16
 188 -16 188 -16 142.5 -7.5 c 128,-1,17
 97 1 97 1 55 22 c 1,18,-1
 63 152 l 2,19,20
 64 172 64 172 76.5 188 c 128,-1,21
 89 204 89 204 129 204 c 0,22,23
 158 204 158 204 176.5 208.5 c 128,-1,24
 195 213 195 213 205.5 223.5 c 128,-1,25
 216 234 216 234 219.5 251.5 c 128,-1,26
 223 269 223 269 223 294 c 2,27,-1
 223 844 l 1,28,-1
 49 844 l 1,29,-1
 49 954 l 2,30,31
 49 971 49 971 57 990.5 c 128,-1,32
 65 1010 65 1010 80 1025.5 c 128,-1,33
 95 1041 95 1041 116.5 1051.5 c 128,-1,34
 138 1062 138 1062 166 1062 c 2,35,-1
 1329 1062 l 1,0,-1
EndSplineSet
Validated: 1
EndChar

StartChar: endash
Encoding: 8211 8211 229
Width: 1187
GlyphClass: 1
Flags: W
LayerCount: 2
Fore
SplineSet
174 730 m 1,0,-1
 1014 730 l 1,1,-1
 1014 513 l 1,2,-1
 174 513 l 1,3,-1
 174 730 l 1,0,-1
EndSplineSet
Validated: 1
EndChar

StartChar: emdash
Encoding: 8212 8212 230
Width: 1763
GlyphClass: 1
Flags: W
LayerCount: 2
Fore
SplineSet
174 730 m 1,0,-1
 1589 730 l 1,1,-1
 1589 513 l 1,2,-1
 174 513 l 1,3,-1
 174 730 l 1,0,-1
EndSplineSet
Validated: 1
EndChar

StartChar: quoteleft
Encoding: 8216 8216 231
Width: 483
GlyphClass: 1
Flags: W
LayerCount: 2
Fore
SplineSet
168 972 m 1,0,1
 127 1037 127 1037 107 1100.5 c 128,-1,2
 87 1164 87 1164 87 1228 c 0,3,4
 87 1338 87 1338 144.5 1438.5 c 128,-1,5
 202 1539 202 1539 313 1624 c 1,6,-1
 414 1565 l 2,7,8
 426 1557 426 1557 431.5 1547 c 128,-1,9
 437 1537 437 1537 437 1527 c 0,10,11
 437 1516 437 1516 432 1505.5 c 128,-1,12
 427 1495 427 1495 420 1488 c 0,13,14
 409 1476 409 1476 395 1458 c 128,-1,15
 381 1440 381 1440 368.5 1416 c 128,-1,16
 356 1392 356 1392 347.5 1362.5 c 128,-1,17
 339 1333 339 1333 339 1299 c 0,18,19
 339 1262 339 1262 352 1220.5 c 128,-1,20
 365 1179 365 1179 394 1130 c 0,21,22
 404 1114 404 1114 404 1098 c 0,23,24
 404 1080 404 1080 392 1065.5 c 128,-1,25
 380 1051 380 1051 358 1042 c 2,26,-1
 168 972 l 1,0,1
EndSplineSet
Validated: 1
EndChar

StartChar: quoteright
Encoding: 8217 8217 232
Width: 483
GlyphClass: 1
Flags: W
LayerCount: 2
Fore
SplineSet
346 1588 m 1,0,1
 387 1523 387 1523 407 1459 c 128,-1,2
 427 1395 427 1395 427 1331 c 0,3,4
 427 1221 427 1221 369.5 1121 c 128,-1,5
 312 1021 312 1021 201 936 c 1,6,-1
 100 995 l 2,7,8
 88 1003 88 1003 82.5 1013 c 128,-1,9
 77 1023 77 1023 77 1033 c 0,10,11
 77 1044 77 1044 82 1054.5 c 128,-1,12
 87 1065 87 1065 94 1072 c 0,13,14
 105 1084 105 1084 119 1102 c 128,-1,15
 133 1120 133 1120 145.5 1143.5 c 128,-1,16
 158 1167 158 1167 166.5 1197 c 128,-1,17
 175 1227 175 1227 175 1261 c 0,18,19
 175 1298 175 1298 162.5 1339.5 c 128,-1,20
 150 1381 150 1381 120 1430 c 0,21,22
 110 1446 110 1446 110 1462 c 0,23,24
 110 1480 110 1480 122 1494.5 c 128,-1,25
 134 1509 134 1509 156 1518 c 2,26,-1
 346 1588 l 1,0,1
EndSplineSet
Validated: 1
EndChar

StartChar: quotesinglbase
Encoding: 8218 8218 233
Width: 483
GlyphClass: 1
Flags: W
LayerCount: 2
Fore
SplineSet
346 340 m 1,0,1
 387 275 387 275 407 210.5 c 128,-1,2
 427 146 427 146 427 83 c 0,3,4
 427 -27 427 -27 369.5 -127 c 128,-1,5
 312 -227 312 -227 201 -312 c 1,6,-1
 100 -253 l 2,7,8
 88 -245 88 -245 82.5 -235 c 128,-1,9
 77 -225 77 -225 77 -215 c 0,10,11
 77 -204 77 -204 82 -193.5 c 128,-1,12
 87 -183 87 -183 94 -176 c 0,13,14
 105 -164 105 -164 119 -146 c 128,-1,15
 133 -128 133 -128 145.5 -104.5 c 128,-1,16
 158 -81 158 -81 166.5 -51.5 c 128,-1,17
 175 -22 175 -22 175 12 c 0,18,19
 175 49 175 49 162.5 91 c 128,-1,20
 150 133 150 133 120 181 c 0,21,22
 110 197 110 197 110 214 c 0,23,24
 110 232 110 232 122 246.5 c 128,-1,25
 134 261 134 261 156 269 c 2,26,-1
 346 340 l 1,0,1
EndSplineSet
Validated: 1
EndChar

StartChar: quotedblleft
Encoding: 8220 8220 234
Width: 849
GlyphClass: 1
Flags: W
LayerCount: 2
Fore
SplineSet
168 972 m 1,0,1
 127 1037 127 1037 107 1100.5 c 128,-1,2
 87 1164 87 1164 87 1228 c 0,3,4
 87 1338 87 1338 144.5 1438.5 c 128,-1,5
 202 1539 202 1539 313 1624 c 1,6,-1
 414 1565 l 2,7,8
 426 1557 426 1557 431.5 1547 c 128,-1,9
 437 1537 437 1537 437 1527 c 0,10,11
 437 1516 437 1516 432 1505.5 c 128,-1,12
 427 1495 427 1495 420 1488 c 0,13,14
 409 1476 409 1476 395 1458 c 128,-1,15
 381 1440 381 1440 368.5 1416 c 128,-1,16
 356 1392 356 1392 347.5 1362.5 c 128,-1,17
 339 1333 339 1333 339 1299 c 0,18,19
 339 1262 339 1262 352 1220.5 c 128,-1,20
 365 1179 365 1179 394 1130 c 0,21,22
 404 1114 404 1114 404 1098 c 0,23,24
 404 1080 404 1080 392 1065.5 c 128,-1,25
 380 1051 380 1051 358 1042 c 2,26,-1
 168 972 l 1,0,1
535 972 m 1,27,28
 494 1037 494 1037 474 1100.5 c 128,-1,29
 454 1164 454 1164 454 1228 c 0,30,31
 454 1338 454 1338 511 1438.5 c 128,-1,32
 568 1539 568 1539 680 1624 c 1,33,-1
 780 1565 l 2,34,35
 792 1557 792 1557 798 1547 c 128,-1,36
 804 1537 804 1537 804 1527 c 0,37,38
 804 1516 804 1516 799 1505.5 c 128,-1,39
 794 1495 794 1495 786 1488 c 0,40,41
 775 1476 775 1476 761.5 1458 c 128,-1,42
 748 1440 748 1440 735.5 1416 c 128,-1,43
 723 1392 723 1392 714.5 1362.5 c 128,-1,44
 706 1333 706 1333 706 1299 c 0,45,46
 706 1262 706 1262 718.5 1220.5 c 128,-1,47
 731 1179 731 1179 761 1130 c 0,48,49
 771 1114 771 1114 771 1098 c 0,50,51
 771 1080 771 1080 758.5 1065.5 c 128,-1,52
 746 1051 746 1051 725 1042 c 2,53,-1
 535 972 l 1,27,28
EndSplineSet
Validated: 1
EndChar

StartChar: quotedblright
Encoding: 8221 8221 235
Width: 849
GlyphClass: 1
Flags: W
LayerCount: 2
Fore
SplineSet
346 1588 m 1,0,1
 387 1523 387 1523 407 1459 c 128,-1,2
 427 1395 427 1395 427 1331 c 0,3,4
 427 1221 427 1221 369.5 1121 c 128,-1,5
 312 1021 312 1021 201 936 c 1,6,-1
 100 995 l 2,7,8
 88 1003 88 1003 82.5 1013 c 128,-1,9
 77 1023 77 1023 77 1033 c 0,10,11
 77 1044 77 1044 82 1054.5 c 128,-1,12
 87 1065 87 1065 94 1072 c 0,13,14
 105 1084 105 1084 119 1102 c 128,-1,15
 133 1120 133 1120 145.5 1143.5 c 128,-1,16
 158 1167 158 1167 166.5 1197 c 128,-1,17
 175 1227 175 1227 175 1261 c 0,18,19
 175 1298 175 1298 162.5 1339.5 c 128,-1,20
 150 1381 150 1381 120 1430 c 0,21,22
 110 1446 110 1446 110 1462 c 0,23,24
 110 1480 110 1480 122 1494.5 c 128,-1,25
 134 1509 134 1509 156 1518 c 2,26,-1
 346 1588 l 1,0,1
713 1588 m 1,27,28
 754 1523 754 1523 774 1459 c 128,-1,29
 794 1395 794 1395 794 1331 c 0,30,31
 794 1221 794 1221 736.5 1121 c 128,-1,32
 679 1021 679 1021 567 936 c 1,33,-1
 467 995 l 2,34,35
 455 1003 455 1003 449 1013 c 128,-1,36
 443 1023 443 1023 443 1033 c 0,37,38
 443 1044 443 1044 448.5 1054.5 c 128,-1,39
 454 1065 454 1065 461 1072 c 0,40,41
 472 1084 472 1084 486 1102 c 128,-1,42
 500 1120 500 1120 512 1143.5 c 128,-1,43
 524 1167 524 1167 533 1197 c 128,-1,44
 542 1227 542 1227 542 1261 c 0,45,46
 542 1298 542 1298 529 1339.5 c 128,-1,47
 516 1381 516 1381 486 1430 c 0,48,49
 476 1446 476 1446 476 1462 c 0,50,51
 476 1480 476 1480 488.5 1494.5 c 128,-1,52
 501 1509 501 1509 522 1518 c 2,53,-1
 713 1588 l 1,27,28
EndSplineSet
Validated: 1
EndChar

StartChar: quotedblbase
Encoding: 8222 8222 236
Width: 849
GlyphClass: 1
Flags: W
LayerCount: 2
Fore
SplineSet
346 340 m 1,0,1
 387 275 387 275 407 210.5 c 128,-1,2
 427 146 427 146 427 83 c 0,3,4
 427 -27 427 -27 369.5 -127 c 128,-1,5
 312 -227 312 -227 201 -312 c 1,6,-1
 100 -253 l 2,7,8
 88 -245 88 -245 82.5 -235 c 128,-1,9
 77 -225 77 -225 77 -215 c 0,10,11
 77 -204 77 -204 82 -193.5 c 128,-1,12
 87 -183 87 -183 94 -176 c 0,13,14
 105 -164 105 -164 119 -146 c 128,-1,15
 133 -128 133 -128 145.5 -104.5 c 128,-1,16
 158 -81 158 -81 166.5 -51.5 c 128,-1,17
 175 -22 175 -22 175 12 c 0,18,19
 175 49 175 49 162.5 91 c 128,-1,20
 150 133 150 133 120 181 c 0,21,22
 110 197 110 197 110 214 c 0,23,24
 110 232 110 232 122 246.5 c 128,-1,25
 134 261 134 261 156 269 c 2,26,-1
 346 340 l 1,0,1
713 340 m 1,27,28
 754 275 754 275 774 210.5 c 128,-1,29
 794 146 794 146 794 83 c 0,30,31
 794 -27 794 -27 736.5 -127 c 128,-1,32
 679 -227 679 -227 567 -312 c 1,33,-1
 467 -253 l 2,34,35
 455 -245 455 -245 449 -235 c 128,-1,36
 443 -225 443 -225 443 -215 c 0,37,38
 443 -204 443 -204 448.5 -193.5 c 128,-1,39
 454 -183 454 -183 461 -176 c 0,40,41
 472 -164 472 -164 486 -146 c 128,-1,42
 500 -128 500 -128 512 -104.5 c 128,-1,43
 524 -81 524 -81 533 -51.5 c 128,-1,44
 542 -22 542 -22 542 12 c 0,45,46
 542 49 542 49 529 91 c 128,-1,47
 516 133 516 133 486 181 c 0,48,49
 476 197 476 197 476 214 c 0,50,51
 476 232 476 232 488.5 246.5 c 128,-1,52
 501 261 501 261 522 269 c 2,53,-1
 713 340 l 1,27,28
EndSplineSet
Validated: 1
EndChar

StartChar: dagger
Encoding: 8224 8224 237
Width: 1187
GlyphClass: 1
Flags: W
LayerCount: 2
Fore
SplineSet
53 931 m 2,0,1
 53 957 53 957 62 980.5 c 128,-1,2
 71 1004 71 1004 88.5 1022 c 128,-1,3
 106 1040 106 1040 134 1051 c 128,-1,4
 162 1062 162 1062 201 1062 c 0,5,6
 230 1062 230 1062 263 1057 c 128,-1,7
 296 1052 296 1052 331 1044 c 128,-1,8
 366 1036 366 1036 402 1027.5 c 128,-1,9
 438 1019 438 1019 474 1012 c 1,10,-1
 434 1512 l 1,11,12
 468 1531 468 1531 510 1541 c 128,-1,13
 552 1551 552 1551 598 1551 c 256,14,15
 644 1551 644 1551 686 1541.5 c 128,-1,16
 728 1532 728 1532 762 1512 c 1,17,-1
 721 1012 l 1,18,19
 757 1019 757 1019 793 1027.5 c 128,-1,20
 829 1036 829 1036 864.5 1044 c 128,-1,21
 900 1052 900 1052 933 1057 c 128,-1,22
 966 1062 966 1062 995 1062 c 0,23,24
 1033 1062 1033 1062 1061.5 1051 c 128,-1,25
 1090 1040 1090 1040 1107.5 1022 c 128,-1,26
 1125 1004 1125 1004 1134 980 c 128,-1,27
 1143 956 1143 956 1143 931 c 2,28,-1
 1143 828 l 1,29,-1
 721 828 l 1,30,-1
 721 517 l 1,31,-1
 762 -322 l 1,32,33
 728 -341 728 -341 686 -351 c 128,-1,34
 644 -361 644 -361 598 -361 c 256,35,36
 552 -361 552 -361 510 -351 c 128,-1,37
 468 -341 468 -341 434 -322 c 1,38,-1
 475 517 l 1,39,-1
 475 828 l 1,40,-1
 53 828 l 1,41,-1
 53 931 l 2,0,1
EndSplineSet
Validated: 1
EndChar

